<?xml version="1.0" encoding="UTF-8" standalone="no"?>
<!-- Created with Inkscape (http://www.inkscape.org/) -->

<svg
   version="1.1"
   id="svg11888"
   xml:space="preserve"
   width="696.49579"
   height="734.05408"
   viewBox="0 0 696.49576 734.05407"
   sodipodi:docname="3-6-sym.svg"
   inkscape:version="1.1.2 (0a00cf5339, 2022-02-04)"
   xmlns:inkscape="http://www.inkscape.org/namespaces/inkscape"
   xmlns:sodipodi="http://sodipodi.sourceforge.net/DTD/sodipodi-0.dtd"
   xmlns="http://www.w3.org/2000/svg"
   xmlns:svg="http://www.w3.org/2000/svg"><defs
     id="defs11892"><clipPath
       clipPathUnits="userSpaceOnUse"
       id="clipPath11904"><path
         d="M 221.066,108.573 H 627.154 V 506.416 H 221.066 Z"
         id="path11902" /></clipPath><clipPath
       clipPathUnits="userSpaceOnUse"
       id="clipPath11922"><path
         d="m 422.717,23.0376 h 1.674 V 563.639 h -1.674 z"
         id="path11920" /></clipPath><clipPath
       clipPathUnits="userSpaceOnUse"
       id="clipPath11936"><path
         d="m 164.287,305.131 h 515.926 v 2.852 H 164.287 Z"
         id="path11934" /></clipPath><clipPath
       clipPathUnits="userSpaceOnUse"
       id="clipPath11950"><path
         d="m 414.53,552.538 h 18.722 v 23.364 H 414.53 Z"
         id="path11948" /></clipPath><clipPath
       clipPathUnits="userSpaceOnUse"
       id="clipPath11964"><path
         d="m 669.238,293.315 h 17.578 v 27.186 h -17.578 z"
         id="path11962" /></clipPath><clipPath
       clipPathUnits="userSpaceOnUse"
       id="clipPath11978"><path
         d="m 592.48,391.088 h 18.327 V 409.11 H 592.48 Z"
         id="path11976" /></clipPath><clipPath
       clipPathUnits="userSpaceOnUse"
       id="clipPath11992"><path
         d="m 617.293,416.495 h 2.823 v 15.448 h -2.823 z"
         id="path11990" /></clipPath><clipPath
       clipPathUnits="userSpaceOnUse"
       id="clipPath12006"><path
         d="m 624.151,417.884 h 2.705 v 15.491 h -2.705 z"
         id="path12004" /></clipPath><clipPath
       clipPathUnits="userSpaceOnUse"
       id="clipPath12020"><path
         d="m 610.339,422.976 h 24.35 v 16.947 h -24.35 z"
         id="path12018" /></clipPath><clipPath
       clipPathUnits="userSpaceOnUse"
       id="clipPath12034"><path
         d="m 615.902,404.947 h 21.005 v 22.379 h -21.005 z"
         id="path12032" /></clipPath><clipPath
       clipPathUnits="userSpaceOnUse"
       id="clipPath12048"><path
         d="m 627.21,398.513 h 9.164 v 20.128 h -9.164 z"
         id="path12046" /></clipPath><clipPath
       clipPathUnits="userSpaceOnUse"
       id="clipPath12062"><path
         d="m 520.042,469.034 h 15.946 v 14.334 h -15.946 z"
         id="path12060" /></clipPath><clipPath
       clipPathUnits="userSpaceOnUse"
       id="clipPath12076"><path
         d="m 545.324,495.157 h 3.324 v 10.111 h -3.324 z"
         id="path12074" /></clipPath><clipPath
       clipPathUnits="userSpaceOnUse"
       id="clipPath12090"><path
         d="m 550.852,495.606 h 3.096 v 12.29 h -3.096 z"
         id="path12088" /></clipPath><clipPath
       clipPathUnits="userSpaceOnUse"
       id="clipPath12104"><path
         d="m 535.496,498.546 h 26.533 v 19.228 h -26.533 z"
         id="path12102" /></clipPath><clipPath
       clipPathUnits="userSpaceOnUse"
       id="clipPath12118"><path
         d="m 543.88,483.833 h 26.175 v 20.624 H 543.88 Z"
         id="path12116" /></clipPath><clipPath
       clipPathUnits="userSpaceOnUse"
       id="clipPath12132"><path
         d="m 554.733,474.15 h 13.103 v 14.715 h -13.103 z"
         id="path12130" /></clipPath><clipPath
       clipPathUnits="userSpaceOnUse"
       id="clipPath12146"><path
         d="M 173.669,62.1597 H 652.741 V 530.55 H 173.669 Z"
         id="path12144" /></clipPath><clipPath
       clipPathUnits="userSpaceOnUse"
       id="clipPath12160"><path
         d="m 511.64,397.654 h 57.716 v 47.865 H 511.64 Z"
         id="path12158" /></clipPath><clipPath
       clipPathUnits="userSpaceOnUse"
       id="clipPath12174"><path
         d="m 501.291,433.052 h 21.928 v 14.852 h -21.928 z"
         id="path12172" /></clipPath><clipPath
       clipPathUnits="userSpaceOnUse"
       id="clipPath12188"><path
         d="m 556.978,389.351 h 14.176 v 20.379 h -14.176 z"
         id="path12186" /></clipPath></defs><sodipodi:namedview
     id="namedview11890"
     pagecolor="#505050"
     bordercolor="#eeeeee"
     borderopacity="1"
     inkscape:pageshadow="0"
     inkscape:pageopacity="0"
     inkscape:pagecheckerboard="0"
     showgrid="false"
     fit-margin-top="0"
     fit-margin-left="0"
     fit-margin-right="0"
     fit-margin-bottom="0"
     inkscape:zoom="0.989608"
     inkscape:cx="342.05463"
     inkscape:cy="368.83291"
     inkscape:window-width="1920"
     inkscape:window-height="1167"
     inkscape:window-x="0"
     inkscape:window-y="0"
     inkscape:window-maximized="1"
     inkscape:current-layer="g11894" /><g
     id="g11894"
     inkscape:groupmode="layer"
     inkscape:label="circle-PICS"
     transform="matrix(1.3333333,0,0,-1.3333333,-219.04933,764.7709)"><g
       id="g11896"><g
         id="g11898"><g
           id="g11900"
           clip-path="url(#clipPath11904)"><g
             id="g11906"><path
               d="m 625.65393,307.49432 c 0,108.93412 -90.3352,197.42173 -201.54391,197.42173 -111.20874,0 -201.54398,-88.48761 -201.54398,-197.42173 0,-108.93412 90.33524,-197.42169 201.54398,-197.42169 111.20871,0 201.54391,88.48757 201.54391,197.42169 z"
               style="fill:#000000;fill-opacity:0;fill-rule:evenodd;stroke:#000000;stroke-width:3;stroke-linecap:butt;stroke-linejoin:miter;stroke-miterlimit:10;stroke-dasharray:none;stroke-opacity:1"
               id="path11908" /></g><g
             id="g11910"><path
               d="m 624.15393,307.49432 c 0,108.10648 -89.66284,195.92173 -200.04391,195.92173 -110.38111,0 -200.04398,-87.81525 -200.04398,-195.92173 0,-108.10643 89.66287,-195.92169 200.04398,-195.92169 110.38107,0 200.04391,87.81526 200.04391,195.92169 z"
               style="fill:#000000;fill-opacity:0;fill-rule:evenodd;stroke:none"
               id="path11912" /></g></g></g></g><g
       id="g11914"><g
         id="g11916"><g
           id="g11918"
           clip-path="url(#clipPath11922)"><g
             id="g11924"><path
               d="M 423.89102,563.63849 423.2175,23.03826"
               style="fill:#000000;fill-opacity:0;fill-rule:evenodd;stroke:#000000;stroke-width:1.0001;stroke-linecap:butt;stroke-linejoin:miter;stroke-miterlimit:10;stroke-dasharray:none;stroke-opacity:1"
               id="path11926" /></g></g></g></g><g
       id="g11928"><g
         id="g11930"><g
           id="g11932"
           clip-path="url(#clipPath11936)"><g
             id="g11938"><path
               d="M 164.28862,307.48325 680.21136,305.6308"
               style="fill:#000000;fill-opacity:0;fill-rule:evenodd;stroke:#000000;stroke-width:1.0001;stroke-linecap:butt;stroke-linejoin:miter;stroke-miterlimit:10;stroke-dasharray:none;stroke-opacity:1"
               id="path11940" /></g></g></g></g><g
       id="g11942"
       transform="matrix(1.000002,0,0,0.999984,-3.1e-5,2.44e-4)"><g
         id="g11944"
         transform="matrix(1.00678,0,0,1.00678,-4.84948,-6.21949)"><g
           id="g11946"
           clip-path="url(#clipPath11950)"><g
             id="g11952"><path
               d="m 414.62509,552.53906 c 0.0653,0.008 0.1575,0.0538 0.25595,0.12799 l 0.1453,0.12708 0.27411,0.2713 0.30841,0.32764 0.29849,0.34021 0.28723,0.34948 0.52377,0.6988 0.50605,0.75433 0.46203,0.76501 0.42774,0.77845 0.39834,0.7893 0.37277,0.79682 0.35123,0.80175 0.33252,0.80286 0.31696,0.80054 0.30441,0.79437 0.29425,0.78406 0.28635,0.76898 0.28222,0.75244 0.27905,0.72839 1.00602,2.68317 0.99341,2.70569 1.00613,2.70398 0.18851,0.49103 0.071,-0.35376 0.0476,-0.2229 0.0466,-0.21289 0.0442,-0.19928 0.0405,-0.18158 0.0351,-0.15967 0.0284,-0.13349 0.11511,-0.50824 0.12696,-0.50652 0.13827,-0.50568 0.15103,-0.51074 0.33072,-1.0083 0.36917,-1.00275 0.40378,-0.99524 0.43433,-0.98645 0.46136,-0.97656 0.48438,-0.96533 0.50375,-0.95289 0.51923,-0.93921 0.53097,-0.92401 0.53885,-0.90814 0.54297,-0.89056 0.54321,-0.87207 0.53983,-0.85175 0.53244,-0.83075 0.0606,-0.0872 0.0778,-0.0895 c 0.14184,-0.0392 0.40255,0.10627 0.64596,0.3498 0.20877,0.20868 0.34552,0.43017 0.36173,0.56683 l -0.0213,0.107 -0.0542,0.0895 -0.55799,0.88788 -0.53497,0.85571 -0.53967,0.87262 -0.54135,0.89075 -0.53812,0.90582 -0.53067,0.91931 -0.52045,0.93482 -0.50558,0.94745 -0.48529,0.9563 -0.46375,0.96954 -0.43658,0.979 -0.4046,0.98474 -0.37012,0.99335 -0.33118,0.99933 -0.14966,0.50128 -0.13781,0.50013 -0.12677,0.5039 -0.11484,0.50549 -0.03,0.13294 -0.0363,0.15936 -0.041,0.18054 -0.0446,0.19806 -0.047,0.211 -0.0475,0.22003 -0.0925,0.45185 -0.0422,0.2232 -0.0372,0.21216 -0.0318,0.20367 -0.0242,0.18396 -0.0157,0.16236 -0.006,0.13275 0.0166,0.15155 c 0.009,0.068 0.002,0.10278 -0.0208,0.125 -0.089,0.089 -0.37763,-0.0552 -0.64462,-0.32245 -0.13358,-0.13342 -0.23646,-0.27234 -0.29484,-0.38904 l -0.54882,-1.39831 -0.51386,-1.35108 -1.00592,-2.7099 -0.99628,-2.70575 -1.00659,-2.67798 -0.27249,-0.72747 -0.28,-0.75214 -0.28656,-0.76685 -0.29519,-0.77844 -0.30564,-0.78668 -0.31811,-0.79254 -0.32553,-0.7785 -0.34089,-0.77607 -0.35208,-0.75689 -0.36648,-0.73792 -0.37906,-0.70868 -0.39252,-0.67566 -0.40469,-0.63562 -0.42255,-0.59955 -0.20767,-0.27087 -0.21506,-0.26489 -0.22153,-0.25617 -0.24188,-0.2619 -0.0889,-0.10614 c -0.11124,-0.14776 -0.15937,-0.28137 -0.10956,-0.33118 0.0166,-0.0167 0.0425,-0.0223 0.0752,-0.0184 z"
               style="fill:#000000;fill-opacity:1;fill-rule:evenodd;stroke:#000000;stroke-width:0.744954;stroke-linecap:butt;stroke-linejoin:miter;stroke-miterlimit:10;stroke-dasharray:none;stroke-opacity:1"
               id="path11954" /></g></g></g></g><g
       id="g11956"
       transform="matrix(1.000052,0,0,1.000025,0,-2.14e-4)"><g
         id="g11958"
         transform="matrix(1.00678,0,0,1.00678,-4.84948,-6.21949)"><g
           id="g11960"
           clip-path="url(#clipPath11964)"><g
             id="g11966"><path
               d="m 686.04217,310.37231 z m -16.63916,-17.05535 c 0.146,0.0173 0.38276,0.16348 0.6059,0.38665 0.18591,0.18586 0.31848,0.3812 0.36749,0.52582 l 0.0305,0.16827 0.0525,0.16736 0.0464,0.0915 0.0596,0.0989 0.0736,0.11011 0.28223,0.39157 0.29284,0.37277 0.30774,0.36286 0.32367,0.3558 0.34003,0.35104 0.35748,0.34867 0.37439,0.3472 0.3794,0.33694 0.81951,0.68802 0.84955,0.67407 0.87171,0.66837 0.85528,0.64721 1.13922,0.8367 1.15625,0.81189 1.18799,0.81961 1.19574,0.83258 1.19776,0.86438 0.60492,0.45563 0.59765,0.46744 0.59064,0.483 0.58459,0.50211 0.57685,0.52432 0.5664,0.54797 0.12781,0.13465 0.11456,0.13104 c 0.0343,0.0393 0.0647,0.0767 0.0924,0.11343 l 0.0645,0.093 0.0871,0.13284 c 0.0316,0.0498 0.0508,0.0837 0.0671,0.11615 l 0.0747,0.16297 0.0699,0.22149 0.0269,0.1847 -5.5e-4,0.1636 -0.0201,0.15 -0.0347,0.13839 -0.0475,0.13541 -0.0558,0.12604 -0.12732,0.22937 -0.13532,0.20248 -0.12286,0.16751 -0.0657,0.0861 -0.0834,0.0696 -0.13495,0.10303 -0.21497,0.16431 -0.1485,0.11361 -0.12316,0.0941 -0.11957,0.0908 -0.11304,0.0643 -0.13031,0.0697 -0.11456,0.0558 -0.13532,0.0626 -0.1535,0.0685 -0.16943,0.0733 -0.18213,0.0771 -0.39185,0.16146 -0.41034,0.16379 -0.40588,0.15698 -0.19446,0.0734 -0.18475,0.0683 -0.17237,0.0622 -0.15729,0.0551 -0.64666,0.22213 -0.68225,0.2425 -0.35388,0.13028 -0.34852,0.13119 -0.33233,0.12759 -0.30286,0.11878 -0.26312,0.10589 -0.23035,0.0957 -0.21148,0.0917 -0.20533,0.0927 -0.32513,0.1539 -0.33728,0.16782 -0.34338,0.17834 -0.34894,0.18778 -0.70765,0.3988 -0.7022,0.41648 -0.34156,0.2095 -0.33465,0.20953 -0.32288,0.20633 -0.31067,0.2027 -0.2948,0.19601 -0.27704,0.18833 -0.25677,0.17865 -0.23432,0.1673 -0.1737,0.12664 -0.14935,0.10993 -0.12677,0.0938 -0.10797,0.0812 -0.0901,0.0688 -0.14161,0.1117 -0.15234,0.12906 -0.0956,0.0861 -0.11438,0.10299 -0.15515,0.13645 -0.23151,0.20446 -0.21081,0.19565 -0.19452,0.18918 -0.18586,0.18775 -0.17718,0.18383 -0.16357,0.17316 -0.13996,0.14984 -0.10608,0.11457 -0.0829,0.0895 -0.0691,0.076 -0.10247,0.11756 -0.0653,0.0814 -0.062,0.0951 -0.0483,0.0879 0.30127,0.0465 0.43988,-0.0563 c 0.13067,0.0116 0.28784,0.10874 0.43603,0.25696 0.19763,0.19754 0.30445,0.41123 0.23859,0.47708 l -0.45221,0.0992 -0.42133,0.0967 -0.21643,0.0406 -0.21954,0.0271 -0.22559,0.008 -0.2351,-0.0188 c -0.082,-0.006 -0.13184,-0.0228 -0.18708,-0.0504 -0.14251,-0.0716 -0.2774,-0.17139 -0.40722,-0.30105 -0.0645,-0.0648 -0.12195,-0.13093 -0.17017,-0.19501 l -0.10266,-0.14884 c -0.0607,-0.0948 -0.0905,-0.15438 -0.10821,-0.20672 l -0.0377,-0.17176 0.003,-0.19982 0.037,-0.17646 0.058,-0.169 0.0734,-0.15976 0.0828,-0.14527 0.0677,-0.10247 0.0518,-0.0959 0.10943,-0.15314 0.0852,-0.0811 0.0893,-0.12317 0.0819,-0.0917 0.0842,-0.074 0.16083,-0.19366 0.16351,-0.17478 0.17859,-0.18661 0.18634,-0.18912 0.19653,-0.19141 0.21174,-0.19696 0.23669,-0.20926 0.0843,-0.0731 0.18372,-0.16455 0.0953,-0.0863 0.0997,-0.0865 0.0991,-0.0676 0.0971,-0.0875 0.10065,-0.0768 0.10943,-0.0807 0.12903,-0.0939 0.15125,-0.10888 0.17657,-0.12567 0.23682,-0.16675 0.26007,-0.17825 0.28009,-0.18757 0.29803,-0.195 0.31342,-0.20108 0.3269,-0.20526 0.33765,-0.20777 0.34595,-0.20868 0.70849,-0.41259 0.71515,-0.39582 0.35468,-0.18738 0.34881,-0.17773 0.34107,-0.16675 0.33136,-0.15399 0.20794,-0.0921 0.21534,-0.0915 0.23498,-0.0962 0.26593,-0.10553 0.30432,-0.11816 0.33429,-0.12723 0.3512,-0.13116 0.35474,-0.13001 0.68579,-0.24347 0.64575,-0.2228 0.15515,-0.0542 0.17108,-0.0625 0.18231,-0.0686 0.19171,-0.074 0.4007,-0.15964 0.40472,-0.16702 0.38556,-0.16416 0.17957,-0.0785 0.16547,-0.0739 0.1513,-0.0691 0.13178,-0.0622 0.10791,-0.0532 0.10736,-0.0526 0.0856,-0.0515 0.0875,-0.0688 0.0898,-0.0589 0.0771,-0.0705 0.15558,-0.12121 0.14789,-0.11429 0.10351,-0.0686 0.0828,-0.0686 0.0786,-0.0735 0.16602,-0.23423 0.12591,-0.19333 0.11524,-0.21789 0.0471,-0.11334 0.038,-0.11643 0.0263,-0.1159 0.0134,-0.11442 -6.1e-4,-0.10626 -0.0268,-0.13787 -0.37232,-0.3592 -0.48266,-0.43734 -0.50171,-0.42975 -0.51996,-0.42401 -0.54022,-0.42161 -0.54438,-0.4093 -1.14605,-0.82568 -1.17945,-0.82016 -1.18676,-0.81802 -1.19367,-0.83771 -1.18841,-0.87168 -0.89399,-0.67611 -0.88861,-0.6803 -0.92151,-0.72955 -0.91058,-0.76294 -0.46857,-0.41458 -0.45074,-0.41776 -0.44428,-0.43289 -0.43597,-0.44974 -0.42407,-0.46606 -0.40875,-0.48218 -0.38904,-0.4964 -0.36518,-0.50879 -0.14019,-0.21051 -0.13208,-0.21957 -0.12036,-0.23548 -0.0961,-0.24838 -0.043,-0.17917 -0.0159,-0.13299 c 0.007,-0.0846 0.015,-0.10053 0.0274,-0.11289 0.0248,-0.0247 0.0635,-0.0333 0.1123,-0.0275 z"
               style="fill:#000000;fill-opacity:1;fill-rule:evenodd;stroke:#000000;stroke-width:0.744921;stroke-linecap:butt;stroke-linejoin:miter;stroke-miterlimit:10;stroke-dasharray:none;stroke-opacity:1"
               id="path11968" /></g></g></g></g><g
       id="g11970"><g
         id="g11972"><g
           id="g11974"
           clip-path="url(#clipPath11978)"><g
             id="g11980"><path
               d="m 599.82721,391.08798 0.32892,0.002 0.16522,0.008 0.34308,0.0283 0.13647,0.0201 0.35773,0.0569 0.14856,0.0296 0.36682,0.0892 0.24365,0.07 0.44489,0.14664 c 0.10944,0.0367 0.20087,0.0718 0.29498,0.11178 l 0.49024,0.21784 0.2113,0.10006 c 0.0994,0.0497 0.20099,0.10407 0.30463,0.163 l 0.40527,0.23285 0.28888,0.17437 c 0.10736,0.0679 0.21625,0.14011 0.32648,0.2165 l 0.14874,0.1076 0.34369,0.24567 0.18591,0.13647 c 0.22485,0.16922 0.45319,0.35449 0.68225,0.55426 l 0.0941,0.0849 0.31189,0.27533 0.24926,0.2269 c 0.11451,0.10703 0.22889,0.21744 0.34253,0.33124 0.11365,0.11371 0.22419,0.22797 0.33124,0.3425 l 0.34039,0.36914 0.24939,0.27777 c 0.1,0.11456 0.19623,0.22903 0.28882,0.34296 l 0.24957,0.31893 0.24726,0.32667 c 0.18585,0.246 0.33923,0.46749 0.47522,0.6824 l 0.25866,0.41727 0.14747,0.24801 0.15808,0.29538 0.18463,0.36685 c 0.0546,0.10916 0.0996,0.20639 0.13965,0.30085 l 0.18707,0.46502 0.0713,0.19235 0.1488,0.47883 0.048,0.1734 0.0902,0.4017 0.0345,0.18643 0.0634,0.41623 0.0109,0.11905 0.0338,0.42224 0.005,0.52063 -0.0276,0.46677 -0.0129,0.10394 -0.0534,0.42392 -0.0961,0.47616 -0.11834,0.43116 -0.1662,0.47696 -0.18768,0.42959 -0.21552,0.40753 -0.24939,0.39432 -0.2771,0.36808 -0.30713,0.34335 -0.33716,0.31595 -0.36822,0.28619 -0.39917,0.25342 -0.41797,0.21121 -0.23608,0.0942 -0.21045,0.212 -0.23279,0.20075 -0.24939,0.18594 -0.26599,0.17041 -0.28357,0.1536 -0.3017,0.13592 -0.2622,0.0899 -0.25586,0.0583 -0.13202,0.0177 -0.19202,0.0202 -0.13855,8.5e-4 -0.18805,-0.002 -0.13415,-0.009 -0.1847,-0.0267 -0.23608,-0.0427 -0.18146,-0.047 -0.25598,-0.0745 -0.10321,-0.0396 -0.17621,-0.063 -0.1723,-0.0685 -0.23828,0.0291 -0.39868,0.0783 -0.4137,0.0449 -0.11206,0.004 -0.28339,0.002 -0.19799,-0.009 -0.3194,-0.0332 -0.22919,-0.0395 -0.31067,-0.0688 c -0.11401,-0.0266 -0.20086,-0.0519 -0.29089,-0.0824 l -0.36237,-0.12955 -0.21832,-0.0856 c -0.096,-0.0407 -0.19476,-0.0865 -0.2959,-0.13711 l -0.33563,-0.17112 -0.26483,-0.143 c -0.10559,-0.0601 -0.21326,-0.12476 -0.32263,-0.19394 l -0.13721,-0.0878 -0.33569,-0.22238 -0.22547,-0.16318 -0.13653,-0.0984 -0.11512,-0.0849 c -0.1145,-0.0863 -0.22985,-0.17654 -0.34582,-0.27069 l -0.11871,-0.0999 -0.15546,-0.12818 -0.20819,-0.17721 c -0.11658,-0.10178 -0.2334,-0.20716 -0.34998,-0.31619 l -0.20062,-0.18973 -0.27753,-0.26999 -0.32629,-0.33746 -0.12543,-0.13385 c -0.11981,-0.12803 -0.22534,-0.24485 -0.32708,-0.36155 l -0.19306,-0.22918 -0.12268,-0.14542 -0.0993,-0.11999 c -0.0942,-0.11594 -0.18458,-0.23136 -0.2707,-0.34586 l -0.11334,-0.15305 -0.24957,-0.34475 -0.11816,-0.17816 -0.11487,-0.17029 -0.0998,-0.15372 c -0.0691,-0.10934 -0.13378,-0.21704 -0.19384,-0.32269 l -0.14392,-0.25345 -0.1673,-0.31247 -0.0647,-0.13944 -0.12823,-0.26983 -0.0688,-0.15457 -0.0626,-0.16315 -0.10809,-0.28064 -0.041,-0.11398 -0.0348,-0.11939 -0.0881,-0.28985 -0.0377,-0.13861 -0.064,-0.29126 -0.0328,-0.17768 -0.0484,-0.30258 -0.0116,-0.10791 -0.0248,-0.25821 -0.007,-0.13541 -0.0118,-0.30987 0.009,-0.37528 0.0312,-0.38015 0.051,-0.36112 0.0704,-0.35153 0.0829,-0.31726 0.11383,-0.35434 0.125,-0.31854 0.14276,-0.30615 0.15412,-0.28141 0.18383,-0.28869 0.19507,-0.26123 0.21302,-0.24372 0.22332,-0.21734 0.2569,-0.21097 0.26886,-0.18128 0.16882,-0.30081 0.1012,-0.26666 0.11108,-0.25275 0.16993,-0.33017 0.19067,-0.30716 0.20703,-0.27673 0.22272,-0.24661 0.23785,-0.2175 0.25244,-0.18863 0.26606,-0.16031 0.2799,-0.13263 0.29383,-0.10519 0.30352,-0.0771 0.32337,-0.0515 0.10211,-0.01 0.23212,-0.0138 0.10766,-10e-4 0.16327,-0.0779 0.32386,-0.12228 0.34686,-0.096 0.37207,-0.0674 0.39862,-0.0361 0.0508,-0.004 z"
               style="fill:#0000ff;fill-opacity:1;fill-rule:evenodd;stroke:#0000ff;stroke-width:0.75;stroke-linecap:butt;stroke-linejoin:miter;stroke-miterlimit:10;stroke-dasharray:none;stroke-opacity:1"
               id="path11982" /></g></g></g></g><g
       id="g11984"><g
         id="g11986"><g
           id="g11988"
           clip-path="url(#clipPath11992)"><g
             id="g11994"><path
               d="m 618.41669,416.49744 c 0.25036,0.0297 0.65551,0.28003 1.03753,0.66205 0.38202,0.38201 0.63233,0.7872 0.66193,1.0375 l -0.006,0.17053 -0.008,0.21204 -0.009,0.13736 -0.1842,0.83209 -0.13812,0.78531 -0.10474,0.79947 -0.0761,0.81659 -0.0504,0.81827 -0.03,0.83767 -0.0128,0.84024 2.4e-4,0.84082 0.009,0.84284 0.0137,0.84067 0.0252,1.6568 0.003,0.8142 -0.009,0.79941 -0.0251,0.7818 -0.0454,0.76126 c -0.0125,0.0692 -0.0254,0.0937 -0.0446,0.11295 -0.15351,0.1535 -0.65125,-0.0954 -1.11188,-0.55588 -0.34534,-0.3454 -0.57166,-0.71176 -0.59851,-0.93811 l -0.0604,-0.85431 -0.0618,-0.84235 -0.0621,-0.84997 -0.0601,-0.85602 -0.10327,-1.72186 -0.0378,-0.86646 -0.0252,-0.8641 -0.01,-0.86179 0.008,-0.85794 0.0288,-0.84823 0.0519,-0.83658 0.0793,-0.84772 0.10724,-0.8248 0.13885,-0.81241 0.17297,-0.79815 0.0817,-0.15857 0.0761,-0.0657 0.10571,-0.0719 0.11469,-0.0378 c 0.0793,-0.033 0.11676,-0.0341 0.15851,-0.0292 z"
               style="fill:#0000ff;fill-opacity:1;fill-rule:evenodd;stroke:#0000ff;stroke-width:0.75;stroke-linecap:butt;stroke-linejoin:miter;stroke-miterlimit:10;stroke-dasharray:none;stroke-opacity:1"
               id="path11996" /></g></g></g></g><g
       id="g11998"><g
         id="g12000"><g
           id="g12002"
           clip-path="url(#clipPath12006)"><g
             id="g12008"><path
               d="m 625.05072,417.88385 c 0.33893,0.0319 0.73865,0.27896 1.11548,0.65579 0.31421,0.31403 0.53802,0.64401 0.62079,0.88815 l 0.0362,0.13367 0.0326,0.14133 -0.004,0.10617 -0.11224,0.59494 -0.0986,0.59683 -0.0831,0.5939 -0.0698,0.59507 -0.0581,0.6055 -0.0455,0.59613 -0.0352,0.59671 -0.0259,0.6069 -0.0262,1.21127 10e-4,1.20157 0.0209,1.19541 0.033,1.18594 0.003,0.19574 10e-4,0.11298 8.5e-4,0.12207 8e-4,0.26751 -4.9e-4,0.29428 -0.002,0.31269 -0.003,0.32422 -0.004,0.32812 -0.005,0.32449 -0.006,0.3136 -0.007,0.29523 -0.008,0.26953 -0.009,0.2366 -0.005,0.10474 -0.0105,0.17496 -0.0121,0.12918 -0.0565,0.15985 c -0.29022,0.094 -0.73206,-0.15262 -1.14465,-0.56525 -0.4126,-0.41263 -0.65925,-0.8544 -0.6092,-1.06372 l 0.008,-0.12246 -8e-4,-0.12427 -0.0129,-0.16364 -0.0123,-0.24985 -0.0157,-0.2828 -0.0185,-0.3129 -0.0207,-0.33334 -0.0218,-0.34363 -0.0223,-0.34759 -0.022,-0.34238 -0.021,-0.32944 -0.019,-0.30872 -0.0167,-0.27957 -0.007,-0.12701 -0.006,-0.11646 -0.005,-0.1055 -0.0479,-1.29522 -0.0411,-1.21878 -0.0242,-1.23365 0.008,-1.23922 0.0205,-0.61902 0.0339,-0.60907 0.0503,-0.6239 0.0673,-0.60825 0.0866,-0.6019 0.10755,-0.59423 0.13061,-0.58527 0.15339,-0.56717 c 0.057,-0.0973 0.0699,-0.10669 0.0841,-0.11432 l 0.16254,-0.0383 -0.005,-0.004 z"
               style="fill:#0000ff;fill-opacity:1;fill-rule:evenodd;stroke:#0000ff;stroke-width:0.75;stroke-linecap:butt;stroke-linejoin:miter;stroke-miterlimit:10;stroke-dasharray:none;stroke-opacity:1"
               id="path12010" /></g></g></g></g><g
       id="g12012"><g
         id="g12014"><g
           id="g12016"
           clip-path="url(#clipPath12020)"><g
             id="g12022"><path
               d="m 610.55817,422.97909 c 0.22644,0.0268 0.59265,0.25321 0.93811,0.59858 0.17266,0.1727 0.31555,0.35061 0.41876,0.5137 l 0.13714,0.22342 0.0852,0.12002 0.0919,0.115 0.10791,0.12216 0.12811,0.13345 0.13568,0.13202 0.39722,0.35681 0.44354,0.37058 0.48425,0.38992 0.24897,0.19955 0.25274,0.20441 0.25678,0.21194 0.26276,0.22422 0.64501,0.55557 0.61396,0.50961 0.62127,0.49719 0.63385,0.48966 0.63587,0.47482 0.65149,0.4708 0.65954,0.4617 0.659,0.44781 1.3728,0.89469 1.4057,0.87204 1.44623,0.86062 1.49298,0.85993 0.4076,0.23724 0.44494,0.26956 0.86035,0.53909 0.82129,0.51517 0.80634,0.48203 0.37726,0.21045 0.38177,0.19931 0.38275,0.18362 0.383,0.16477 0.38434,0.14382 0.39087,0.12171 0.39569,0.0957 0.41546,0.0688 0.15485,0.0127 0.1026,-0.01 c 0.30139,-0.0745 0.87042,0.24323 1.40185,0.77466 0.60731,0.60736 0.93561,1.26386 0.7331,1.46631 l -0.10218,0.0692 -0.10424,0.0486 -0.13849,0.0335 -0.19818,0.008 -0.54169,-0.0836 -0.50232,-0.12021 -0.52118,-0.16095 -0.51544,-0.19257 -0.51477,-0.22165 -0.51154,-0.24597 -0.505,-0.26486 -0.49573,-0.27823 -0.93445,-0.56299 -0.89911,-0.56955 -0.81518,-0.51763 -0.36835,-0.22681 -0.37579,-0.22214 -1.50672,-0.87906 -1.52331,-0.92114 -1.50592,-0.95129 -1.48987,-0.99036 -0.7572,-0.52509 -0.73767,-0.52749 -0.73438,-0.54196 -0.71087,-0.54218 -0.74799,-0.58975 -0.7243,-0.59189 -0.72046,-0.61035 -0.7013,-0.61652 -0.195,-0.17135 -0.18653,-0.15793 -0.2124,-0.1763 -0.24744,-0.20365 -0.52862,-0.43908 -0.58423,-0.50669 -0.12323,-0.11483 -0.49854,-0.46921 -0.0768,-0.0748 -0.28631,-0.29663 -0.10517,-0.11511 -0.21765,-0.24424 -0.10998,-0.13317 -0.20008,-0.24613 -0.1076,-0.14545 -0.17786,-0.24758 -0.0732,-0.10907 -0.17249,-0.28415 -0.0694,-0.12522 -0.12531,-0.25522 -0.0561,-0.13351 c -0.0455,-0.13428 -0.0446,-0.24027 0.0131,-0.29782 0.0384,-0.0384 0.0982,-0.0516 0.17365,-0.0427 z"
               style="fill:#0000ff;fill-opacity:1;fill-rule:evenodd;stroke:#0000ff;stroke-width:0.75;stroke-linecap:butt;stroke-linejoin:miter;stroke-miterlimit:10;stroke-dasharray:none;stroke-opacity:1"
               id="path12024" /></g></g></g></g><g
       id="g12026"><g
         id="g12028"><g
           id="g12030"
           clip-path="url(#clipPath12034)"><g
             id="g12036"><path
               d="m 616.12848,404.94983 c 0.19769,0.0234 0.4975,0.19217 0.80145,0.45727 l 0.13037,0.12195 0.15424,0.15598 0.0796,0.0852 0.0715,0.0783 0.0691,0.0775 0.0798,0.0929 0.0761,0.0875 0.0928,0.10858 0.0997,0.11722 0.21631,0.25634 0.24243,0.28955 0.2616,0.31452 0.27582,0.33349 0.2857,0.34766 0.28998,0.35486 0.29059,0.35831 0.28516,0.354 0.27575,0.34567 0.26178,0.33176 0.24329,0.31296 0.22253,0.29196 0.65577,0.86285 0.64483,0.81806 0.6535,0.80078 0.66559,0.7886 0.67481,0.77432 0.68359,0.76111 0.69647,0.75354 0.69886,0.73575 1.46338,1.48456 1.50231,1.45871 1.54737,1.44842 1.61407,1.46738 0.24146,0.22412 0.0884,0.0862 0.20593,0.2001 0.0892,0.0932 0.41266,0.42508 0.4726,0.50802 0.3822,0.41114 0.3241,0.33493 0.24389,0.23187 c 0.32196,0.0352 0.77796,0.31711 1.20795,0.7471 0.3584,0.35828 0.61377,0.73477 0.70831,1.01337 l 0.0327,0.10068 0.0309,0.10693 0.0317,0.14728 -0.003,0.12085 c -0.0149,0.0708 -0.0317,0.10287 -0.0568,0.1279 l -0.11597,0.0578 c -0.0747,0.0188 -0.14587,0.015 -0.22772,-0.005 l -0.112,-0.0328 -0.15533,-0.0634 -0.099,-0.0432 c -0.0668,-0.0333 -0.1366,-0.0731 -0.20862,-0.11868 l -0.245,-0.15759 -0.15478,-0.10828 -0.22309,-0.16019 -0.14843,-0.11682 -0.2204,-0.17419 -0.12995,-0.10868 -0.21569,-0.18853 -0.16083,-0.15018 L 634,425.4779 l -0.13696,-0.14007 -0.422,-0.43698 -0.47968,-0.5202 -0.38488,-0.41932 -0.331,-0.34704 -0.11193,-0.11087 -0.14887,-0.13956 -1.61218,-1.48321 -1.64142,-1.55204 -1.61523,-1.58197 -1.58613,-1.6213 -0.79956,-0.84797 -0.77282,-0.8424 -0.76313,-0.85614 -0.73913,-0.85505 -0.75427,-0.90069 -0.72913,-0.90122 -0.71619,-0.91723 -0.69873,-0.92865 -0.19464,-0.26157 -0.20105,-0.26263 -0.22681,-0.29114 -0.25775,-0.32605 -0.2655,-0.33307 -0.2727,-0.34006 -0.27314,-0.33917 -0.2735,-0.3392 -0.26281,-0.32602 -0.24933,-0.3103 -0.23017,-0.28839 -0.20745,-0.26294 -0.0994,-0.12793 -0.0894,-0.11634 -0.0808,-0.10714 -0.0818,-0.11118 -0.0788,-0.11111 -0.0821,-0.12336 -0.0816,-0.14022 c -0.0747,-0.13898 -0.0964,-0.18988 -0.11242,-0.23743 l -0.0278,-0.10703 c -0.0154,-0.11615 -0.002,-0.17892 0.0386,-0.21917 0.0402,-0.0402 0.10297,-0.0541 0.18213,-0.0447 z"
               style="fill:#0000ff;fill-opacity:1;fill-rule:evenodd;stroke:#0000ff;stroke-width:0.75;stroke-linecap:butt;stroke-linejoin:miter;stroke-miterlimit:10;stroke-dasharray:none;stroke-opacity:1"
               id="path12038" /></g></g></g></g><g
       id="g12040"><g
         id="g12042"><g
           id="g12044"
           clip-path="url(#clipPath12048)"><g
             id="g12050"><path
               d="m 631.84601,400.90985 -0.14148,0.0149 -0.1518,0.0396 -0.1582,0.0683 -0.16211,0.1 -0.16321,0.13385 -0.16345,0.17111 -0.16125,0.20923 -0.14087,0.21936 -0.12915,0.23132 -0.11676,0.23978 -0.1062,0.25113 -0.0959,0.26227 -0.0839,0.26767 -0.0731,0.27447 -0.0637,0.2836 0.0369,0.0937 0.0955,0.0879 0.12427,0.10413 0.15656,0.11972 0.18487,0.12939 0.21002,0.13459 0.22846,0.13388 0.24511,0.13098 0.25519,0.12335 0.26093,0.1131 0.26245,0.10061 0.26624,0.0883 0.16003,0.0454 0.14972,0.0347 0.13897,0.024 0.12995,0.0141 0.12121,0.005 0.11194,-0.005 0.10456,-0.0136 0.26379,-0.0917 0.138,-0.0994 0.10932,-0.1287 0.0804,-0.1535 0.0535,-0.17816 0.0268,-0.19638 0.003,-0.21369 -0.0209,-0.22509 -0.0422,-0.23481 -0.061,-0.23697 -0.077,-0.23398 -0.0924,-0.23431 -0.0904,-0.19476 -0.0638,-0.12534 -0.0654,-0.12152 -0.17572,-0.30447 -0.19141,-0.30298 -0.1997,-0.28824 -0.18769,-0.24503 -0.18206,-0.21185 -0.0889,-0.0869 -0.14118,-0.0735 -0.19738,-0.0446 -0.12897,-0.005 z m -1.94342,-2.39654 0.21417,0.004 0.2655,0.0367 0.28668,0.0754 0.12104,0.0453 0.19012,0.0724 0.12964,0.0586 0.20526,0.10433 0.1662,0.0953 0.19037,0.1146 0.17908,0.12136 0.18902,0.13068 0.0893,0.065 0.0921,0.0748 0.1875,0.14667 0.14545,0.12137 0.21099,0.18658 0.15387,0.14533 0.18262,0.17379 0.1319,0.13602 0.17962,0.18427 0.14771,0.16162 0.34015,0.39377 0.1676,0.20617 0.31952,0.41324 0.10297,0.14496 0.29461,0.41864 0.0762,0.11468 0.2591,0.4079 0.0535,0.0936 0.22711,0.38541 0.13293,0.24365 0.10767,0.20929 0.0955,0.19595 0.0835,0.18402 0.14807,0.36847 0.12403,0.36682 0.0998,0.3696 0.0675,0.34946 0.0351,0.32187 0.004,0.32672 -0.0326,0.29272 -0.0707,0.26685 -0.1117,0.23678 -0.1557,0.20206 -0.203,0.1626 -0.25311,0.1181 -0.15985,0.0443 -0.16144,0.0263 -0.17542,0.0124 -0.18982,-0.002 -0.2041,-0.0173 -0.21893,-0.0331 -0.23352,-0.0494 -0.24786,-0.0659 -0.36872,-0.1192 -0.37475,-0.14002 -0.38031,-0.16079 -0.39484,-0.18594 -0.39929,-0.20771 -0.0872,-0.0517 -0.3197,-0.18078 -0.0988,-0.0598 -0.31653,-0.19958 -0.11529,-0.0798 -0.30835,-0.20932 -0.12952,-0.0934 -0.29663,-0.22409 -0.16003,-0.12958 -0.28858,-0.23553 -0.077,-0.0658 -0.0141,0.35117 0.008,0.6239 0.038,0.62369 0.0656,0.62054 0.0909,0.60929 0.11242,0.58856 0.1316,0.56296 0.14782,0.53219 0.16132,0.49594 0.0799,0.21891 0.0852,0.2171 0.20123,0.48959 0.21942,0.50751 0.23877,0.52368 0.2558,0.53052 0.27063,0.52878 0.28345,0.51934 0.29443,0.50281 0.30011,0.4755 0.29901,0.43563 0.29285,0.38916 0.2771,0.33225 0.28345,0.30246 0.10266,0.0995 0.12506,0.11306 0.12982,0.10877 0.13788,0.10663 0.15112,0.10705 0.16602,0.10703 0.18438,0.10699 0.23542,0.12204 0.13806,0.0797 c 0.16314,0.10312 0.34106,0.24607 0.51373,0.41874 0.46051,0.46057 0.70947,0.95834 0.55591,1.11184 -0.0576,0.0576 -0.16358,0.0585 -0.29779,0.013 l -0.30097,-0.11969 -0.31836,-0.14953 -0.32904,-0.17862 -0.0962,-0.0574 -0.24145,-0.15048 -0.107,-0.0734 -0.23816,-0.16361 -0.0873,-0.0632 -0.26111,-0.20071 -0.11554,-0.0952 -0.23181,-0.19259 -0.11316,-0.10154 -0.22851,-0.20547 -0.13605,-0.12988 -0.46149,-0.46775 -0.16931,-0.18231 -0.42047,-0.48425 -0.13421,-0.16492 -0.40314,-0.51681 -0.0902,-0.12555 -0.38336,-0.54111 -0.0653,-0.0983 -0.35992,-0.55801 -0.38538,-0.64505 -0.35205,-0.63394 -0.32318,-0.62052 -0.29242,-0.59384 -0.28052,-0.59619 -0.25409,-0.56195 -0.2348,-0.53406 -0.11408,-0.2756 -0.11084,-0.28775 -0.20025,-0.58075 -0.18372,-0.61838 -0.16113,-0.63904 -0.1369,-0.65603 -0.11103,-0.66892 -0.0827,-0.67404 -0.0529,-0.68185 -0.0195,-0.6764 0.0158,-0.66723 0.0433,-0.52478 -0.10279,-0.18589 c -0.0184,-0.0366 -0.0349,-0.0723 -0.0497,-0.10708 l -0.0413,-0.0987 -0.0388,-0.10098 -0.0394,-0.15997 -0.0168,-0.10959 c -0.006,-0.0538 -0.005,-0.10202 0.005,-0.14359 0.0326,-0.10952 0.0504,-0.14355 0.0771,-0.17013 l 0.10883,-0.069 c 0.0485,-0.0258 0.11188,-0.0334 0.18695,-0.0246 l 0.0992,0.0197 0.0558,-0.22214 0.0883,-0.29868 0.0989,-0.28418 0.11114,-0.27481 0.12396,-0.26477 0.13575,-0.2511 0.15209,-0.24478 0.17451,-0.24023 0.18408,-0.20502 0.19183,-0.16852 0.2002,-0.13345 0.20941,-0.0994 0.21997,-0.066 0.23236,-0.0328 0.033,-0.003 z"
               style="fill:#0000ff;fill-opacity:1;fill-rule:evenodd;stroke:#0000ff;stroke-width:0.75;stroke-linecap:butt;stroke-linejoin:miter;stroke-miterlimit:10;stroke-dasharray:none;stroke-opacity:1"
               id="path12052" /></g></g></g></g><g
       id="g12054"><g
         id="g12056"><g
           id="g12058"
           clip-path="url(#clipPath12062)"><g
             id="g12064"><path
               d="m 527.52508,469.03445 0.24915,5.8e-4 0.30328,0.017 0.29529,0.0344 0.31916,0.0542 0.43823,0.10291 0.45178,0.14029 0.44977,0.17624 0.11017,0.0503 0.34655,0.16705 0.14124,0.0788 0.32806,0.18634 0.0937,0.0566 0.0822,0.0571 0.31085,0.20743 0.14569,0.10412 0.35736,0.27991 0.17011,0.14084 0.3388,0.30569 0.1709,0.16266 0.32031,0.33191 0.15406,0.16812 0.29138,0.3468 0.13263,0.16666 0.25061,0.34415 0.11932,0.17526 0.18994,0.30331 0.10156,0.12531 0.0742,0.0914 0.28461,0.34363 0.0931,0.11822 0.31219,0.43775 0.0854,0.12707 0.25794,0.42819 0.0771,0.14008 0.19751,0.40298 0.0389,0.0938 0.085,0.20147 0.0912,0.25778 0.074,0.25303 0.0575,0.24902 0.0408,0.24469 0.0231,0.22946 0.008,0.24857 -0.01,0.23336 -0.027,0.23011 -0.0442,0.22628 -0.0624,0.22291 -0.0806,0.21926 -0.0995,0.21564 -0.11878,0.21189 -0.16595,0.24624 -0.0898,0.112 -0.11542,0.32434 -0.1626,0.35245 -0.19665,0.33615 -0.12018,0.16617 -0.0635,0.13855 -0.14142,0.24106 -0.1673,0.22375 -0.19421,0.20493 -0.22223,0.18448 -0.25122,0.16229 -0.12701,0.0634 -0.10498,0.16098 -0.20118,0.26584 -0.21954,0.24857 -0.23822,0.22964 -0.25696,0.20929 -0.27612,0.18723 -0.29529,0.16357 -0.31543,0.13828 -0.33539,0.11123 -0.35229,0.0814 -0.38165,0.0524 -0.39997,0.0186 -0.33825,-0.0148 -0.34095,-0.0486 -0.33301,-0.0815 -0.11828,-0.0385 -0.25867,-0.0928 -0.14032,-0.0615 -0.24695,-0.11752 -0.1867,-0.10428 -0.23468,-0.13922 -0.23334,-0.1579 -0.22369,-0.16159 -0.263,-0.21039 -0.10895,-0.0936 -0.10651,0.005 -0.22333,-0.0126 -0.2359,-0.0392 -0.25366,-0.0696 -0.11822,-0.0423 -0.15833,-0.0632 c -0.0587,-0.0247 -0.0936,-0.0408 -0.12945,-0.0587 l -0.17627,-0.0906 -0.18696,-0.1076 -0.15008,-0.0929 -0.21545,-0.14834 -0.1457,-0.10535 -0.22955,-0.18381 -0.14178,-0.1174 -0.21979,-0.20129 -0.13812,-0.12873 -0.0794,-0.0776 -0.19861,-0.2124 -0.0736,-0.0809 -0.16058,-0.10098 -0.18073,-0.12491 -0.25555,-0.18197 -0.20972,-0.16553 -0.24487,-0.19846 -0.0975,-0.0826 -0.12903,-0.12051 -0.23328,-0.215 -0.1156,-0.11185 -0.10779,-0.11523 -0.22094,-0.23141 -0.11963,-0.13218 -0.0817,-0.10043 -0.20678,-0.24731 -0.11408,-0.14438 -0.23926,-0.33161 -0.11309,-0.16696 -0.17103,-0.27469 -0.0971,-0.17065 -0.15698,-0.28937 -0.0598,-0.12308 -0.13544,-0.30041 -0.0391,-0.0975 -0.11572,-0.31198 -0.11945,-0.40088 -0.0875,-0.39508 -0.0576,-0.39318 -0.0289,-0.39261 -0.004,-0.27552 0.009,-0.25329 0.0215,-0.25501 0.0326,-0.24011 0.0967,-0.44525 0.13922,-0.41794 0.17731,-0.38275 0.21241,-0.34839 0.24438,-0.31479 0.27362,-0.28158 0.29999,-0.24906 0.32379,-0.21682 0.3443,-0.18491 0.36383,-0.15393 0.37945,-0.1225 0.38886,-0.0906 0.40875,-0.0615 0.41407,-0.0296 0.25366,-0.0332 0.28613,-0.0416 0.27783,-0.0272 0.28028,-0.0153 0.11273,-0.002 0.17517,-0.14828 0.17499,-0.12692 0.18493,-0.11503 0.19312,-0.10177 0.20776,-0.0909 0.21649,-0.0765 0.22766,-0.0625 0.22779,-0.0457 0.2619,-0.0349 0.26276,-0.0168 0.01,-8.6e-4 z"
               style="fill:#ff4d5c;fill-opacity:1;fill-rule:evenodd;stroke:#ff4d5c;stroke-width:0.75;stroke-linecap:butt;stroke-linejoin:miter;stroke-miterlimit:10;stroke-dasharray:none;stroke-opacity:1"
               id="path12066" /></g></g></g></g><g
       id="g12068"><g
         id="g12070"><g
           id="g12072"
           clip-path="url(#clipPath12076)"><g
             id="g12078"><path
               d="m 546.71625,495.15704 0.14221,0.0211 0.14581,0.0344 c 0.25995,0.0881 0.61096,0.32636 0.94525,0.66062 0.53492,0.53485 0.82386,1.11291 0.64569,1.29117 l -0.0979,0.0594 -0.0771,0.0639 -0.0944,0.0961 -0.18048,0.23837 -0.151,0.26447 -0.12866,0.29495 -0.10529,0.31671 -0.0856,0.3378 -0.0675,0.35336 -0.0521,0.36908 -0.0385,0.37686 -0.0273,0.37867 -0.0188,0.38305 -0.0125,0.38013 -0.009,0.37643 -0.008,0.36335 -0.009,0.34957 -0.0134,0.33234 -0.0202,0.31162 -0.009,0.14721 -0.002,0.23316 0.004,0.19418 0.009,0.21368 0.0116,0.1746 0.10639,0.0994 c 0.41253,0.41257 0.65924,0.85431 0.60913,1.06363 l -0.10132,0.1471 -0.096,0.0805 -0.0898,0.0563 -0.11243,0.0364 c -0.0529,0.0122 -0.0893,0.0134 -0.12976,0.009 -0.13238,-0.0197 -0.23102,-0.0535 -0.34003,-0.10803 -0.15887,-0.0805 -0.27917,-0.15634 -0.40344,-0.24994 l -0.15777,-0.12808 -0.08,-0.0669 c -0.0637,-0.0556 -0.12756,-0.11529 -0.1908,-0.17856 -0.0634,-0.0632 -0.12298,-0.12716 -0.17858,-0.19091 -0.10376,-0.1207 -0.15552,-0.1847 -0.20295,-0.24762 l -0.10901,-0.15729 -0.0649,-0.0978 c -0.0383,-0.0605 -0.0715,-0.11905 -0.0995,-0.17502 l -0.0948,-0.19854 -0.0546,-0.13282 -0.0674,-0.20163 -0.076,-0.29577 -0.0522,-0.27771 -0.0379,-0.26935 -0.0265,-0.25095 -0.0195,-0.25052 -0.0117,-0.21929 -0.007,-0.18851 1.3e-4,-0.1062 2.4e-4,-0.1044 0.005,-0.36277 0.003,-0.33288 1.8e-4,-0.35147 -1.8e-4,-0.37067 0.002,-0.38431 0.007,-0.39431 0.014,-0.40036 0.0231,-0.39215 0.0373,-0.41025 0.0516,-0.39405 0.0697,-0.38409 0.0893,-0.36502 0.11536,-0.35678 0.14086,-0.32965 0.16755,-0.29804 0.20623,-0.27768 0.0716,-0.0756 c 0.0725,-0.0543 0.0858,-0.0641 0.10077,-0.072 0.08,-0.0344 0.0964,-0.0403 0.11395,-0.0446 l 0.17542,-0.0139 -0.002,-0.002 z"
               style="fill:#ff4d5c;fill-opacity:1;fill-rule:evenodd;stroke:#ff4d5c;stroke-width:0.75;stroke-linecap:butt;stroke-linejoin:miter;stroke-miterlimit:10;stroke-dasharray:none;stroke-opacity:1"
               id="path12080" /></g></g></g></g><g
       id="g12082"><g
         id="g12084"><g
           id="g12086"
           clip-path="url(#clipPath12090)"><g
             id="g12092"><path
               d="m 552.17084,495.60834 c 0.26184,0.031 0.68536,0.29278 1.08484,0.69217 0.39935,0.39944 0.66113,0.82302 0.6922,1.08477 l -0.008,0.14121 -0.0368,0.11224 -0.0795,0.13364 -0.0695,0.1264 -0.13275,0.27555 -0.10907,0.27734 -0.0851,0.28332 -0.13464,0.51758 -0.11353,0.5325 -0.0939,0.54871 -0.0751,0.55887 -0.0579,0.57092 -0.0417,0.57572 -0.027,0.58276 -0.0133,0.5849 -10e-4,0.58414 0.01,0.58065 0.0199,0.582 0.0283,0.57428 0.0353,0.56247 0.0419,0.55924 0.0458,0.53796 0.0489,0.52015 -0.004,0.10214 c -0.1947,0.22906 -0.69812,-0.0226 -1.16376,-0.48835 -0.29126,-0.2911 -0.49859,-0.59686 -0.57537,-0.82321 l -0.0234,-0.0977 -0.10101,-0.56827 -0.0905,-0.58762 -0.0795,-0.59643 -0.0674,-0.59906 -0.0554,-0.60129 -0.0441,-0.62488 -0.0293,-0.6142 -0.015,-0.61404 v -0.61231 l 0.0159,-0.60852 0.0324,-0.60287 0.0495,-0.59583 0.0676,-0.5866 0.0864,-0.57584 0.10584,-0.56308 0.12603,-0.54889 0.093,-0.30939 0.11389,-0.30984 0.15052,-0.29837 0.0978,-0.14365 0.10961,-0.12491 c 0.11444,-0.10153 0.18366,-0.11682 0.27082,-0.1065 z"
               style="fill:#ff4d5c;fill-opacity:1;fill-rule:evenodd;stroke:#ff4d5c;stroke-width:0.75;stroke-linecap:butt;stroke-linejoin:miter;stroke-miterlimit:10;stroke-dasharray:none;stroke-opacity:1"
               id="path12094" /></g></g></g></g><g
       id="g12096"><g
         id="g12098"><g
           id="g12100"
           clip-path="url(#clipPath12104)"><g
             id="g12106"><path
               d="m 535.71051,498.54895 0.10651,0.0255 0.3891,0.12149 0.44628,0.1695 0.45307,0.1997 0.45672,0.22617 0.45746,0.24853 0.45502,0.26636 0.4502,0.28018 0.44226,0.2891 0.83911,0.57888 0.81262,0.58521 0.74719,0.54471 0.33643,0.24222 0.33764,0.23822 1.85718,1.30334 1.86945,1.31271 1.87744,1.32413 1.88092,1.33853 1.87897,1.35483 1.87268,1.3739 1.86163,1.39542 1.84583,1.41998 0.10077,0.0832 0.16906,0.13672 0.0822,0.0696 0.21795,0.1944 0.0775,0.0744 0.19012,0.17529 0.24341,0.23499 0.409,0.40051 0.37194,0.35431 0.13392,0.12067 0.12335,0.10504 0.10071,0.0796 0.14422,0.0971 -0.0349,-0.0954 c -0.0566,-0.16675 -0.0554,-0.29828 0.0161,-0.36975 0.19062,-0.19049 0.80829,0.11841 1.37964,0.69 0.28577,0.28571 0.50586,0.58295 0.63074,0.83264 l 0.0981,0.21741 0.0666,0.15826 0.0673,0.18738 0.0284,0.0999 0.0229,0.11773 0.006,0.12116 -0.0181,0.10296 -0.0676,0.11579 -0.12805,0.0696 -0.11285,0.0127 -0.10999,-0.005 -0.29126,-0.0679 -0.13061,-0.0461 -0.21192,-0.0809 -0.12054,-0.0544 -0.24713,-0.12848 -0.15717,-0.0911 -0.22107,-0.13831 -0.15295,-0.10541 -0.22254,-0.15716 -0.13531,-0.10486 -0.22351,-0.17468 -0.1117,-0.0933 -0.22332,-0.18964 -0.0862,-0.0785 -0.22216,-0.19843 -0.0843,-0.0814 -0.43482,-0.41247 -0.44165,-0.43341 -0.17102,-0.16602 -0.12341,-0.11627 -0.0802,-0.0717 -1.80567,-1.39795 -1.80603,-1.36053 -1.82696,-1.3486 -1.84845,-1.34311 -1.85712,-1.33411 -1.87311,-1.3363 -1.8728,-1.33273 -1.86853,-1.33249 -0.37671,-0.27433 -0.3728,-0.27456 -0.74121,-0.54831 -0.73267,-0.53382 -0.74109,-0.51956 -0.35663,-0.23925 -0.36572,-0.23588 -0.36273,-0.22311 -0.36255,-0.21115 -0.36597,-0.19937 -0.36792,-0.18534 -0.37213,-0.17062 -0.39734,-0.16266 c -0.28137,-0.13705 -0.51586,-0.31064 -0.74121,-0.53598 -0.45068,-0.45071 -0.69427,-0.93786 -0.54406,-1.0881 0.0375,-0.0376 0.0962,-0.0505 0.17004,-0.0418 z"
               style="fill:#ff4d5c;fill-opacity:1;fill-rule:evenodd;stroke:#ff4d5c;stroke-width:0.75;stroke-linecap:butt;stroke-linejoin:miter;stroke-miterlimit:10;stroke-dasharray:none;stroke-opacity:1"
               id="path12108" /></g></g></g></g><g
       id="g12110"><g
         id="g12112"><g
           id="g12114"
           clip-path="url(#clipPath12118)"><g
             id="g12120"><path
               d="m 544.08771,483.83331 0.13373,0.006 0.22729,0.0418 0.24042,0.0774 0.11029,0.0467 0.1593,0.0696 0.10114,0.0527 0.16534,0.0868 0.0954,0.0566 0.16961,0.10162 0.12177,0.0819 0.34381,0.23444 0.10272,0.0741 0.33747,0.25778 0.0864,0.07 0.31873,0.25379 0.15674,0.12738 0.11444,0.0922 0.15063,0.11523 0.88208,0.65314 0.92212,0.7092 0.9071,0.72144 0.89295,0.73049 1.7337,1.46439 1.70978,1.48151 1.66693,1.45266 1.64911,1.41694 0.81275,0.68222 0.82055,0.6737 0.81952,0.6546 0.85132,0.65818 0.45758,0.3558 0.5022,0.40408 0.95715,0.79743 0.92273,0.78079 0.888,0.73682 0.4165,0.3331 0.41828,0.32248 0.41162,0.30297 0.40857,0.28391 0.40918,0.26517 0.41302,0.24612 0.42133,0.22699 0.44049,0.21002 0.11609,0.01 0.12945,-0.005 c 0.29316,0.0296 0.70826,0.28607 1.09961,0.67737 0.19574,0.19571 0.35755,0.39731 0.47449,0.58203 l 0.0696,0.11523 0.0726,0.13193 0.0482,0.11337 0.0478,0.1171 c 0.0465,0.13721 0.0533,0.25034 0.0136,0.32507 -0.0624,0.0894 -0.0759,0.0993 -0.0909,0.10733 l -0.0943,0.0343 -0.14368,0.006 -0.16601,-0.0264 -0.1026,-0.0282 -0.14582,-0.0499 -0.14306,-0.0567 -0.0981,-0.0452 -0.53039,-0.25103 -0.58704,-0.31415 -0.0865,-0.0518 -0.49652,-0.29385 -0.0852,-0.0545 -0.49085,-0.3175 -0.56585,-0.39237 -0.5531,-0.40668 -0.5387,-0.41549 -0.52301,-0.41901 -0.98297,-0.81717 -0.93109,-0.79013 -0.87244,-0.72955 -0.40002,-0.32315 -0.42041,-0.32752 -0.87415,-0.67941 -0.90863,-0.72849 -0.89356,-0.73596 -0.87951,-0.74072 -1.7132,-1.47699 -1.68139,-1.47186 -1.6576,-1.44553 -1.64575,-1.40262 -0.81476,-0.6745 -0.82373,-0.6644 -0.82782,-0.64733 -0.85791,-0.64713 -0.14575,-0.11197 -0.18335,-0.14654 -0.16687,-0.13672 -0.14557,-0.12027 -0.27899,-0.22763 -0.24927,-0.19358 -0.23175,-0.16372 -0.14599,-0.0876 -0.13215,-0.0591 -0.1582,-0.0314 -0.13592,-0.0324 c -0.245,-0.0831 -0.57575,-0.30753 -0.89051,-0.62238 -0.50378,-0.50384 -0.77612,-1.04837 -0.60821,-1.21631 l 0.16046,-0.0456 -0.002,-0.003 z"
               style="fill:#ff4d5c;fill-opacity:1;fill-rule:evenodd;stroke:#ff4d5c;stroke-width:0.75;stroke-linecap:butt;stroke-linejoin:miter;stroke-miterlimit:10;stroke-dasharray:none;stroke-opacity:1"
               id="path12122" /></g></g></g></g><g
       id="g12124"><g
         id="g12126"><g
           id="g12128"
           clip-path="url(#clipPath12132)"><g
             id="g12134"><path
               d="m 554.9856,474.15036 c 0.27514,-0.01 0.74194,0.23849 1.21594,0.6521 l 0.23968,0.22406 0.14539,0.0621 0.401,0.14112 0.44214,0.12762 0.47186,0.11081 0.4975,0.0936 0.505,0.0749 0.53388,0.0607 0.53375,0.0439 0.534,0.0296 0.53772,0.017 0.52801,0.006 0.51227,-0.004 0.51563,-0.0115 0.50158,-0.0182 0.47962,-0.0227 0.17462,-0.0136 0.12732,-0.0114 0.1488,-0.0123 0.16461,-0.0114 0.17627,-0.009 0.35352,-0.004 0.21289,0.009 0.19488,0.0196 0.20203,0.0348 0.22217,0.0595 c 0.0804,0.0258 0.11285,0.0383 0.14642,0.0525 l 0.15082,0.0677 c 0.1383,0.0674 0.21161,0.10913 0.28723,0.15698 l 0.19489,0.13516 0.0881,0.0629 c 0.19556,0.14667 0.35779,0.28738 0.51666,0.44635 0.15894,0.15897 0.29968,0.32117 0.41797,0.47827 l 0.10767,0.14865 0.10351,0.15344 c 0.11756,0.18589 0.19727,0.35764 0.2312,0.49936 l 0.0233,0.11805 c 0.0104,0.0716 0.0115,0.0959 0.0107,0.11868 l -0.0199,0.15829 -0.0646,0.18949 -0.0935,0.16571 -0.11603,0.15765 -0.13494,0.15457 -0.15088,0.15259 -0.16284,0.15039 -0.17151,0.14755 -0.35236,0.28064 -0.34277,0.25565 -0.1579,0.11438 -0.14142,0.10223 -0.12317,0.0897 -0.10016,0.0751 -0.079,0.0624 -0.0931,0.0728 -0.21325,0.16425 -0.24402,0.18634 -0.26727,0.20312 -0.28302,0.21546 -0.29261,0.22351 -0.2937,0.22638 -0.2879,0.2243 -0.27515,0.21826 -0.25219,0.20481 0.11181,0.21295 0.08,0.068 0.33246,0.29987 0.15741,0.14978 0.25818,0.25634 0.1698,0.18091 0.24054,0.26413 0.17181,0.20651 0.21704,0.27069 0.1579,0.21921 0.1878,0.2749 0.12561,0.21036 0.15339,0.27667 0.0647,0.13837 0.0648,0.13971 0.0828,0.21994 0.0618,0.20947 0.0411,0.19751 0.0206,0.17725 0.004,0.18781 -0.0265,0.28457 -0.0495,0.25821 -0.0715,0.23703 -0.0914,0.21643 -0.1106,0.19684 -0.12835,0.17786 -0.14453,0.15951 -0.15925,0.14203 -0.17334,0.12515 -0.18548,0.10901 -0.1969,0.0935 -0.20703,0.0787 -0.21582,0.0645 -0.21997,0.0499 -0.23444,0.0385 -0.23602,0.0253 -0.24091,0.0133 -0.2326,0.002 -0.49774,-0.0279 -0.48517,-0.066 -0.50574,-0.10639 -0.48395,-0.13931 -0.47211,-0.17371 -0.2586,-0.11221 -0.23816,-0.11655 -0.2428,-0.1325 -0.10107,-0.0603 -0.15216,-0.0944 -0.15161,-0.10016 -0.17322,-0.12256 -0.17816,-0.13324 -0.19959,-0.15649 -0.21197,-0.17453 -0.0789,-0.0681 -0.13648,-0.11924 -0.16131,-0.15063 -0.2887,-0.2793 -0.1864,-0.19629 -0.13141,-0.1448 -0.14587,-0.17633 -0.11628,-0.14521 -0.14636,-0.20489 -0.0956,-0.14337 c -0.0595,-0.0934 -0.0925,-0.15149 -0.1203,-0.20697 l -0.0683,-0.13767 -0.0668,-0.15719 -0.0488,-0.16159 -0.0231,-0.10572 -0.008,-0.15326 0.0152,-0.12832 0.0478,-0.11277 0.0851,-0.12777 c 0.17285,-0.17356 0.71057,0.0952 1.208,0.59268 0.43524,0.4353 0.69544,0.90134 0.6427,1.12213 l -0.0552,0.0858 0.0926,0.0695 0.12524,0.0883 0.12586,0.0684 0.10968,0.0505 0.1217,0.0499 0.32709,0.11179 0.36017,0.0939 0.3905,0.0721 0.40601,0.0441 0.41632,0.0115 0.19946,-0.008 0.20221,-0.0175 0.198,-0.0276 0.19226,-0.0379 0.18939,-0.0494 0.18103,-0.0607 0.17249,-0.0723 0.16412,-0.0849 0.15179,-0.096 0.14234,-0.10996 0.12896,-0.12222 0.11561,-0.1351 0.10253,-0.14981 0.0872,-0.16376 0.0712,-0.17712 0.0544,-0.19123 0.037,-0.20568 0.0187,-0.21869 -0.01,-0.17359 -0.0345,-0.14221 -0.0865,-0.18094 -0.0817,-0.11062 -0.15631,-0.16166 -0.12359,-0.11102 -0.14856,-0.1224 -0.16608,-0.12613 -0.17597,-0.12329 -0.17712,-0.11435 -0.1676,-0.0987 -0.14923,-0.0788 -0.17487,-0.0801 c -0.25293,-0.12531 -0.47912,-0.28098 -0.70733,-0.48004 l -0.15729,-0.14698 -0.0735,-0.0691 c -0.46698,-0.46612 -0.76391,-0.94675 -0.79919,-1.24362 -0.002,-0.11871 2.4e-4,-0.1394 0.005,-0.15854 l 0.048,-0.10568 0.0632,-0.0812 0.0907,-0.10663 0.0756,-0.0732 0.0772,-0.0729 0.20251,-0.17874 0.23248,-0.19461 0.25861,-0.20929 0.27789,-0.21988 0.29029,-0.22574 0.29528,-0.22708 0.29322,-0.22375 0.28369,-0.21582 0.26709,-0.20298 0.24237,-0.18493 0.087,-0.0673 -0.10199,-2.8e-4 -0.53846,-0.007 -0.55719,-0.023 -0.56048,-0.0394 -0.56195,-0.058 -0.54425,-0.0761 -0.57471,-0.10364 -0.55444,-0.12698 -0.55139,-0.15647 -0.55085,-0.19107 -0.0971,-0.0381 -0.45935,-0.19617 -0.10846,-0.0505 -0.46601,-0.24163 -0.14239,-0.0806 -0.12085,-0.0714 -0.2284,-0.15299 -0.11419,-0.0775 -0.0974,-0.0709 c -0.1742,-0.13104 -0.35364,-0.28686 -0.52967,-0.46292 l -0.14404,-0.14721 -0.19574,-0.21225 c -0.15375,-0.17627 -0.28522,-0.35157 -0.38971,-0.51682 -0.11005,-0.1759 -0.17303,-0.2937 -0.21905,-0.40207 l -0.0402,-0.10507 c -0.043,-0.12329 -0.0582,-0.18603 -0.0649,-0.24283 -0.009,-0.092 -0.0102,-0.1188 -0.009,-0.14395 0.009,-0.13416 0.031,-0.19489 0.0738,-0.2377 0.0427,-0.0428 0.10357,-0.0645 0.17859,-0.0671 z"
               style="fill:#ff4d5c;fill-opacity:1;fill-rule:evenodd;stroke:#ff4d5c;stroke-width:0.75;stroke-linecap:butt;stroke-linejoin:miter;stroke-miterlimit:10;stroke-dasharray:none;stroke-opacity:1"
               id="path12136" /></g></g></g></g><g
       id="g12138"><g
         id="g12140"><g
           id="g12142"
           clip-path="url(#clipPath12146)"><g
             id="g12148"><path
               d="M 174.36839,62.874767 653.09021,530.85907"
               style="fill:#000000;fill-opacity:0;fill-rule:evenodd;stroke:#000000;stroke-width:2;stroke-linecap:butt;stroke-linejoin:miter;stroke-miterlimit:10;stroke-dasharray:8, 4;stroke-dashoffset:0;stroke-opacity:1"
               id="path12150" /></g></g></g></g><g
       id="g12152"><g
         id="g12154"><g
           id="g12156"
           clip-path="url(#clipPath12160)"><g
             id="g12162"><path
               d="m 551.99988,397.65378 1.10919,0.007 1.13611,0.0408 1.11712,0.0688 1.11408,0.0913 1.11133,0.10818 1.10827,0.11954 2.20832,0.25052 1.10394,0.1206 1.09631,0.10932 1.09955,0.0937 1.09558,0.0723 0.19507,-0.006 0.23554,-0.0435 0.2619,-0.0645 0.26184,-0.0584 0.15515,-0.0243 0.15405,-0.0114 0.16864,0.004 0.19745,0.0299 c 0.0714,0.0154 0.1001,0.0238 0.12982,0.0339 l 0.11676,0.0402 0.19159,0.0811 0.18744,0.10135 0.13379,0.0793 c 0.0717,0.0453 0.14551,0.0964 0.22052,0.1529 l 0.10431,0.0848 0.11298,0.0885 0.11389,0.0957 c 0.0757,0.0661 0.15179,0.13699 0.22711,0.21228 0.0751,0.0753 0.14612,0.15121 0.21216,0.22705 l 0.09,0.10443 0.18207,0.22403 c 0.11078,0.14709 0.20044,0.28946 0.2655,0.41943 0.14923,0.30005 0.17884,0.50196 0.0837,0.59711 -0.11895,0.11896 -0.40466,0.0431 -0.7417,-0.1701 l -0.0879,-0.0571 -0.12719,-0.0131 -0.11609,0.009 -0.26807,0.0358 -0.27814,0.044 -0.2846,0.0362 -0.15283,0.0106 -0.13837,6.1e-4 -1.16309,-0.0833 -1.12256,-0.10281 -1.11786,-0.11758 -1.1112,-0.12671 -2.21649,-0.26035 -1.10297,-0.12286 -1.09881,-0.11078 -1.10248,-0.0942 -1.09674,-0.0716 -1.09888,-0.0444 -1.09998,-0.0121 -0.54571,0.008 -0.55799,0.0179 -0.55242,0.0285 -0.55378,0.0399 -0.55468,0.0519 -0.5578,0.0649 -0.55549,0.0777 -0.55981,0.0921 -1.2019,0.22528 -1.19812,0.24439 -1.20734,0.2601 -1.20642,0.26831 -2.40869,0.53738 -1.20118,0.25733 -1.19891,0.24213 -0.88586,0.18411 -0.8595,0.20276 -0.8313,0.22107 -0.81268,0.24176 -0.79517,0.26315 -0.77569,0.28378 -0.76172,0.30622 -0.75012,0.32977 -0.73902,0.35327 -0.72979,0.37762 -0.72291,0.40271 -0.7193,0.42939 -0.71368,0.45437 -0.71307,0.48191 -0.7157,0.51117 -0.71594,0.53823 -0.49494,0.38843 -0.46966,0.38629 -0.45435,0.3928 -0.43378,0.39517 -0.41803,0.40228 -0.39801,0.40533 -0.38549,0.41633 -0.3711,0.42556 -0.35809,0.43634 -0.3457,0.44852 -0.33271,0.45908 -0.32458,0.47622 -0.31635,0.4935 -0.30768,0.50977 -0.29907,0.52563 -0.29516,0.54908 -0.76685,1.46823 -0.78479,1.47216 -0.78937,1.4755 -0.78125,1.47888 -0.76269,1.48807 -0.73102,1.49646 -0.34857,0.74893 -0.33716,0.75379 -0.3241,0.75894 -0.307,0.75796 -0.29193,0.77011 -0.26612,0.76117 -0.24371,0.76239 -0.21887,0.75592 -0.19593,0.75696 -0.17291,0.75766 -0.14911,0.75723 -0.12616,0.75803 -0.10339,0.76221 -0.0808,0.76532 -0.0583,0.77172 -0.036,0.77912 -0.0139,0.77926 0.008,0.79367 0.0299,0.80539 0.0514,0.81244 0.032,0.37748 0.0434,0.41265 0.0535,0.44559 0.0602,0.45703 0.0662,0.4715 0.0705,0.4787 0.0723,0.47406 0.0729,0.46689 0.0709,0.4483 0.0677,0.42551 0.0624,0.39462 0.0287,0.18408 0.0267,0.17334 0.0245,0.16284 0.0219,0.15067 0.0195,0.13827 0.0166,0.12497 0.0135,0.11124 0.009,0.10486 0.0104,0.14627 c -0.0111,0.0854 -0.0223,0.10663 -0.0388,0.12323 -0.133,0.13287 -0.56366,-0.0825 -0.96216,-0.48105 -0.29883,-0.29886 -0.49469,-0.61588 -0.51788,-0.81174 l -0.008,-0.11923 -0.0342,-0.1958 -0.0234,-0.121 -0.0285,-0.1395 -0.0328,-0.15332 -0.0372,-0.17029 -0.0404,-0.18112 -0.0435,-0.19247 -0.095,-0.41693 -0.10297,-0.45054 -0.10815,-0.47711 -0.11054,-0.49569 -0.10974,-0.50638 -0.1062,-0.50955 -0.0995,-0.50486 -0.0901,-0.49246 -0.0776,-0.47287 -0.0622,-0.44555 -0.0428,-0.40403 -0.0578,-0.84973 -0.0325,-0.82474 -0.009,-0.81326 0.0152,-0.80292 0.0391,-0.79382 0.0628,-0.78592 0.0863,-0.77927 0.10989,-0.77377 0.1333,-0.76959 0.15662,-0.76669 0.17981,-0.76432 0.20148,-0.759 0.2279,-0.77234 0.24915,-0.76785 0.27221,-0.77146 0.29505,-0.77621 0.31036,-0.76678 0.3252,-0.76307 0.33856,-0.7597 0.35077,-0.75647 0.73071,-1.50372 0.76142,-1.49475 0.77972,-1.48618 0.78619,-1.47928 0.78046,-1.47299 0.76416,-1.47046 0.28918,-0.55765 0.29841,-0.54055 0.30657,-0.52134 0.31549,-0.50332 0.32544,-0.48691 0.33606,-0.47189 0.34735,-0.45832 0.35975,-0.4462 0.37274,-0.43539 0.38672,-0.42624 0.40142,-0.41849 0.41614,-0.41137 0.43036,-0.40461 0.45374,-0.40707 0.46826,-0.40188 0.487,-0.40137 0.70904,-0.55738 0.70856,-0.52767 0.70996,-0.49872 0.71307,-0.47037 0.71784,-0.44278 0.72479,-0.41605 0.73285,-0.38977 0.73834,-0.36178 0.76129,-0.34284 0.76972,-0.31591 0.78534,-0.29279 0.80304,-0.27036 0.82202,-0.24862 0.84308,-0.22769 0.86389,-0.20694 0.88544,-0.18698 1.19439,-0.24634 1.19574,-0.26212 2.39826,-0.54938 1.20056,-0.27517 1.20154,-0.26773 1.20172,-0.25437 1.2016,-0.2352 0.57776,-0.10055 0.56762,-0.084 0.56653,-0.0701 0.56592,-0.0569 0.56494,-0.0443 0.56415,-0.0325 0.56085,-0.0212 0.55683,-0.0108 0.002,-3.3e-4 z"
               style="fill:#008000;fill-opacity:1;fill-rule:evenodd;stroke:#008000;stroke-width:0.75;stroke-linecap:butt;stroke-linejoin:miter;stroke-miterlimit:10;stroke-dasharray:none;stroke-opacity:1"
               id="path12164" /></g></g></g></g><g
       id="g12166"><g
         id="g12168"><g
           id="g12170"
           clip-path="url(#clipPath12174)"><g
             id="g12176"><path
               d="m 501.48148,433.05472 0.10772,0.0258 c 0.0766,0.0233 0.11829,0.041 0.16205,0.0629 l 0.10754,0.0612 c 0.12522,0.076 0.17423,0.10995 0.224,0.14743 l 0.21082,0.17071 c 0.11951,0.10798 0.17136,0.15635 0.22275,0.20768 l 0.0885,0.0894 0.14563,0.15402 0.2366,0.2663 0.22476,0.26544 0.19046,0.23157 0.0824,0.10117 0.0643,0.079 0.10294,0.12744 0.53756,0.66312 0.0642,0.0821 0.51151,0.68554 0.0582,0.0837 0.49662,0.70758 0.51501,0.77729 0.49103,0.77398 0.4733,0.7692 0.90994,1.50836 0.89285,1.45517 0.44022,0.68591 0.44555,0.66282 0.44544,0.62475 0.44626,0.58353 0.44232,0.5329 0.16519,0.18115 0.15592,-0.002 0.13439,-0.0213 0.1439,-0.0386 0.15039,-0.0556 0.15435,-0.0714 0.15879,-0.0869 0.15896,-0.0996 0.16028,-0.1117 0.32465,-0.2568 0.32104,-0.28778 0.31616,-0.30906 0.31177,-0.32302 0.29877,-0.32013 0.28723,-0.31046 0.27264,-0.28894 0.13111,-0.13415 0.12536,-0.12351 0.12329,-0.11545 0.11829,-0.10296 0.7439,-0.6427 0.71655,-0.66285 0.7002,-0.68215 0.69067,-0.69712 1.36609,-1.40548 0.68835,-0.69834 0.69831,-0.68625 0.17529,-0.14773 0.17572,-0.12271 0.1839,-0.10468 0.17828,-0.0894 c 0.3017,-0.079 0.8324,0.21732 1.32794,0.71293 0.56635,0.5664 0.8725,1.17855 0.6836,1.36737 l -0.16712,0.12594 -0.14032,0.1135 -0.13696,0.12741 -0.14905,0.14856 -0.70813,0.67968 -0.69287,0.68815 -1.37939,1.39239 -0.69825,0.69193 -0.71191,0.68075 -0.73126,0.66342 -0.75647,0.63983 -0.1123,0.0948 -0.11841,0.10764 -0.12403,0.1188 -0.12725,0.12638 -0.2754,0.28317 -0.29138,0.3046 -0.30719,0.31738 -0.3208,0.31924 -0.33234,0.31012 -0.34191,0.2905 -0.35022,0.26007 -0.18097,0.1174 -0.18042,0.10394 -0.18274,0.091 -0.18512,0.0766 -0.18829,0.0606 -0.18751,0.0419 -0.20471,0.0244 -0.20953,3.9e-4 -0.21509,-0.0259 -0.0991,-0.0235 -0.16357,-0.0416 -0.13544,-0.0515 -0.16129,-0.0652 -0.20581,-0.10815 -0.15911,-0.0912 c -0.12708,-0.079 -0.19217,-0.12405 -0.25828,-0.17386 l -0.18536,-0.14258 -0.17111,-0.14035 -0.15375,-0.1438 -0.15301,-0.1459 -0.19602,-0.20569 -0.56463,-0.62808 -0.10776,-0.12906 -0.53836,-0.65494 -0.082,-0.10431 -0.51129,-0.67743 -0.0601,-0.0822 -0.4921,-0.69836 -0.51761,-0.77652 -0.49154,-0.77277 -0.9242,-1.52121 -0.89114,-1.4964 -0.43766,-0.72302 -0.4381,-0.7041 -0.4372,-0.67542 -0.4393,-0.64462 -0.44125,-0.60782 -0.4852,-0.6203 -0.0651,-0.0853 -0.0954,-0.1314 -0.0754,-0.10828 -0.0697,-0.10184 -0.13015,-0.19052 -0.12192,-0.17462 c -0.0834,-0.0826 -0.13388,-0.12964 -0.18381,-0.17963 -0.39975,-0.39975 -0.61581,-0.83175 -0.48254,-0.96499 0.0333,-0.0334 0.0853,-0.0448 0.15079,-0.0371 z"
               style="fill:#008000;fill-opacity:1;fill-rule:evenodd;stroke:#008000;stroke-width:0.75;stroke-linecap:butt;stroke-linejoin:miter;stroke-miterlimit:10;stroke-dasharray:none;stroke-opacity:1"
               id="path12178" /></g></g></g></g><g
       id="g12180"><g
         id="g12182"><g
           id="g12184"
           clip-path="url(#clipPath12188)"><g
             id="g12190"><path
               d="m 558.14563,389.35153 c 0.0535,-0.002 0.11383,0.005 0.17975,0.0212 l 0.10284,0.03 c 0.0696,0.0229 0.1062,0.0369 0.14374,0.0528 l 0.16077,0.0741 c 0.23529,0.11771 0.50445,0.30277 0.77575,0.53949 l 0.21058,0.1969 0.0754,0.0724 c 0.21783,0.21466 0.3659,0.38534 0.49047,0.55069 l 0.14466,0.20862 0.1145,0.19143 0.2807,0.27597 0.41864,0.38486 0.45856,0.3981 0.49267,0.40778 0.51319,0.40872 1.12744,0.86389 1.19604,0.89911 1.19025,0.91178 0.0945,0.0768 0.58209,0.46017 0.63904,0.52777 0.0869,0.0739 0.55677,0.48324 0.10553,0.0981 0.53412,0.48788 0.12848,0.11594 0.11743,0.10504 0.15698,0.14276 0.0961,0.0931 0.26611,0.25247 0.20368,0.21152 0.25994,0.27713 0.0945,0.1051 0.1098,0.13504 0.11865,0.14298 0.0842,0.10788 0.0678,0.0976 0.10468,0.14411 0.0907,0.1354 0.0496,0.0874 0.087,0.14335 0.0704,0.13 0.10175,0.22702 0.0427,0.10965 0.0568,0.20993 0.0203,0.13858 0.005,0.12863 -0.0375,0.21308 -0.0941,0.17849 -0.11475,0.12885 -0.1195,0.10507 -0.13025,0.0955 -0.13983,0.0872 -0.29663,0.15057 -0.32056,0.13004 -0.32623,0.11084 -0.3191,0.0959 -0.29766,0.0843 -0.26007,0.0749 -0.55225,0.17475 -0.53436,0.17871 -0.53205,0.18939 -0.51294,0.19546 -0.50946,0.20868 -0.49475,0.21885 -0.48645,0.2333 -0.47503,0.24707 -0.46747,0.26487 -0.45545,0.28118 -0.44494,0.29978 -0.43726,0.32162 -0.42621,0.34235 -0.41748,0.36661 -0.40783,0.39129 -0.39979,0.4191 -0.14556,0.1456 -0.14551,0.16437 -0.15039,0.18487 -0.15845,0.20542 -0.32275,0.43481 -0.33039,0.44055 -0.16772,0.21219 -0.16742,0.19907 -0.16742,0.18204 -0.16736,0.1603 -0.1676,0.13404 -0.16931,0.10312 -0.17585,0.0668 -0.19628,0.0214 c -0.27729,-0.0273 -0.62781,-0.24386 -0.95813,-0.57425 -0.38544,-0.38543 -0.61585,-0.79818 -0.56903,-0.99365 l 0.0524,-0.13351 0.0742,-0.14566 0.0936,-0.16178 0.1109,-0.17798 0.12604,-0.19229 0.13867,-0.20398 0.14874,-0.21331 0.15631,-0.21964 0.32422,-0.44736 0.32306,-0.44006 0.15405,-0.20984 0.14539,-0.19867 0.13434,-0.18524 0.12152,-0.1702 0.39624,-0.45181 0.40039,-0.41782 0.4079,-0.39019 0.42358,-0.3718 0.43115,-0.34668 0.44178,-0.32538 0.45227,-0.30548 0.46289,-0.28677 0.47369,-0.26941 0.48254,-0.25226 0.49006,-0.23599 0.51324,-0.22821 0.51703,-0.21256 0.52802,-0.20154 0.53918,-0.1918 0.55029,-0.18362 0.26648,-0.0831 0.29376,-0.0874 0.3031,-0.094 0.30188,-0.10477 0.2884,-0.11898 0.26342,-0.13672 0.11286,-0.0722 0.1037,-0.0784 0.09,-0.0822 0.004,-0.12625 -0.10638,-0.0921 -0.13892,-0.12357 -0.48571,-0.4328 -0.46918,-0.39566 -0.49774,-0.40103 -0.52314,-0.4064 -1.14166,-0.8555 -1.1817,-0.87085 -1.2207,-0.91754 -0.65015,-0.50696 -0.64233,-0.52002 -0.0879,-0.0751 -0.56251,-0.47595 -0.10852,-0.0974 -0.54852,-0.49014 -0.12872,-0.1232 -0.53265,-0.50681 -0.0849,-0.0832 -0.57459,-0.5921 -0.16235,-0.17706 -0.0762,-0.0856 -0.0833,-0.0936 c -0.0815,-0.0934 -0.15698,-0.18656 -0.22601,-0.2782 -0.14673,-0.19556 -0.23584,-0.33008 -0.30811,-0.45725 l -0.0666,-0.12454 c -0.12829,-0.25455 -0.18139,-0.43332 -0.17675,-0.56918 0.004,-0.11493 0.028,-0.18067 0.0743,-0.22696 0.0308,-0.0309 0.0703,-0.0516 0.11724,-0.0628 l 0.11408,-0.0142 z"
               style="fill:#008000;fill-opacity:1;fill-rule:evenodd;stroke:#008000;stroke-width:0.75;stroke-linecap:butt;stroke-linejoin:miter;stroke-miterlimit:10;stroke-dasharray:none;stroke-opacity:1"
               id="path12192" /></g></g></g></g></g></svg>
