<?xml version="1.0" encoding="UTF-8" standalone="no"?>
<!-- Created with Inkscape (http://www.inkscape.org/) -->

<svg
   version="1.1"
   id="svg7962"
   xml:space="preserve"
   width="696.44543"
   height="734.06586"
   viewBox="0 0 696.4454 734.06585"
   sodipodi:docname="easy-angles.svg"
   inkscape:version="1.1.2 (0a00cf5339, 2022-02-04)"
   xmlns:inkscape="http://www.inkscape.org/namespaces/inkscape"
   xmlns:sodipodi="http://sodipodi.sourceforge.net/DTD/sodipodi-0.dtd"
   xmlns="http://www.w3.org/2000/svg"
   xmlns:svg="http://www.w3.org/2000/svg"><defs
     id="defs7966"><clipPath
       clipPathUnits="userSpaceOnUse"
       id="clipPath7978"><path
         d="M 221.066,108.573 H 627.154 V 506.416 H 221.066 Z"
         id="path7976" /></clipPath><clipPath
       clipPathUnits="userSpaceOnUse"
       id="clipPath7996"><path
         d="m 422.717,23.0376 h 1.674 V 563.639 h -1.674 z"
         id="path7994" /></clipPath><clipPath
       clipPathUnits="userSpaceOnUse"
       id="clipPath8010"><path
         d="m 164.287,305.131 h 515.926 v 2.852 H 164.287 Z"
         id="path8008" /></clipPath><clipPath
       clipPathUnits="userSpaceOnUse"
       id="clipPath8024"><path
         d="m 414.53,552.538 h 18.722 v 23.364 H 414.53 Z"
         id="path8022" /></clipPath><clipPath
       clipPathUnits="userSpaceOnUse"
       id="clipPath8038"><path
         d="m 669.238,293.315 h 17.578 v 27.186 h -17.578 z"
         id="path8036" /></clipPath><clipPath
       clipPathUnits="userSpaceOnUse"
       id="clipPath8052"><path
         d="m 617.294,296.412 h 18.255 v 19.953 h -18.255 z"
         id="path8050" /></clipPath><clipPath
       clipPathUnits="userSpaceOnUse"
       id="clipPath8066"><path
         d="M 639.817,326.262 H 653.2 v 18.981 h -13.383 z"
         id="path8064" /></clipPath><clipPath
       clipPathUnits="userSpaceOnUse"
       id="clipPath8080"><path
         d="m 414.896,492.887 h 20.496 v 21.339 h -20.496 z"
         id="path8078" /></clipPath><clipPath
       clipPathUnits="userSpaceOnUse"
       id="clipPath8094"><path
         d="m 435.811,525.442 h 3.049 V 540.3 h -3.049 z"
         id="path8092" /></clipPath><clipPath
       clipPathUnits="userSpaceOnUse"
       id="clipPath8108"><path
         d="m 417.063,502.627 h 7.051 v 9.217 h -7.051 z"
         id="path8106" /></clipPath><clipPath
       clipPathUnits="userSpaceOnUse"
       id="clipPath8122"><path
         d="m 425.51,495.186 h 5.653 v 5.808 h -5.653 z"
         id="path8120" /></clipPath><clipPath
       clipPathUnits="userSpaceOnUse"
       id="clipPath8136"><path
         d="m 442.465,527.345 h 2.428 v 14.477 h -2.428 z"
         id="path8134" /></clipPath><clipPath
       clipPathUnits="userSpaceOnUse"
       id="clipPath8150"><path
         d="m 429.044,534.948 h 25.081 v 14.125 h -25.081 z"
         id="path8148" /></clipPath><clipPath
       clipPathUnits="userSpaceOnUse"
       id="clipPath8164"><path
         d="m 432.814,517.284 h 22.972 v 14.924 h -22.972 z"
         id="path8162" /></clipPath><clipPath
       clipPathUnits="userSpaceOnUse"
       id="clipPath8178"><path
         d="m 445.104,507.004 h 14.599 v 16.971 h -14.599 z"
         id="path8176" /></clipPath><clipPath
       clipPathUnits="userSpaceOnUse"
       id="clipPath8192"><path
         d="M 215.686,296.537 H 231.1 v 19.928 h -15.414 z"
         id="path8190" /></clipPath><clipPath
       clipPathUnits="userSpaceOnUse"
       id="clipPath8206"><path
         d="m 200.751,313.748 h 3.452 v 14.956 h -3.452 z"
         id="path8204" /></clipPath><clipPath
       clipPathUnits="userSpaceOnUse"
       id="clipPath8220"><path
         d="m 207.416,316.16 h 4.202 v 13.222 h -4.202 z"
         id="path8218" /></clipPath><clipPath
       clipPathUnits="userSpaceOnUse"
       id="clipPath8234"><path
         d="m 197.016,324.809 h 18.023 v 8.712 h -18.023 z"
         id="path8232" /></clipPath><clipPath
       clipPathUnits="userSpaceOnUse"
       id="clipPath8248"><path
         d="m 414.234,99.8664 h 17.428 v 19.4176 h -17.428 z"
         id="path8246" /></clipPath><clipPath
       clipPathUnits="userSpaceOnUse"
       id="clipPath8262"><path
         d="m 435.622,86.295 h 11.041 v 17.537 h -11.041 z"
         id="path8260" /></clipPath><clipPath
       clipPathUnits="userSpaceOnUse"
       id="clipPath8276"><path
         d="m 449.514,85.0983 h 2.58 v 11.8565 h -2.58 z"
         id="path8274" /></clipPath><clipPath
       clipPathUnits="userSpaceOnUse"
       id="clipPath8290"><path
         d="m 455.245,85.3045 h 3.325 v 13.8703 h -3.325 z"
         id="path8288" /></clipPath><clipPath
       clipPathUnits="userSpaceOnUse"
       id="clipPath8304"><path
         d="m 447.291,91.8301 h 20.033 v 8.6879 h -20.033 z"
         id="path8302" /></clipPath><clipPath
       clipPathUnits="userSpaceOnUse"
       id="clipPath8318"><path
         d="m 440.35,73.9098 h 30.976 V 90.1016 H 440.35 Z"
         id="path8316" /></clipPath><clipPath
       clipPathUnits="userSpaceOnUse"
       id="clipPath8332"><path
         d="M 453.565,58.2956 H 475.65 V 78.5783 H 453.565 Z"
         id="path8330" /></clipPath></defs><sodipodi:namedview
     id="namedview7964"
     pagecolor="#505050"
     bordercolor="#eeeeee"
     borderopacity="1"
     inkscape:pageshadow="0"
     inkscape:pageopacity="0"
     inkscape:pagecheckerboard="0"
     showgrid="false"
     inkscape:zoom="0.989608"
     inkscape:cx="18.694271"
     inkscape:cy="368.83291"
     inkscape:window-width="1920"
     inkscape:window-height="1167"
     inkscape:window-x="0"
     inkscape:window-y="0"
     inkscape:window-maximized="1"
     inkscape:current-layer="g7968"
     fit-margin-top="0"
     fit-margin-left="0"
     fit-margin-right="0"
     fit-margin-bottom="0" /><g
     id="g7968"
     inkscape:groupmode="layer"
     inkscape:label="circle-PICS"
     transform="matrix(1.3333333,0,0,-1.3333333,-219.04933,764.78273)"><g
       id="g7970"><g
         id="g7972"><g
           id="g7974"
           clip-path="url(#clipPath7978)"><g
             id="g7980"><path
               d="m 625.65387,307.49432 c 0,108.93409 -90.33521,197.42173 -201.54385,197.42173 -111.20874,0 -201.54398,-88.48764 -201.54398,-197.42173 0,-108.93412 90.33524,-197.42169 201.54398,-197.42169 111.20864,0 201.54385,88.48757 201.54385,197.42169 z"
               style="fill:#000000;fill-opacity:0;fill-rule:evenodd;stroke:#000000;stroke-width:3;stroke-linecap:butt;stroke-linejoin:miter;stroke-miterlimit:10;stroke-dasharray:none;stroke-opacity:1"
               id="path7982" /></g><g
             id="g7984"><path
               d="m 624.15387,307.49432 c 0,108.10648 -89.66278,195.92173 -200.04385,195.92173 -110.38114,0 -200.04398,-87.81525 -200.04398,-195.92173 0,-108.10643 89.66284,-195.92169 200.04398,-195.92169 110.38107,0 200.04385,87.81526 200.04385,195.92169 z"
               style="fill:#000000;fill-opacity:0;fill-rule:evenodd;stroke:none"
               id="path7986" /></g></g></g></g><g
       id="g7988"><g
         id="g7990"><g
           id="g7992"
           clip-path="url(#clipPath7996)"><g
             id="g7998"><path
               d="M 423.89102,563.63849 423.2175,23.03826"
               style="fill:#000000;fill-opacity:0;fill-rule:evenodd;stroke:#000000;stroke-width:1.0001;stroke-linecap:butt;stroke-linejoin:miter;stroke-miterlimit:10;stroke-dasharray:none;stroke-opacity:1"
               id="path8000" /></g></g></g></g><g
       id="g8002"><g
         id="g8004"><g
           id="g8006"
           clip-path="url(#clipPath8010)"><g
             id="g8012"><path
               d="M 164.2886,307.48321 680.21136,305.6308"
               style="fill:#000000;fill-opacity:0;fill-rule:evenodd;stroke:#000000;stroke-width:1.0001;stroke-linecap:butt;stroke-linejoin:miter;stroke-miterlimit:10;stroke-dasharray:none;stroke-opacity:1"
               id="path8014" /></g></g></g></g><g
       id="g8016"
       transform="translate(0,-6.1e-5)"><g
         id="g8018"
         transform="matrix(1.00678,0,0,1.00678,-4.84948,-6.21949)"><g
           id="g8020"
           clip-path="url(#clipPath8024)"><g
             id="g8026"><path
               d="m 414.62509,552.53906 c 0.0653,0.008 0.1575,0.0538 0.25592,0.12799 l 0.14533,0.12714 0.27407,0.27124 0.30845,0.32764 0.29846,0.34021 0.28726,0.34948 0.5238,0.6988 0.50602,0.75433 0.46203,0.76501 0.42774,0.77845 0.39834,0.7893 0.37277,0.79682 0.35123,0.80175 0.33252,0.80286 0.31693,0.80054 0.30444,0.79437 0.29425,0.784 0.28635,0.76904 0.28222,0.75244 0.27905,0.72839 1.00602,2.68317 0.99341,2.70569 1.0061,2.70398 0.18854,0.49103 0.071,-0.35376 0.0476,-0.2229 0.0466,-0.21289 0.0442,-0.19928 0.0405,-0.18158 0.035,-0.15967 0.0284,-0.13349 0.11508,-0.50824 0.12699,-0.50652 0.13827,-0.50568 0.15103,-0.51068 0.33072,-1.00836 0.36917,-1.00275 0.40378,-0.99524 0.43433,-0.98645 0.46136,-0.97656 0.48435,-0.96533 0.50375,-0.95289 0.51923,-0.93927 0.531,-0.92389 0.53885,-0.9082 0.54297,-0.89056 0.54318,-0.87207 0.53986,-0.85175 0.53244,-0.83075 0.0606,-0.0872 0.0778,-0.0895 c 0.14184,-0.0392 0.40255,0.10627 0.64593,0.3498 0.2088,0.20868 0.34555,0.43023 0.36176,0.56683 l -0.0213,0.107 -0.0542,0.0895 -0.55802,0.88788 -0.535,0.85571 -0.53964,0.87262 -0.54135,0.89075 -0.53812,0.90582 -0.5307,0.91931 -0.52042,0.93482 -0.50561,0.94751 -0.48526,0.9563 -0.46378,0.96948 -0.43655,0.979 -0.4046,0.98481 -0.37012,0.99334 -0.33115,0.99927 -0.14966,0.50128 -0.13787,0.50013 -0.12674,0.50396 -0.11487,0.50543 -0.03,0.13294 -0.0363,0.15936 -0.041,0.18054 -0.0446,0.19806 -0.047,0.21094 -0.0474,0.22009 -0.0925,0.45185 -0.0421,0.2232 -0.0373,0.21216 -0.0318,0.20367 -0.0242,0.18396 -0.0157,0.16236 -0.006,0.13275 0.0166,0.15155 c 0.009,0.068 0.002,0.10278 -0.0208,0.125 -0.0889,0.089 -0.3776,-0.0552 -0.64456,-0.32251 -0.13361,-0.13336 -0.23649,-0.27228 -0.2949,-0.38898 l -0.54882,-1.39831 -0.51386,-1.35108 -1.00589,-2.7099 -0.99631,-2.70575 -1.00656,-2.67798 -0.27249,-0.72741 -0.28003,-0.7522 -0.28653,-0.76685 -0.29516,-0.77844 -0.30567,-0.78668 -0.31811,-0.79254 -0.32553,-0.7785 -0.34092,-0.77607 -0.35205,-0.75689 -0.36648,-0.73792 -0.37909,-0.70868 -0.39249,-0.67566 -0.40472,-0.63568 -0.42252,-0.59949 -0.20767,-0.27087 -0.21503,-0.26489 -0.22156,-0.25623 -0.24188,-0.26178 -0.0889,-0.1062 c -0.11124,-0.14776 -0.15937,-0.28137 -0.10956,-0.33118 0.0166,-0.0168 0.0425,-0.0223 0.0752,-0.0184 z"
               style="fill:#000000;fill-opacity:1;fill-rule:evenodd;stroke:#000000;stroke-width:0.744949;stroke-linecap:butt;stroke-linejoin:miter;stroke-miterlimit:10;stroke-dasharray:none;stroke-opacity:1"
               id="path8028" /></g></g></g></g><g
       id="g8030"
       transform="matrix(0.999997,0,0,1.000001,0,-3.1e-5)"><g
         id="g8032"
         transform="matrix(1.00678,0,0,1.00678,-4.84948,-6.21949)"><g
           id="g8034"
           clip-path="url(#clipPath8038)"><g
             id="g8040"><path
               d="m 686.04217,310.37231 z m -16.63916,-17.05535 c 0.14594,0.0173 0.38276,0.16345 0.6059,0.38665 0.18591,0.18582 0.31848,0.38117 0.36749,0.52582 l 0.0305,0.16824 0.0525,0.16739 0.0464,0.0915 0.0596,0.0989 0.0736,0.11008 0.28223,0.3916 0.29284,0.37277 0.30774,0.36286 0.32367,0.35577 0.34003,0.35107 0.35748,0.34867 0.37445,0.34717 0.37934,0.337 0.81951,0.68799 0.84955,0.67407 0.87171,0.66837 0.85528,0.64721 1.13922,0.83673 1.15631,0.81186 1.18793,0.81961 1.19574,0.83258 1.19776,0.86438 0.60492,0.45563 0.59765,0.46744 0.59064,0.483 0.58459,0.50208 0.57685,0.52435 0.5664,0.54797 0.12781,0.13465 0.11456,0.13104 c 0.0343,0.0393 0.0647,0.0766 0.0924,0.11343 l 0.0645,0.0929 0.0871,0.13287 c 0.0316,0.0498 0.0508,0.0838 0.0671,0.11618 l 0.0747,0.16294 0.0699,0.22149 0.0269,0.1847 -5.5e-4,0.1636 -0.0201,0.15 -0.0347,0.13839 -0.0475,0.13541 -0.0558,0.12604 -0.12732,0.22937 -0.13532,0.20248 -0.12286,0.16751 -0.0657,0.0861 -0.0834,0.0696 -0.13489,0.10303 -0.21503,0.16431 -0.1485,0.11361 -0.12316,0.0941 -0.11957,0.0908 -0.11304,0.0643 -0.13031,0.0697 -0.11456,0.0558 -0.13532,0.0627 -0.15344,0.0685 -0.16949,0.0733 -0.18213,0.0771 -0.39185,0.16146 -0.41034,0.16379 -0.40588,0.15695 -0.19446,0.0734 -0.18475,0.0684 -0.17237,0.0621 -0.15729,0.0551 -0.64666,0.22213 -0.68225,0.24247 -0.35388,0.13027 -0.34845,0.13123 -0.3324,0.12759 -0.30286,0.11878 -0.26312,0.10592 -0.23035,0.0956 -0.21142,0.0916 -0.20539,0.0927 -0.32513,0.1539 -0.33728,0.16782 -0.34338,0.17834 -0.34888,0.18778 -0.70771,0.39877 -0.7022,0.41648 -0.34156,0.2095 -0.33465,0.20953 -0.32288,0.20636 -0.31067,0.2027 -0.2948,0.19601 -0.27704,0.18833 -0.25677,0.17865 -0.23432,0.16733 -0.1737,0.12661 -0.14935,0.10996 -0.12677,0.0937 -0.10797,0.0812 -0.0901,0.0688 -0.14161,0.11173 -0.15234,0.12906 -0.0956,0.0861 -0.11438,0.10299 -0.15515,0.13648 -0.23151,0.20446 -0.21081,0.19562 -0.19452,0.18924 -0.18586,0.18772 -0.17718,0.18383 -0.16357,0.17316 -0.14002,0.14984 -0.10602,0.11453 -0.0829,0.0896 -0.0691,0.076 -0.10247,0.11759 -0.0653,0.0814 -0.0621,0.0951 -0.0482,0.0879 0.30127,0.0465 0.43982,-0.0563 c 0.13073,0.0116 0.2879,0.10874 0.43609,0.25696 0.19763,0.19754 0.30445,0.41123 0.23859,0.47708 l -0.45221,0.0992 -0.42133,0.0967 -0.21643,0.0406 -0.21954,0.0271 -0.22559,0.008 -0.2351,-0.0188 c -0.082,-0.006 -0.13184,-0.0228 -0.18708,-0.0504 -0.14251,-0.0717 -0.2774,-0.17139 -0.40728,-0.30105 -0.0644,-0.0648 -0.12189,-0.13093 -0.17011,-0.19501 l -0.10266,-0.14884 c -0.0607,-0.0948 -0.0905,-0.15438 -0.10821,-0.20675 l -0.0376,-0.17173 0.002,-0.19982 0.037,-0.17646 0.058,-0.16903 0.0734,-0.15973 0.0828,-0.1453 0.0677,-0.10248 0.0518,-0.0958 0.10949,-0.15314 0.0852,-0.0811 0.0893,-0.12317 0.082,-0.0917 0.0842,-0.074 0.16083,-0.19366 0.16351,-0.17478 0.17859,-0.18661 0.18634,-0.18912 0.19653,-0.19141 0.21168,-0.19696 0.23675,-0.20929 0.0843,-0.073 0.18365,-0.16455 0.0953,-0.0863 0.0997,-0.0865 0.0991,-0.0676 0.0971,-0.0875 0.10065,-0.0768 0.10943,-0.0806 0.12903,-0.094 0.15125,-0.10891 0.17657,-0.12564 0.23682,-0.16672 0.26007,-0.17828 0.28009,-0.18757 0.29803,-0.19497 0.31342,-0.20111 0.32696,-0.20526 0.33759,-0.20777 0.34595,-0.20868 0.70849,-0.41259 0.71515,-0.39585 0.35468,-0.18738 0.34881,-0.17767 0.34107,-0.16678 0.33136,-0.15399 0.20794,-0.0921 0.21527,-0.0915 0.23505,-0.0962 0.26593,-0.10553 0.30426,-0.11816 0.33435,-0.12723 0.3512,-0.13113 0.35474,-0.13001 0.68579,-0.2435 0.64575,-0.2228 0.15515,-0.0542 0.17102,-0.0625 0.18237,-0.0686 0.19171,-0.074 0.4007,-0.15964 0.40472,-0.16705 0.38556,-0.16413 0.17957,-0.0785 0.1654,-0.074 0.15137,-0.0691 0.13178,-0.0622 0.10784,-0.0532 0.10743,-0.0525 0.0856,-0.0515 0.0875,-0.0688 0.0898,-0.0589 0.0771,-0.0705 0.15558,-0.12124 0.14789,-0.11426 0.10351,-0.0686 0.0828,-0.0686 0.0786,-0.0735 0.16602,-0.23423 0.12591,-0.19333 0.11524,-0.21792 0.0471,-0.11331 0.038,-0.11643 0.0263,-0.1159 0.0134,-0.11442 -6.1e-4,-0.10629 -0.0268,-0.13784 -0.37232,-0.3592 -0.48266,-0.43734 -0.50171,-0.42978 -0.51996,-0.42398 -0.54022,-0.42161 -0.54438,-0.4093 -1.14605,-0.82568 -1.17945,-0.82016 -1.18676,-0.81802 -1.19367,-0.83771 -1.18841,-0.87168 -0.89399,-0.67611 -0.88861,-0.6803 -0.92151,-0.72955 -0.91058,-0.76297 -0.46857,-0.41455 -0.45074,-0.41776 -0.44428,-0.43289 -0.43597,-0.44974 -0.42407,-0.46606 -0.40875,-0.48218 -0.38904,-0.49637 -0.36518,-0.50885 -0.14025,-0.21048 -0.13202,-0.21957 -0.12036,-0.23551 -0.0961,-0.24835 -0.043,-0.17917 -0.0159,-0.13302 c 0.007,-0.0846 0.015,-0.10053 0.0274,-0.11286 0.0248,-0.0247 0.0635,-0.0333 0.1123,-0.0275 z"
               style="fill:#000000;fill-opacity:1;fill-rule:evenodd;stroke:#000000;stroke-width:0.74495;stroke-linecap:butt;stroke-linejoin:miter;stroke-miterlimit:10;stroke-dasharray:none;stroke-opacity:1"
               id="path8042" /></g></g></g></g><g
       id="g8044"><g
         id="g8046"><g
           id="g8048"
           clip-path="url(#clipPath8052)"><g
             id="g8054"><path
               d="m 622.99384,312.39008 0.10064,0.14831 0.0662,0.0842 0.12958,0.0705 -0.10791,-0.10519 -0.18847,-0.19781 z m -3.07392,-4.98737 0.0467,0.24625 0.0835,0.35409 0.0613,-0.23556 -0.19153,-0.36478 z m 8.91425,-0.496 z m 2.276,-6.55008 0.0652,0.0938 0.31684,0.48761 c 0.0436,0.0687 0.068,0.10941 0.0908,0.14938 l 0.29297,0.52185 0.0755,0.10962 0.11389,0.11414 0.1098,0.12063 -0.16705,-0.2983 -0.17627,-0.29538 -0.18671,-0.29139 -0.18848,-0.27237 -0.18347,-0.24337 -0.16302,-0.19626 z m -2.22492,-0.78025 0.10962,0.11771 0.0898,0.10047 -0.0975,-0.13001 -0.0758,-0.0725 -0.0261,-0.0157 z m -5.94708,-3.16427 0.10327,0.008 0.13001,0.0127 0.25085,0.0329 0.23364,0.0312 0.21332,0.0297 0.1944,0.0281 0.19873,0.0302 0.16339,0.0262 0.14826,0.0253 0.13421,0.0245 0.11823,-0.006 0.19085,-0.008 0.20258,-0.005 0.42334,10e-4 0.24725,0.0108 0.22016,0.0199 0.30694,0.0483 0.31073,0.0746 0.0983,0.0283 0.2464,0.0829 c 0.0362,0.0122 0.0716,0.0257 0.10785,0.0411 l 0.25848,0.0484 0.2749,0.0354 0.30072,0.0581 0.29096,0.0763 0.29498,0.0968 0.30029,0.11823 0.30603,0.14044 0.0981,0.0519 0.21466,0.11185 0.1095,0.065 0.20965,0.12262 0.18134,0.12091 0.40423,0.27799 0.11451,0.0827 0.14514,0.11795 0.38318,0.31259 0.0964,0.0816 0.15265,0.14288 0.362,0.34039 0.0894,0.0872 0.12207,0.13062 0.34039,0.36187 0.10327,0.11472 0.37897,0.45242 0.12426,0.15665 0.29218,0.38467 0.0869,0.12396 0.27228,0.38617 0.0652,0.0989 0.24615,0.37976 0.26984,0.44559 0.23297,0.40976 0.19989,0.37155 0.25916,0.53229 0.0439,0.0999 0.18732,0.45822 0.18347,0.53867 0.1452,0.53403 0.10657,0.52044 0.072,0.51221 0.0397,0.505 0.009,0.49879 -0.0196,0.48623 -0.0482,0.49252 -0.0749,0.47968 -0.10107,0.47253 -0.12372,0.45554 -0.15332,0.4661 -0.1745,0.44784 -0.19763,0.43808 -0.21949,0.42743 -0.24151,0.41608 -0.26233,0.4038 -0.2829,0.39069 -0.30231,0.37659 -0.32116,0.36169 -0.33966,0.3457 -0.35749,0.32892 -0.37439,0.31098 -0.39093,0.2923 -0.40698,0.27258 -0.42187,0.25183 -0.43592,0.22958 -0.45221,0.20804 -0.4646,0.18372 -0.4776,0.15893 -0.23352,0.0646 -0.22717,0.0512 -0.23731,0.0422 -0.23242,0.0297 -0.45672,0.0253 -0.46625,-0.0173 -0.45746,-0.059 -0.48633,-0.10565 -0.48181,-0.14832 -0.0972,-0.0389 -0.39441,-0.15539 -0.11493,-0.0524 -0.38848,-0.18997 -0.13715,-0.0772 -0.37848,-0.21543 -0.0956,-0.0577 -0.4314,-0.28629 -0.17169,-0.1217 -0.3587,-0.27012 -0.17969,-0.14575 -0.35187,-0.29309 -0.17364,-0.15725 -0.34223,-0.31437 -0.12909,-0.12435 -0.36334,-0.37018 -0.14184,-0.15363 -0.32007,-0.3533 -0.12012,-0.14258 -0.30884,-0.36911 -0.10071,-0.12781 -0.29443,-0.38308 -0.0804,-0.11313 -0.28339,-0.39551 -0.0654,-0.0988 -0.26861,-0.40509 -0.0527,-0.0863 -0.25409,-0.41315 -0.28149,-0.49459 -0.25757,-0.48902 -0.23474,-0.48388 -0.21258,-0.4769 -0.19123,-0.47019 -0.16949,-0.46176 -0.14356,-0.43841 -0.1311,-0.45533 -0.10401,-0.42712 -0.0826,-0.41727 -0.0597,-0.39959 -0.0403,-0.42545 -0.0231,-0.47421 -10e-4,-0.4726 0.0187,-0.47717 0.0403,-0.49982 0.062,-0.49701 0.084,-0.49762 0.10693,-0.49383 0.12836,-0.47592 0.15802,-0.4841 0.18085,-0.45786 0.2074,-0.43686 0.23101,-0.40579 0.26655,-0.38889 0.29248,-0.34875 0.32006,-0.30725 0.10205,-0.0869 0.11121,-0.0911 0.13111,-0.10284 0.15002,-0.11115 0.16839,-0.11645 0.18567,-0.11841 0.20288,-0.11737 0.21625,-0.11176 0.23712,-0.10773 0.24109,-0.0974 0.47534,-0.16696 0.2284,-0.0718 0.20862,-0.0616 0.18524,-0.0523 0.15552,-0.0428 0.12231,-0.0333 0.10327,-0.0272 0.0994,-0.02 c 0.0588,-0.0115 0.0816,-0.0144 0.10595,-0.0154 l 0.11475,-10e-4 0.002,-3e-4 z"
               style="fill:#ff4d5c;fill-opacity:1;fill-rule:evenodd;stroke:#ff4d5c;stroke-width:0.75;stroke-linecap:butt;stroke-linejoin:miter;stroke-miterlimit:10;stroke-dasharray:none;stroke-opacity:1"
               id="path8056" /></g></g></g></g><g
       id="g8058"><g
         id="g8060"><g
           id="g8062"
           clip-path="url(#clipPath8066)"><g
             id="g8068"><path
               d="m 644.44665,328.70142 -0.0945,0.0491 -0.16186,0.11603 -0.10767,0.0778 -0.24152,0.17453 -0.24139,0.17462 -0.10797,0.078 -0.0912,0.0658 -0.1325,0.0974 -0.11054,0.0894 -0.0934,0.0854 -0.0786,0.0819 -0.0643,0.0774 -0.13568,0.23053 -0.0589,0.16306 -0.048,0.18735 -0.0482,0.22427 -0.0583,0.26117 -0.087,0.40256 -0.075,0.41845 -0.064,0.43873 -0.0515,0.45126 -0.0397,0.46643 -0.027,0.47494 -0.0148,0.49759 -10e-4,0.49655 0.0126,0.50605 0.0258,0.50641 0.0406,0.51641 0.0546,0.51105 0.0696,0.51306 0.0842,0.50769 0.10004,0.50538 0.11383,0.49179 0.12878,0.48211 0.14356,0.46835 0.15625,0.44913 0.16937,0.42902 0.17834,0.4006 0.18567,0.37 0.18622,0.32953 0.18158,0.28427 0.1676,0.23239 0.14881,0.18222 0.1325,0.142 0.13489,0.12658 0.16425,0.13349 0.21612,0.15073 0.28046,0.1658 0.35858,0.17666 0.12311,0.0482 0.10474,0.0215 0.10052,-0.003 0.18427,-0.0973 0.0776,-0.0949 0.0661,-0.1222 0.0566,-0.14413 0.10035,-0.33069 0.0507,-0.16382 0.0608,-0.16015 0.0776,-0.14631 -0.12738,-0.18725 -0.15967,-0.1706 -0.11675,-0.12634 -0.23169,-0.27914 -0.10279,-0.13526 c -0.0637,-0.084 -0.11401,-0.15698 -0.15887,-0.22781 l -0.089,-0.14246 -0.11365,-0.19943 -0.0757,-0.15079 -0.0564,-0.13211 -0.0654,-0.16061 -0.0532,-0.19611 -0.021,-0.15631 -0.0115,-0.19497 c 0.0141,-0.11725 0.0287,-0.1449 0.0502,-0.16648 0.17273,-0.17257 0.73266,0.10736 1.25067,0.62546 0.25916,0.25906 0.45874,0.52853 0.5719,0.75494 l 0.22711,0.1106 0.28613,0.0216 0.30664,-0.0107 0.31348,-0.0458 0.31165,-0.0821 0.30145,-0.11881 0.2832,-0.15549 0.25897,-0.19198 0.22608,-0.22681 0.19293,-0.26727 0.21655,-0.36994 0.18457,-0.38061 0.15277,-0.38867 0.1211,-0.39313 0.0917,-0.39899 0.063,-0.40225 0.0361,-0.40646 0.01,-0.40613 -0.0146,-0.40653 -0.038,-0.40759 -0.0598,-0.40539 -0.0801,-0.40217 -0.0988,-0.3963 -0.11676,-0.39178 -0.13299,-0.38547 -0.14697,-0.37665 -0.16065,-0.3688 -0.17053,-0.35535 -0.1806,-0.34485 -0.18744,-0.32992 -0.1958,-0.31974 -0.19593,-0.29797 -0.20019,-0.28458 -0.20099,-0.26736 -0.19806,-0.24719 -0.19684,-0.23065 -0.19244,-0.2117 -0.18866,-0.19452 -0.18561,-0.17911 -0.18201,-0.16394 -0.18054,-0.15134 -0.16754,-0.1297 -0.15655,-0.10946 -0.15552,-0.0918 -0.22925,-0.107 -0.11719,-0.0436 -0.16034,-0.05 -0.18646,-0.0476 -0.20239,-0.0427 -0.4408,-0.0721 -0.20324,-0.0263 -0.19989,-0.0227 -0.17707,-0.018 -0.1543,-0.0145 -0.1137,-0.0104 -0.10682,-0.005 z m -1.9151,-2.43891 0.15052,0.008 0.12085,0.01 0.15606,0.014 0.18647,0.0182 0.21099,0.0231 0.2226,0.028 0.49896,0.0797 0.26813,0.0552 0.24884,0.0621 0.27997,0.0845 0.26666,0.097 0.1156,0.0492 0.37946,0.17517 0.1914,0.1044 0.34992,0.20237 0.20019,0.13211 0.33387,0.22894 0.11413,0.0825 0.34888,0.26947 0.12762,0.10547 0.30878,0.25516 0.12604,0.11151 0.30768,0.27426 0.1206,0.11526 0.30615,0.29148 0.11414,0.11615 0.30255,0.3085 0.10529,0.11536 0.29876,0.32385 0.0707,0.0794 0.31793,0.3715 0.0857,0.10714 0.2865,0.35275 0.0801,0.10254 0.27307,0.36255 0.0678,0.0971 0.2694,0.37747 0.0585,0.0889 0.25824,0.38803 0.29681,0.48004 0.27679,0.48261 0.25605,0.48394 0.23523,0.48542 0.21368,0.48553 0.19177,0.48541 0.16895,0.48456 0.14593,0.48331 0.12201,0.48123 0.0973,0.47858 0.0715,0.47522 0.0441,0.45633 0.0196,0.48117 -0.01,0.46096 -0.0393,0.45456 -0.0689,0.44748 -0.0998,0.43879 -0.13239,0.43185 -0.16485,0.42157 -0.19892,0.41116 -0.23388,0.39994 -0.23273,0.29833 -0.26984,0.26087 -0.30065,0.22177 -0.32734,0.18243 -0.34936,0.14237 -0.36762,0.10126 -0.38318,0.0587 -0.39129,0.0138 -0.41516,-0.0342 -0.4289,-0.0895 c -0.0427,-0.01 -0.0726,-0.0187 -0.10382,-0.0293 -0.007,0.11179 -0.0201,0.16983 -0.0574,0.207 l -0.0963,0.0389 -0.11901,0.0397 -0.0621,0.10276 -0.0444,0.11554 -0.0361,0.14602 -0.0303,0.17105 -0.059,0.37217 -0.0405,0.19302 -0.0561,0.18542 -0.0797,0.17133 -0.11254,0.14798 -0.10724,0.0793 -0.0925,0.0507 -0.10999,0.0359 -0.13031,0.0159 -0.14538,0.003 -0.10627,-0.0116 -0.18121,-0.0371 -0.20215,-0.0614 -0.1134,-0.0466 -0.44147,-0.18933 -0.13049,-0.0666 -0.42127,-0.225 -0.1394,-0.082 -0.43164,-0.28064 -0.17865,-0.12549 -0.41028,-0.31546 -0.18957,-0.15506 -0.40345,-0.3609 -0.17968,-0.17008 -0.38892,-0.39987 -0.16205,-0.17599 -0.35644,-0.41922 -0.14716,-0.18338 -0.29755,-0.39817 -0.1203,-0.17263 -0.28247,-0.4238 -0.0765,-0.12744 -0.263,-0.44373 -0.0542,-0.10095 -0.24042,-0.46015 -0.25781,-0.55511 -0.22651,-0.55215 -0.19915,-0.55127 -0.17462,-0.55143 -0.15241,-0.55218 -0.13031,-0.54752 -0.11334,-0.55771 -0.0937,-0.55197 -0.0762,-0.5502 -0.0584,-0.5379 -0.0444,-0.55252 -0.0281,-0.53763 -0.0133,-0.53092 8.5e-4,-0.52252 0.0144,-0.50998 0.0269,-0.49301 0.0408,-0.49978 0.0521,-0.47419 0.0637,-0.45849 0.0747,-0.44086 0.0853,-0.422 0.0535,-0.26284 0.0471,-0.2305 0.0532,-0.21161 0.0773,-0.21973 0.10779,-0.20752 0.0745,-0.11029 0.0813,-0.10144 0.0941,-0.10162 0.10748,-0.10276 0.12256,-0.10513 0.13837,-0.10846 0.0962,-0.0708 0.10742,-0.0786 0.24036,-0.17587 0.24035,-0.17585 0.10736,-0.0784 0.0918,-0.0673 0.0969,-0.0683 0.0898,-0.0509 0.13031,-0.0539 c 0.0796,-0.0129 0.10156,-0.0156 0.12475,-0.0165 l 0.0732,-3.1e-4 z"
               style="fill:#ff4d5c;fill-opacity:1;fill-rule:evenodd;stroke:#ff4d5c;stroke-width:0.75;stroke-linecap:butt;stroke-linejoin:miter;stroke-miterlimit:10;stroke-dasharray:none;stroke-opacity:1"
               id="path8070" /></g></g></g></g><g
       id="g8072"><g
         id="g8074"><g
           id="g8076"
           clip-path="url(#clipPath8080)"><g
             id="g8082"><path
               d="m 419.16019,507.31378 0.16287,0.41205 0.14578,0.31546 0.15347,0.29532 0.15955,0.27618 0.16382,0.2566 0.16571,0.23663 0.16696,0.21829 0.16953,0.20407 0.10858,0.12036 0.1629,0.0361 0.26535,0.0449 0.28088,0.0331 -0.0592,-0.0847 -0.22168,-0.20151 -0.22284,-0.20779 -0.0959,-0.0935 -0.099,-0.10592 -0.21813,-0.22678 -0.13453,-0.14822 -0.23867,-0.27878 -0.12772,-0.15912 -0.20474,-0.25909 -0.098,-0.13455 -0.19787,-0.27161 -0.0763,-0.11429 -0.11074,-0.16327 z m 7.77456,-11.54104 c 0.0441,0.11865 0.053,0.1491 0.06,0.17837 l 0.0367,0.138 0.12903,0.26859 0.0969,0.18118 0.25165,0.19476 0.27548,0.22257 0.31598,0.26867 -0.14413,-0.34802 -0.12854,-0.25397 -0.13693,-0.25393 -0.069,-0.12595 -0.0888,-0.16412 -0.084,-0.15335 -0.0496,-0.0873 -0.1652,-0.0232 -0.16262,-0.0229 -0.12845,-0.0183 -0.009,-0.001 z m -6.82998,-2.8863 0.32193,0.009 0.32217,0.0253 0.31329,0.0397 0.33173,0.057 0.31967,0.0698 0.31604,0.0832 0.37708,0.11768 0.38073,0.13886 0.38227,0.15942 0.10281,0.047 0.0646,-0.0857 0.10779,-0.19302 0.0446,-0.0962 c 0.0451,-0.0955 0.0572,-0.11194 0.0715,-0.12637 0.0432,-0.0432 0.10444,-0.0651 0.18012,-0.0677 l 0.15777,9.7e-4 0.14252,7.7e-4 0.1283,6.1e-4 0.11548,5.2e-4 0.10446,3.9e-4 0.11285,10e-4 0.14792,-3.7e-4 0.14426,1.9e-4 0.13424,1.8e-4 0.13556,2.7e-4 0.14853,5.2e-4 0.16284,0.007 0.15625,0.0192 0.11658,0.0237 0.22983,0.0604 c 0.10516,0.033 0.1398,0.0462 0.17526,0.0613 l 0.16394,0.0714 0.25052,0.0338 0.16141,0.0216 0.25812,0.0386 0.23996,0.0471 0.20678,0.052 0.0978,0.0283 0.13947,0.0455 0.0952,0.0356 0.12897,0.0516 c 0.0604,0.0254 0.0976,0.0427 0.1358,0.0617 l 0.10843,0.0543 c 0.0394,0.0197 0.0786,0.0406 0.11829,0.0632 l 0.17178,0.10336 0.26456,0.1803 0.1091,0.0792 c 0.0864,0.065 0.17419,0.13626 0.26223,0.21298 0.15296,0.13394 0.24125,0.21634 0.32865,0.30374 l 0.23666,0.18863 0.21015,0.17041 0.21127,0.1763 0.21188,0.19364 0.20179,0.18689 0.10824,0.10519 0.0928,0.0993 0.1923,0.19802 0.15329,0.16828 0.20636,0.24038 0.18826,0.23374 0.35171,0.47604 0.15476,0.22513 0.31848,0.52265 0.10629,0.19131 0.24967,0.49771 c 0.0207,0.0413 0.0382,0.0793 0.0539,0.11624 l 0.21979,0.53345 0.0353,0.0949 0.1752,0.52377 0.16641,0.61411 0.0341,0.15848 0.30811,0.49136 0.3648,0.61435 0.33841,0.6152 0.31153,0.62323 0.27661,0.62647 0.23373,0.62423 0.10495,0.32932 0.0844,0.3067 0.0684,0.29486 0.0577,0.30966 0.0404,0.29682 0.0244,0.29242 0.005,0.28152 -0.018,0.2544 -0.0414,0.22296 -0.0644,0.19244 -0.0845,0.1575 -0.11194,0.137 -0.13101,0.10293 -0.15225,0.0738 -0.16965,0.0444 -0.19296,0.0176 -0.20694,-0.01 -0.22162,-0.0354 -0.23264,-0.0588 -0.22497,-0.0743 0.014,0.11218 0.0308,0.38181 0.009,0.46908 -0.0235,0.44211 -0.0559,0.44132 -0.0849,0.4107 -0.11267,0.39057 -0.13937,0.37033 -0.16412,0.35003 -0.1879,0.32968 -0.20978,0.3093 -0.23068,0.289 -0.25009,0.26798 -0.26819,0.24725 -0.28507,0.22607 -0.30075,0.20466 -0.31509,0.18316 -0.32828,0.16089 -0.34024,0.13879 -0.35116,0.11622 -0.36118,0.0932 -0.36981,0.0699 -0.37778,0.046 -0.38501,0.0215 -0.39154,-0.003 -0.17816,-0.0128 -0.0791,0.15149 -0.15277,0.20062 -0.18582,0.16614 -0.21869,0.13013 -0.25235,0.0918 -0.28571,0.0516 -0.32022,0.009 -0.35468,-0.0375 -0.39065,-0.0872 -0.42462,-0.13983 -0.47321,-0.18811 -0.45328,-0.20062 -0.11959,-0.0574 -0.38224,-0.0489 -0.4664,-0.0976 -0.46457,-0.13727 -0.47216,-0.17902 -0.0973,-0.044 -0.38392,-0.1778 -0.11532,-0.0622 -0.37598,-0.20441 -0.12774,-0.0757 -0.36835,-0.23394 -0.15042,-0.10431 -0.35996,-0.25565 -0.15594,-0.12155 -0.35074,-0.2782 -0.13062,-0.10916 -0.36782,-0.32599 -0.15177,-0.14331 -0.33026,-0.31943 -0.13834,-0.1445 -0.31973,-0.33651 -0.11047,-0.12189 -0.30429,-0.35254 -0.11658,-0.14343 -0.29449,-0.36667 -0.0614,-0.0792 -0.30444,-0.41486 -0.0692,-0.10211 -0.26636,-0.38919 -0.0583,-0.0912 -0.24841,-0.3967 -0.27927,-0.48327 -0.2533,-0.47843 -0.22839,-0.47351 -0.20398,-0.46768 -0.18002,-0.46115 -0.15604,-0.45386 -0.13208,-0.44537 -0.10782,-0.4357 -0.0832,-0.42474 -0.0582,-0.41266 -0.0324,-0.39875 -0.0166,-0.43985 4.3e-4,-0.43676 0.0251,-0.43375 0.0609,-0.46445 0.0312,-0.15811 -0.002,-0.16708 0.0169,-0.62177 0.0391,-0.60437 0.0631,-0.61441 0.0839,-0.58706 0.10474,-0.56928 0.12488,-0.54767 0.14224,-0.51608 0.16669,-0.5083 0.18255,-0.4693 0.20066,-0.43704 0.0904,-0.17731 0.0818,-0.14984 0.0804,-0.13626 0.0743,-0.11579 0.0703,-0.10022 0.0671,-0.0867 0.0699,-0.0806 0.16571,-0.16244 0.10037,-0.0853 0.0828,-0.0745 0.0862,-0.0946 0.0789,-0.0883 0.0746,-0.0873 0.0869,-0.0675 0.09,-0.0474 0.1123,-0.0599 0.12204,-0.0549 0.14093,-0.062 0.17099,-0.0725 0.19843,-0.0788 0.22259,-0.0808 0.24405,-0.0786 0.26325,-0.0724 0.27334,-0.0605 0.30075,-0.0485 0.3071,-0.0285 0.30884,-0.009 0.003,-4.6e-4 z"
               style="fill:#008000;fill-opacity:1;fill-rule:evenodd;stroke:#008000;stroke-width:0.75;stroke-linecap:butt;stroke-linejoin:miter;stroke-miterlimit:10;stroke-dasharray:none;stroke-opacity:1"
               id="path8084" /></g></g></g></g><g
       id="g8086"><g
         id="g8088"><g
           id="g8090"
           clip-path="url(#clipPath8094)"><g
             id="g8096"><path
               d="m 436.2598,525.44531 c 0.26297,0.0312 0.68856,0.29407 1.08981,0.69525 0.40124,0.40125 0.66421,0.82697 0.69537,1.08997 l 0.002,0.77447 0.002,0.72754 0.0164,1.46167 0.034,1.47095 0.0538,1.45947 0.076,1.44403 0.0999,1.40766 0.0595,0.68548 0.0661,0.67127 0.0742,0.66791 0.0816,0.65118 0.0147,0.12286 0.035,0.18866 0.0497,0.24213 0.0541,0.25897 0.0493,0.24799 0.021,0.1159 0.0162,0.10315 0.01,0.12085 -9.1e-4,0.11518 -0.042,0.0914 c -0.13864,0.13879 -0.58841,-0.0861 -1.00448,-0.50208 -0.15604,-0.15625 -0.28525,-0.31689 -0.37836,-0.46417 l -0.0497,-0.0874 -0.0583,-0.10419 -0.0718,-0.16614 -0.0461,-0.11633 -0.0409,-0.10986 -0.0466,-0.13636 -0.087,-0.2702 -0.0932,-0.30347 -0.0812,-0.27307 -0.036,-0.12304 -0.0314,-0.10755 -0.0277,-0.10644 -0.0281,-0.10095 -0.15631,-0.70771 -0.142,-0.72906 -0.12857,-0.7378 -0.11465,-0.74481 -0.18628,-1.4975 -0.12662,-1.48999 -0.0683,-1.513 -0.003,-1.46759 0.0632,-1.41577 0.0581,-0.70172 0.0751,-0.67261 c 0.0132,-0.0648 0.0282,-0.0933 0.0504,-0.11547 0.0446,-0.0447 0.11429,-0.0599 0.20188,-0.0497 z"
               style="fill:#008000;fill-opacity:1;fill-rule:evenodd;stroke:#008000;stroke-width:0.75;stroke-linecap:butt;stroke-linejoin:miter;stroke-miterlimit:10;stroke-dasharray:none;stroke-opacity:1"
               id="path8098" /></g></g></g></g><g
       id="g8100"><g
         id="g8102"><g
           id="g8104"
           clip-path="url(#clipPath8108)"><g
             id="g8110"><path
               d="m 421.56986,505.14688 -0.0967,0.0634 -0.2389,0.18216 -0.16943,0.14816 c 0.13797,0.0861 0.21326,0.13827 0.28973,0.19589 l 0.0787,0.0638 0.0915,-0.41702 0.0451,-0.23648 z m -0.42167,-2.51974 0.10785,0.003 0.17374,0.0257 0.11703,0.0306 0.0971,0.034 0.17285,0.0733 0.17264,0.0942 0.11041,0.0659 c 0.066,0.0417 0.134,0.0888 0.2031,0.14087 l 0.10763,0.0874 0.0883,0.0689 0.10251,0.0861 c 0.0709,0.0618 0.142,0.12824 0.21234,0.19864 l 0.17129,0.18332 0.0843,0.0932 c 0.0883,0.10077 0.14612,0.17197 0.1988,0.24201 l 0.11499,0.16589 0.0786,0.11655 c 0.068,0.10684 0.10516,0.17212 0.13626,0.23453 l 0.0753,0.15405 0.06,0.14413 0.0588,0.16129 0.0731,0.27167 0.0461,0.26425 0.0272,0.31033 0.004,0.30231 -0.0149,0.28637 -0.0308,0.30082 -0.091,0.57132 -0.11356,0.57071 -0.0992,0.49832 0.17538,0.30508 0.048,0.0901 0.0955,0.21231 0.0364,0.094 0.0488,0.13794 0.0464,0.15879 0.0272,0.10916 0.0211,0.10098 0.017,0.11002 0.006,0.11606 -0.0238,0.13409 c -0.0333,0.0752 -0.0435,0.0892 -0.0558,0.10147 l -0.0928,0.0497 c -0.11304,0.0287 -0.2117,0.0163 -0.3266,-0.0227 l -0.14283,-0.0568 0.0247,0.1607 0.0265,0.16113 0.022,0.12329 0.0256,0.11149 c 0.0209,0.11721 0.0219,0.13977 0.0212,0.16094 -0.0171,0.10471 -0.0335,0.13599 -0.0579,0.16034 -0.0489,0.0489 -0.12513,0.0657 -0.22116,0.0544 l -0.0243,0.16299 -0.0352,0.29413 -0.052,0.24991 -0.0512,0.0995 c -0.19703,0.19686 -0.83561,-0.12244 -1.42643,-0.71323 l -0.0961,-0.10275 -0.0801,-0.0685 -0.13501,-0.11843 -0.18769,-0.17695 -0.0983,-0.10012 -0.16309,-0.17679 c -0.0581,0.0908 -0.0722,0.11746 -0.093,0.13824 -0.16678,0.16687 -0.70779,-0.10367 -1.20828,-0.60415 -0.37543,-0.37534 -0.62134,-0.7735 -0.65045,-1.01941 l -0.0197,-0.17935 -0.0966,-0.0411 c -0.25238,-0.12613 -0.55301,-0.3486 -0.8418,-0.63745 -0.54153,-0.54163 -0.84985,-1.1243 -0.7276,-1.35364 l 0.0981,-0.20001 0.0632,-0.14444 0.0727,-0.15076 -0.0153,-0.10248 -0.1337,-0.23501 -0.15964,-0.32068 -0.0414,-0.0929 -0.0808,-0.20025 -0.0548,-0.17124 c -0.026,-0.15564 -0.0105,-0.22592 0.0346,-0.27099 0.11267,-0.11264 0.38327,-0.0407 0.70258,0.1611 l 0.0904,0.0626 0.0358,-0.134 0.0913,-0.1648 c 0.11078,-0.12732 0.25046,-0.12857 0.4274,-0.0685 l 0.13523,-0.14514 0.0778,-0.11096 0.14123,-0.1817 0.17484,-0.19992 0.006,-0.10559 -0.004,-0.19281 c 0.011,-0.0863 0.0168,-0.10187 0.0244,-0.116 l 0.0627,-0.0855 0.10318,-0.0821 c 0.11033,-0.0378 0.19611,-0.0271 0.29606,0.007 l 0.17663,-0.0501 0.25192,-0.19296 0.25953,-0.17316 0.26275,-0.14581 0.13608,-0.0624 0.13309,-0.0509 0.13366,-0.0403 0.12723,-0.0267 0.14933,-0.0167 0.0435,-0.001 z"
               style="fill:#008000;fill-opacity:1;fill-rule:evenodd;stroke:#008000;stroke-width:0.75;stroke-linecap:butt;stroke-linejoin:miter;stroke-miterlimit:10;stroke-dasharray:none;stroke-opacity:1"
               id="path8112" /></g></g></g></g><g
       id="g8114"><g
         id="g8116"><g
           id="g8118"
           clip-path="url(#clipPath8122)"><g
             id="g8124"><path
               d="m 426.61359,495.18552 0.10751,0.01 c 0.0574,0.006 0.11304,0.0197 0.17288,0.04 l 0.24845,0.10431 0.11294,0.0643 0.0974,0.0553 0.15,0.0953 0.0957,0.0624 0.13629,0.0976 0.0933,0.0709 0.13486,0.10923 0.1019,0.0806 0.0981,0.0828 0.2728,0.24591 0.16922,0.16107 0.24414,0.2507 0.13513,0.14716 0.1308,0.14471 0.14948,0.17142 0.26834,0.31949 0.0787,0.10016 0.17349,0.21801 0.0836,0.11356 0.1405,0.19046 0.0834,0.12347 0.1113,0.16547 0.0627,0.0839 c 0.0939,0.10547 0.1525,0.17765 0.20596,0.24863 l 0.11768,0.16965 c 0.13287,0.20523 0.19681,0.33316 0.23486,0.44528 l 0.0363,0.15152 c 0.015,0.1207 -0.002,0.19608 -0.05,0.24432 l -1.5e-4,0.10169 0.0943,0.1791 0.0722,0.14042 0.0805,0.17141 0.0542,0.13501 c 0.0313,0.0927 0.0449,0.14926 0.051,0.20047 0.002,0.1579 -0.0175,0.21308 -0.0564,0.25193 -0.0647,0.0647 -0.17483,0.0765 -0.31454,0.043 -0.31131,-0.0745 -0.758,-0.36396 -1.18122,-0.7873 -0.0769,-0.0768 -0.14947,-0.1546 -0.21716,-0.23211 l -0.0756,-0.0932 -0.12027,-0.14798 c -0.0578,-0.0768 -0.11026,-0.15238 -0.15656,-0.2258 l -0.0641,-0.11274 -0.0567,-0.0995 -0.0571,-0.12009 -0.0466,-0.0955 -0.0526,-0.11935 -0.0639,-0.0862 c -0.0731,-0.055 -0.14746,-0.11526 -0.2219,-0.18023 l -0.31008,-0.28107 -0.1543,-0.14716 -0.12741,-0.1362 -0.22586,-0.24191 -0.0804,-0.0895 -0.13629,-0.16781 -0.19876,-0.25104 -0.19818,-0.12476 -0.11408,-0.0721 -0.0962,-0.0611 -0.0933,-0.0605 -0.11124,-0.0714 -0.14312,-0.10013 c -0.15735,-0.11697 -0.27301,-0.21738 -0.38651,-0.33084 -0.45398,-0.45395 -0.69934,-0.94461 -0.54803,-1.09592 0.0568,-0.0568 0.16122,-0.0578 0.29358,-0.0128 l 0.12051,0.0511 0.10681,0.0555 0.10394,0.0592 0.10984,0.064 0.0331,-0.10037 c 10e-4,-0.10452 0.004,-0.12558 0.009,-0.14502 0.0276,-0.0893 0.045,-0.1221 0.0706,-0.14774 0.0461,-0.0419 0.0789,-0.0591 0.11798,-0.0685 0.0502,-0.011 0.0712,-0.0136 0.0937,-0.0145 z"
               style="fill:#008000;fill-opacity:1;fill-rule:evenodd;stroke:#008000;stroke-width:0.75;stroke-linecap:butt;stroke-linejoin:miter;stroke-miterlimit:10;stroke-dasharray:none;stroke-opacity:1"
               id="path8126" /></g></g></g></g><g
       id="g8128"><g
         id="g8130"><g
           id="g8132"
           clip-path="url(#clipPath8136)"><g
             id="g8138"><path
               d="m 443.22378,527.34747 c 0.23716,0.0281 0.62101,0.2652 0.98301,0.62726 0.36181,0.36182 0.59897,0.74561 0.62704,0.98279 l -0.008,0.32886 -0.009,0.25409 -0.004,0.11407 -0.003,0.10388 -0.004,0.16602 0.0353,0.15326 0.009,0.10602 -0.007,0.10101 -0.0266,0.26239 -0.0213,0.21118 -0.0196,0.22089 -0.0173,0.23443 -0.0141,0.2497 -0.011,0.28204 -0.006,0.30377 -8.5e-4,0.33112 10e-4,0.50891 0.003,0.474 0.005,0.44781 0.006,0.41571 0.008,0.39063 0.009,0.36548 0.01,0.34173 0.0106,0.31903 0.0111,0.29895 0.0114,0.27967 0.0117,0.2619 0.0116,0.24561 0.0114,0.23175 0.011,0.21838 0.0103,0.20685 0.009,0.1972 0.0156,0.36981 0.01,0.34974 0.002,0.34039 -0.007,0.34222 -0.0182,0.35413 -0.0309,0.37732 -0.0208,0.20239 -0.0243,0.21051 -0.0283,0.2218 -0.0323,0.23529 -0.0524,0.24964 -0.083,0.24481 -0.10108,0.21716 -0.1105,0.18585 -0.1116,0.14875 -0.11142,0.11133 -0.11622,0.0657 -0.11349,0.0111 c -0.2269,-0.0258 -0.55249,-0.22675 -0.85934,-0.53375 -0.25583,-0.2558 -0.43812,-0.52448 -0.50556,-0.72333 l -0.0264,-0.11017 -0.002,-0.12128 0.0118,-0.0995 0.0338,-0.10608 0.0508,-0.23115 0.0552,-0.21508 0.0515,-0.23029 0.0399,-0.2345 0.022,-0.23529 0.009,-0.24286 0.006,-0.23291 0.003,-0.21838 4.6e-4,-0.20373 -0.006,-0.39069 -0.0152,-0.35992 -0.0226,-0.34864 -0.0282,-0.34417 -0.0322,-0.34833 -0.0363,-0.38336 -0.0189,-0.20386 -0.0189,-0.2135 -0.0191,-0.22498 -0.0204,-0.25738 -0.0185,-0.25501 -0.0179,-0.27063 -0.0171,-0.28851 -0.0162,-0.30731 -0.0149,-0.32776 -0.0136,-0.34918 -0.012,-0.37256 -0.0102,-0.39746 -0.008,-0.42365 -0.006,-0.45129 -0.004,-0.48047 -10e-4,-0.51135 0.006,-0.34156 0.0118,-0.30706 0.0169,-0.28077 0.0226,-0.2749 0.0255,-0.24304 0.0279,-0.22595 0.0292,-0.21204 0.0297,-0.20087 0.0192,-0.10662 0.034,-0.10016 0.0731,-0.0764 0.0434,-0.098 0.0341,-0.11292 0.0361,-0.10626 0.0623,-0.2091 0.0686,-0.22199 c 0.0774,-0.104 0.14014,-0.11774 0.21914,-0.1084 z"
               style="fill:#008000;fill-opacity:1;fill-rule:evenodd;stroke:#008000;stroke-width:0.75;stroke-linecap:butt;stroke-linejoin:miter;stroke-miterlimit:10;stroke-dasharray:none;stroke-opacity:1"
               id="path8140" /></g></g></g></g><g
       id="g8142"><g
         id="g8144"><g
           id="g8146"
           clip-path="url(#clipPath8150)"><g
             id="g8152"><path
               d="m 429.30948,534.94824 0.10586,0.009 0.10022,0.0238 0.10257,0.0255 0.74775,0.22785 0.71826,0.2351 0.70816,0.24591 0.72201,0.26447 1.41193,0.5564 1.41202,0.60522 1.40286,0.64704 1.39316,0.68389 1.38311,0.71637 1.37269,0.74439 1.36203,0.7677 1.35098,0.78656 1.34012,0.80066 1.3291,0.81036 2.62198,1.63013 2.5946,1.62585 0.21491,0.14118 0.14895,0.0987 0.12638,0.0815 0.0907,0.0558 c 0.32589,0.0405 0.80837,0.33862 1.26321,0.79352 0.6066,0.60644 0.93439,1.26227 0.73221,1.46429 -0.0902,0.0588 -0.10813,0.0654 -0.12751,0.0699 l -0.10449,0.0136 -0.12939,-0.0139 -0.11042,-0.0223 c -0.0496,-0.0113 -0.0786,-0.0198 -0.10867,-0.0301 l -0.10757,-0.0456 -0.13593,-0.0553 -0.16757,-0.0864 -0.15506,-0.0823 -0.10864,-0.0654 -0.16614,-0.10125 -0.22351,-0.14429 -0.14053,-0.0916 -0.12354,-0.077 -2.5874,-1.6225 -2.595,-1.61627 -1.28751,-0.78845 -1.29712,-0.78082 -1.3085,-0.77008 -1.30304,-0.74585 -1.31836,-0.73029 -1.32605,-0.70685 -1.33932,-0.68274 -1.35556,-0.65667 -1.36725,-0.62464 -1.3953,-0.59656 -0.69369,-0.28082 -0.71329,-0.27716 -0.71234,-0.26514 -0.72507,-0.25775 -0.14313,-0.0532 -0.0971,-0.0378 -0.10895,-0.0304 -0.18521,-0.0701 c -0.22492,-0.11053 -0.45377,-0.27996 -0.67377,-0.50006 -0.22,-0.21991 -0.38943,-0.44879 -0.48553,-0.64099 l -0.0554,-0.13055 c -0.0368,-0.10675 -0.0462,-0.18097 -0.0327,-0.23737 l 0.0507,-0.0884 0.0796,-0.0704 0.13233,-0.0432 -0.003,-0.004 z"
               style="fill:#008000;fill-opacity:1;fill-rule:evenodd;stroke:#008000;stroke-width:0.75;stroke-linecap:butt;stroke-linejoin:miter;stroke-miterlimit:10;stroke-dasharray:none;stroke-opacity:1"
               id="path8154" /></g></g></g></g><g
       id="g8156"><g
         id="g8158"><g
           id="g8160"
           clip-path="url(#clipPath8164)"><g
             id="g8166"><path
               d="m 433.00531,517.2865 c 0.033,0.004 0.0693,0.0127 0.10846,0.0259 l 0.12494,0.053 0.16504,0.09 0.13092,0.0869 0.12012,0.0832 0.10232,0.0724 0.13977,0.10302 0.14511,0.10889 0.27625,0.21045 0.16128,0.1239 0.13544,0.10455 0.12366,0.096 0.10739,0.0835 0.72003,0.47436 0.73093,0.46674 0.73629,0.46594 0.72022,0.45197 1.43719,0.89496 1.43137,0.88733 1.42706,0.88861 1.43338,0.90344 1.44599,0.92956 0.73773,0.48365 0.73639,0.49005 0.46801,0.32007 0.44016,0.30682 0.41525,0.29224 0.37464,0.26281 0.74182,0.5069 0.34933,0.22717 0.36051,0.22333 0.3779,0.22083 0.40063,0.21948 0.43329,0.22058 0.47958,0.22607 0.24958,0.1109 0.2622,0.11188 0.275,0.11255 0.28869,0.11334 0.30771,0.11591 0.31745,0.11462 0.32983,0.11432 0.3584,0.11908 0.1091,0.0383 0.10022,0.0336 0.15506,0.063 c 0.21591,0.10193 0.36371,0.19525 0.51645,0.31024 l 0.16006,0.13001 c 0.15277,0.12896 0.23059,0.20154 0.30756,0.2785 0.53921,0.53918 0.86166,1.1167 0.79614,1.39008 l -0.053,0.0993 c -0.0515,0.0516 -0.1318,0.0694 -0.23309,0.0574 l -0.0996,-0.0193 -0.13001,-0.0369 -0.15399,-0.048 -0.37427,-0.12342 -0.354,-0.12189 -0.3562,-0.1278 -0.33716,-0.12641 -0.32651,-0.12774 -0.31646,-0.12928 -0.30695,-0.13073 -0.29785,-0.1322 -0.55905,-0.26386 -0.54309,-0.27655 -0.51895,-0.28442 -0.49781,-0.29145 -0.47909,-0.29773 -0.46045,-0.30035 -0.85443,-0.58679 -0.43189,-0.30481 -0.40304,-0.28571 -0.39594,-0.27795 -0.41049,-0.28253 -0.70178,-0.47626 -0.69965,-0.46661 -1.40097,-0.91498 -1.40594,-0.9018 -1.43216,-0.91229 -1.44446,-0.92566 -1.49597,-0.97522 -0.76233,-0.5069 -0.76642,-0.51776 -0.77686,-0.53454 -0.78738,-0.5528 c -0.20126,-0.14929 -0.32785,-0.25921 -0.45184,-0.38324 l -0.10672,-0.11413 -0.17435,-0.16248 -0.11035,-0.10119 -0.12198,-0.11085 -0.25293,-0.22601 -0.10596,-0.0929 -0.0956,-0.0825 -0.14798,-0.11005 c -0.0995,-0.0749 -0.20227,-0.16394 -0.30283,-0.26459 -0.40252,-0.40246 -0.61999,-0.83752 -0.48593,-0.97186 0.0335,-0.0334 0.0859,-0.045 0.15189,-0.0372 z"
               style="fill:#008000;fill-opacity:1;fill-rule:evenodd;stroke:#008000;stroke-width:0.75;stroke-linecap:butt;stroke-linejoin:miter;stroke-miterlimit:10;stroke-dasharray:none;stroke-opacity:1"
               id="path8168" /></g></g></g></g><g
       id="g8170"><g
         id="g8172"><g
           id="g8174"
           clip-path="url(#clipPath8178)"><g
             id="g8180"><path
               d="m 448.08179,507.00424 0.22568,0.002 0.25945,0.007 0.24994,0.0115 0.26984,0.0173 0.29697,0.023 0.16357,0.0142 0.17117,0.0155 0.18274,0.0174 0.19516,0.0192 0.20822,0.0209 0.22318,0.023 0.2388,0.0249 0.2558,0.0271 0.2738,0.0292 0.29279,0.0315 0.31326,0.0337 0.33466,0.0361 0.35711,0.0388 0.38071,0.0411 0.4057,0.0436 0.42935,0.0462 0.43735,0.0404 0.47226,0.0366 0.47272,0.0315 0.45803,0.0268 0.21604,0.0114 0.20581,0.0103 0.19137,0.009 0.17365,0.008 0.15735,0.007 0.13403,0.005 0.10932,0.004 0.19165,0.007 0.12716,0.007 0.16559,0.0208 c 0.0847,0.018 0.11862,0.0278 0.15378,0.0398 l 0.0978,0.0374 c 0.36172,0.15311 0.78488,0.45328 1.18973,0.85806 0.67459,0.67466 1.05859,1.40039 0.90637,1.68619 -0.0733,0.0871 -0.11191,0.10745 -0.15772,0.11841 l -0.10464,0.0154 -0.15027,0.004 -0.12137,-1.5e-4 -0.19803,-0.003 -0.134,-0.002 -0.15549,-0.003 -0.17483,-0.004 -0.19135,-0.005 -0.2062,-0.006 -0.21808,-0.007 -0.46125,-0.0189 -0.48269,-0.0265 -0.4848,-0.0355 -0.46958,-0.0462 -0.44003,-0.0484 -0.40732,-0.0452 -0.38232,-0.0428 -0.35837,-0.0405 -0.33609,-0.0381 -0.31473,-0.036 -0.29434,-0.0338 -0.27466,-0.0317 -0.25778,-0.0297 -0.23929,-0.0276 -0.22418,-0.0258 -0.2089,-0.0237 -0.19528,-0.022 -0.18185,-0.0202 -0.1691,-0.0182 -0.15521,-0.0164 -0.29151,-0.0286 -0.25326,-0.022 -0.23731,-0.0168 -0.21881,-0.0115 -0.22159,-0.008 -0.2294,-0.004 -0.2283,1.8e-4 -0.27307,0.003 -0.10049,9.5e-4 -0.12186,1.5e-4 -0.12582,0.0442 -0.1185,0.0631 -0.095,0.0468 -0.10562,0.0484 -0.11956,0.0552 -0.12867,0.0626 -0.13699,0.0721 -0.1413,0.0822 -0.1391,0.0914 -0.13256,0.10092 -0.12232,0.11081 -0.10544,0.11798 -0.086,0.12564 -0.0619,0.12912 -0.0356,0.12781 -0.01,0.11697 0.0121,0.11063 0.16602,0.67136 0.20331,0.6444 0.22839,0.59455 0.24814,0.54767 0.26266,0.5047 0.27573,0.47076 0.2879,0.44525 0.3042,0.43341 0.32269,0.43012 0.3389,0.42962 0.79483,0.96235 0.82349,0.98651 0.45587,0.56183 0.4484,0.57482 0.0709,0.0877 0.10586,0.13025 0.14743,0.18585 0.065,0.084 0.10919,0.1438 0.0625,0.0884 0.126,0.17102 0.0718,0.10778 0.12451,0.1814 0.0772,0.12244 0.11472,0.18737 0.0761,0.13477 0.10263,0.19025 0.0679,0.1405 0.0847,0.18964 c 0.0264,0.0616 0.0398,0.0967 0.0513,0.13049 l 0.0608,0.18445 0.0286,0.0981 0.0417,0.21893 0.0106,0.11176 6.7e-4,0.16669 -0.0467,0.23632 -0.0555,0.12708 -0.0634,0.0929 -0.0782,0.0825 -0.0928,0.0723 -0.15802,0.13617 -0.14203,0.12268 -0.17547,0.13751 -0.20316,0.13617 -0.22555,0.11804 -0.13401,0.0532 -0.13342,0.0383 -0.14432,0.0252 -0.15579,0.008 -0.2644,-0.0276 -0.23749,-0.0435 -0.22037,-0.0531 -0.24069,-0.0696 -0.44214,-0.15997 -0.10516,-0.0467 -0.36115,-0.16047 -0.11429,-0.0592 -0.34881,-0.18347 -0.1246,-0.0732 -0.3302,-0.19904 -0.14011,-0.0942 -0.30399,-0.20538 -0.12747,-0.0916 -0.30426,-0.23426 -0.0842,-0.0699 -0.11133,-0.0904 -0.0993,-0.0838 -0.0848,-0.0737 -0.10678,-0.10101 -0.0929,-0.084 -0.0891,-0.0868 -0.098,-0.0971 -0.11139,-0.11859 -0.2113,-0.2218 -0.1066,-0.11774 -0.21969,-0.25531 -0.1221,-0.15033 -0.22422,-0.27997 -0.0939,-0.12701 -0.21747,-0.29822 -0.085,-0.12567 -0.20141,-0.30896 -0.0726,-0.1247 -0.18067,-0.31415 -0.0607,-0.12084 -0.14841,-0.31128 -0.0957,-0.23853 -0.0676,-0.20435 -0.0511,-0.19653 -0.0339,-0.18854 -0.0158,-0.17907 0.003,-0.16858 0.0226,-0.15747 0.0422,-0.14527 0.0626,-0.1333 0.0832,-0.12042 0.10443,-0.10742 0.12582,-0.0942 0.14804,-0.0807 0.17099,-0.0668 c 0.21576,-0.0534 0.625,0.17505 1.00721,0.55725 0.43679,0.43683 0.67285,0.90906 0.52725,1.05451 l -0.15332,0.0936 -0.0958,0.0779 -0.0744,0.0849 -0.055,0.0915 -0.0375,0.0969 -0.0215,0.10004 -0.007,0.10186 0.005,0.10425 0.0157,0.10413 0.025,0.10394 0.033,0.104 0.04,0.10328 0.0458,0.10217 0.17026,0.30536 0.13146,0.19775 0.14158,0.19153 0.14596,0.18066 0.1413,0.16205 0.12741,0.13642 0.10553,0.10534 0.26953,0.17829 0.21469,0.125 0.22754,0.1156 0.23608,0.0989 0.25599,0.0795 0.1072,0.0228 0.11966,0.0161 0.11603,0.005 0.12836,-0.008 0.15036,-0.0256 0.16891,-0.0655 0.18509,-0.10302 0.17429,-0.12024 0.15768,-0.12525 0.13208,-0.11584 0.10263,-0.0955 0.10236,-0.0858 0.0642,-0.0814 0.0336,-0.14166 -0.0176,-0.125 -0.0419,-0.0998 -0.067,-0.11182 -0.0989,-0.13763 -0.1239,-0.15522 -0.0726,-0.087 -0.0745,-0.0884 -0.1369,-0.17102 -0.38694,-0.48133 -0.37426,-0.4541 -0.82746,-0.98395 -0.86557,-1.05114 -0.0758,-0.0978 -0.4057,-0.51648 -0.0712,-0.0958 -0.3916,-0.52844 -0.0758,-0.11163 -0.37768,-0.54419 -0.0752,-0.11371 -0.3522,-0.55969 -0.0752,-0.12494 -0.32883,-0.58106 -0.0639,-0.1192 -0.30206,-0.60571 -0.0488,-0.10516 -0.27255,-0.63428 -0.27368,-0.75397 -0.22596,-0.77374 -0.17382,-0.78232 -0.0392,-0.2916 0.007,-0.27667 0.0494,-0.25354 0.0794,-0.2124 0.10025,-0.1846 0.12344,-0.17447 0.13391,-0.15271 0.14267,-0.13669 0.14725,-0.12191 0.14761,-0.10746 0.14377,-0.0934 0.13605,-0.0795 0.12262,-0.0649 0.10138,-0.049 0.1091,-0.0457 0.10553,-0.0529 0.10006,-0.0561 c 0.0459,-0.0423 0.0841,-0.0624 0.12949,-0.0731 l 0.10242,-0.0131 0.11712,-0.003 0.12949,-0.008 0.26733,-0.007 0.24768,-0.005 0.23368,-0.002 0.002,-2.2e-4 z"
               style="fill:#008000;fill-opacity:1;fill-rule:evenodd;stroke:#008000;stroke-width:0.75;stroke-linecap:butt;stroke-linejoin:miter;stroke-miterlimit:10;stroke-dasharray:none;stroke-opacity:1"
               id="path8182" /></g></g></g></g><g
       id="g8184"><g
         id="g8186"><g
           id="g8188"
           clip-path="url(#clipPath8192)"><g
             id="g8194"><path
               d="m 227.0676,301.80676 -0.17482,0.0675 0.20321,0.32824 0.0809,0.12186 0.23367,0.37631 0.0667,0.11936 0.2072,0.36676 0.0479,0.0909 0.14472,0.29367 -2.9e-4,-0.14972 -0.006,-0.1159 -0.11049,-0.27689 -0.16669,-0.36108 -0.16928,-0.31986 -0.16212,-0.2681 -0.14224,-0.20645 -0.0524,-0.0666 z m -5.29067,-5.26947 0.13349,9e-5 0.18267,0.002 0.19124,0.005 0.21321,0.009 0.23155,0.0159 0.24692,0.0241 0.24683,0.0324 0.28407,0.0482 0.44124,0.1033 0.47429,0.1492 0.10292,0.0384 0.38098,0.15482 0.12805,0.0583 0.373,0.18475 c 0.0451,0.0225 0.0846,0.0437 0.12482,0.0665 l 0.39743,0.2333 0.0885,0.054 0.10688,0.074 0.35014,0.23594 0.15039,0.10784 0.0776,0.0632 0.33777,0.26306 0.18646,0.15451 0.38695,0.34796 0.20097,0.19086 0.35706,0.36602 0.19659,0.2132 0.32033,0.37457 0.18109,0.22513 0.26584,0.35547 0.15155,0.21808 0.24916,0.3793 c 0.0507,0.0793 0.0751,0.11994 0.0977,0.15985 l 0.22991,0.40811 0.0567,0.10666 0.21508,0.44736 0.0476,0.10953 0.17532,0.43438 0.17486,0.52536 0.0999,0.36506 0.0745,0.32675 0.11933,0.69327 0.0718,0.70111 0.0209,0.38473 0.007,0.36432 -0.004,0.32486 0.0828,0.49911 0.0602,0.52909 0.0322,0.53872 0.002,0.52457 -0.0279,0.50446 -0.0599,0.51724 -0.0903,0.49319 -0.12027,0.47165 -0.15606,0.46854 -0.18723,0.44266 -0.22063,0.42071 -0.25543,0.39789 -0.29017,0.37125 -0.32605,0.34262 -0.36255,0.31164 -0.22341,0.16333 -0.17833,0.10193 -0.11621,0.32636 -0.11619,0.26526 -0.1324,0.25528 -0.14897,0.24407 -0.16587,0.23203 -0.1833,0.2189 -0.20102,0.20456 -0.21925,0.18946 -0.2378,0.17279 -0.25693,0.15539 -0.27081,0.13397 -0.30223,0.11985 -0.31708,0.0961 -0.33093,0.0724 -0.27211,0.0354 -0.2652,0.008 -0.28819,-0.0188 -0.28856,-0.0466 -0.29883,-0.0754 -0.29762,-0.10076 -0.0989,-0.0379 -0.23947,-0.10452 -0.12038,-0.0597 -0.21898,-0.11203 -0.13634,-0.0794 -0.21577,-0.12689 -0.14865,-0.0986 -0.2128,-0.14133 -0.14919,-0.10681 -0.20753,-0.15695 -0.10248,-0.0829 -0.19371,0.003 -0.26803,-0.0201 -0.27648,-0.0521 -0.11456,-0.0312 -0.19475,-0.0638 c -0.0424,-0.0143 -0.0766,-0.0274 -0.11191,-0.0424 l -0.25183,-0.11673 -0.26268,-0.14545 -0.18387,-0.11374 c -0.0981,-0.0619 -0.1811,-0.11941 -0.2655,-0.18298 l -0.0965,-0.0783 -0.1784,-0.13901 -0.15963,-0.13308 -0.247,-0.2309 -0.1724,-0.17075 c -0.0962,-0.0962 -0.17686,-0.18264 -0.25212,-0.26895 l -0.0887,-0.10913 -0.16866,-0.20108 -0.11688,-0.14822 -0.10941,-0.15775 -0.16183,-0.2337 -0.0596,-0.0908 -0.0719,-0.12631 -0.14946,-0.25827 -0.0619,-0.11588 -0.16232,-0.34366 -0.0448,-0.10586 -0.13172,-0.33353 -0.17499,-0.51978 -0.14962,-0.50772 -0.12548,-0.49517 -0.0701,-0.3284 -0.0603,-0.1229 -0.19262,-0.42871 -0.17282,-0.42416 -0.15473,-0.41971 -0.13499,-0.40558 -0.12521,-0.41919 -0.10675,-0.40353 -0.0895,-0.38596 -0.0792,-0.39703 -0.0621,-0.37656 -0.0474,-0.36435 -0.0311,-0.33334 -0.0194,-0.35245 -0.003,-0.31784 0.0141,-0.3194 0.029,-0.35553 0.0396,-0.35577 0.0478,-0.35404 0.0536,-0.34036 0.0568,-0.31457 0.0292,-0.14585 0.0289,-0.13302 0.0278,-0.11762 0.0265,-0.10159 0.0289,-0.11206 c 0.0212,-0.10785 0.0291,-0.12921 0.0394,-0.1485 l 0.18019,-0.20694 0.1205,-0.1301 0.094,-0.10485 0.077,-0.0945 0.067,-0.0959 0.0672,-0.11417 0.0754,-0.14835 0.0426,-0.091 0.14082,-0.37503 0.0389,-0.093 0.0313,-0.0954 0.0534,-0.0886 0.0691,-0.0812 0.073,-0.0704 0.10577,-0.12552 0.11986,-0.21094 0.048,-0.0946 0.0684,-0.12561 0.077,-0.0741 0.0925,-0.0769 0.10484,-0.10382 0.0941,-0.0855 0.21067,-0.1912 0.21055,-0.19098 0.0937,-0.0851 0.0803,-0.0732 0.0902,-0.0763 0.0703,-0.0719 c 0.091,-0.0708 0.1107,-0.078 0.13214,-0.0831 l 0.0996,-0.0132 0.13013,-0.0131 0.21366,-0.0222 0.14001,-0.0136 0.10989,-0.0106 0.0662,-0.10828 0.088,-0.0672 0.1025,-0.06 0.12704,-0.0856 0.11696,-0.0731 0.13655,-0.0853 0.14963,-0.0934 0.15614,-0.0974 0.15617,-0.0974 0.14948,-0.0933 0.1362,-0.0853 0.11671,-0.073 0.0932,-0.058 0.0868,-0.0514 0.11669,-0.052 0.0979,-0.0281 0.10525,-0.0173 0.1022,-0.005 0.14196,-0.005 0.002,-1.9e-4 z"
               style="fill:#0000ff;fill-opacity:1;fill-rule:evenodd;stroke:#0000ff;stroke-width:0.75;stroke-linecap:butt;stroke-linejoin:miter;stroke-miterlimit:10;stroke-dasharray:none;stroke-opacity:1"
               id="path8196" /></g></g></g></g><g
       id="g8198"><g
         id="g8200"><g
           id="g8202"
           clip-path="url(#clipPath8206)"><g
             id="g8208"><path
               d="m 201.31912,313.74841 c 0.30882,-0.0107 0.87175,0.32032 1.40003,0.84854 0.36572,0.36573 0.63691,0.74808 0.76559,1.05124 l 0.0376,0.098 c 0.0333,0.0978 0.0491,0.18264 0.0466,0.25402 l -0.0124,0.12406 -0.0916,0.71502 -0.0682,0.68308 -0.0523,0.69632 -0.0374,0.70087 -0.0247,0.72445 -0.0123,0.72473 -0.001,0.73191 0.008,0.73495 0.0406,1.47803 0.0644,1.46768 0.0718,1.32504 0.15118,0.14133 c 0.45844,0.45841 0.70621,0.95401 0.55339,1.10669 l -0.11893,0.10986 -0.0888,0.11682 -0.14339,0.28843 -0.0488,0.14267 -0.0382,0.13833 -0.0303,0.13248 -0.0224,0.11288 -0.0273,0.12049 c -0.0357,0.10525 -0.0456,0.11877 -0.0575,0.13064 l -0.0902,0.0483 c -0.1901,0.0455 -0.51844,-0.0962 -0.87529,-0.3649 l -0.17369,-0.14105 c -0.13765,-0.11697 -0.21152,-0.18597 -0.28466,-0.25909 -0.14625,-0.14633 -0.27572,-0.29547 -0.38459,-0.44016 l -0.17655,-0.25342 -0.10583,-0.18628 -0.0948,-0.20648 -0.0491,-0.12185 c -0.0351,-0.11368 -0.0434,-0.14225 -0.05,-0.16962 l -0.0229,-0.0987 -0.0289,-0.15383 -0.0221,-0.15448 -0.0166,-0.15375 -0.0142,-0.17728 -0.0731,-0.70401 -0.071,-0.7316 -0.12537,-1.48449 -0.0986,-1.52793 -0.0598,-1.51205 -0.0135,-0.75592 -0.001,-0.74784 0.0124,-0.74084 0.0267,-0.72742 0.042,-0.71478 0.0598,-0.72144 0.0767,-0.69525 0.0954,-0.6791 0.018,-0.10404 c 0.0209,-0.093 0.0391,-0.12778 0.0662,-0.15484 l 0.1047,-0.0559 c 0.0206,-0.005 0.0429,-0.008 0.0666,-0.009 z"
               style="fill:#0000ff;fill-opacity:1;fill-rule:evenodd;stroke:#0000ff;stroke-width:0.75;stroke-linecap:butt;stroke-linejoin:miter;stroke-miterlimit:10;stroke-dasharray:none;stroke-opacity:1"
               id="path8210" /></g></g></g></g><g
       id="g8212"><g
         id="g8214"><g
           id="g8216"
           clip-path="url(#clipPath8220)"><g
             id="g8222"><path
               d="m 207.66093,316.16025 c 0.21935,-0.008 0.56371,0.15283 0.93476,0.43219 0.0825,0.062 0.1661,0.12997 0.25,0.20309 0.0842,0.0734 0.16845,0.15207 0.25184,0.23548 0.45868,0.45864 0.77243,0.94277 0.85144,1.27282 l 0.0182,0.11017 0.0194,0.69449 0.0307,0.59161 0.0467,0.59381 0.0608,0.59055 0.075,0.604 0.0853,0.59659 0.0959,0.60178 0.1033,0.59726 0.22687,1.20419 0.24083,1.20093 0.24191,1.19461 0.22246,1.14667 0.0297,0.10315 0.0369,0.13076 0.0683,0.28247 0.0494,0.27478 0.0137,0.12702 0.004,0.13003 -0.0123,0.10892 -0.0386,0.10077 -0.0819,0.0673 c -0.11621,0.0407 -0.19867,0.0303 -0.29462,-0.002 l -0.18361,-0.076 c -0.10501,-0.0525 -0.2201,-0.12503 -0.33892,-0.21453 l -0.16706,-0.13581 c -0.10954,-0.0943 -0.16903,-0.14984 -0.22795,-0.20868 l -0.11572,-0.12387 -0.10623,-0.1152 -0.0661,-0.0776 -0.0734,-0.0883 -0.0715,-0.0877 -0.0755,-0.0938 c -0.27674,-0.36487 -0.3917,-0.6315 -0.35616,-0.78015 l -0.0366,-0.12894 -0.0385,-0.094 -0.12281,-0.29449 -0.0363,-0.10474 -0.0411,-0.1336 -0.0402,-0.18683 -0.29309,-1.20648 -0.29614,-1.2324 -0.28279,-1.23654 -0.26244,-1.26117 -0.11792,-0.63198 -0.10606,-0.62714 -0.0935,-0.62665 -0.0794,-0.62546 -0.0625,-0.61129 -0.0477,-0.63407 -0.0276,-0.6189 -0.007,-0.61529 0.0123,-0.14465 c 0.0329,-0.0816 0.0445,-0.0975 0.0583,-0.11136 0.0417,-0.0418 0.10096,-0.0629 0.17408,-0.0654 z"
               style="fill:#0000ff;fill-opacity:1;fill-rule:evenodd;stroke:#0000ff;stroke-width:0.75;stroke-linecap:butt;stroke-linejoin:miter;stroke-miterlimit:10;stroke-dasharray:none;stroke-opacity:1"
               id="path8224" /></g></g></g></g><g
       id="g8226"><g
         id="g8228"><g
           id="g8230"
           clip-path="url(#clipPath8234)"><g
             id="g8236"><path
               d="m 198.22378,324.80881 c 0.22579,0.0268 0.59128,0.25265 0.93583,0.5972 0.22973,0.2297 0.40663,0.46869 0.50698,0.66943 l 0.054,0.12738 0.80345,0.29022 0.79004,0.27307 0.82205,0.27475 0.84086,0.27384 0.84986,0.27179 0.86744,0.27435 1.74107,0.54956 0.86891,0.27741 0.86102,0.27987 0.84928,0.28281 0.82473,0.2836 0.82313,0.29446 0.79168,0.29749 0.10411,0.0382 0.10582,0.0354 0.11531,0.0404 0.12322,0.0454 0.26625,0.0991 0.23443,0.0949 0.13707,0.059 0.11023,0.0515 0.096,0.0454 c 0.10557,0.0528 0.14958,0.0764 0.19449,0.10187 0.1474,0.0843 0.23977,0.14273 0.3343,0.20835 l 0.10666,0.0771 c 0.26273,0.1962 0.45918,0.36661 0.65173,0.55912 0.77014,0.77011 1.18634,1.6026 0.92963,1.85931 l -0.11502,0.0627 c -0.0745,0.0192 -0.13181,0.021 -0.19566,0.0134 l -0.1442,-0.0259 -0.11687,-0.0328 -0.13368,-0.0444 -0.14423,-0.0536 -0.24137,-0.098 -0.2388,-0.1029 -0.11345,-0.0504 -0.0947,-0.0427 -0.0915,-0.043 -0.10189,-0.0462 -0.0991,-0.0499 -0.83475,-0.35773 -0.8013,-0.32642 -0.83231,-0.32537 -0.85959,-0.32505 -0.87001,-0.32068 -0.89514,-0.32428 -1.79742,-0.64334 -0.89894,-0.32266 -0.89415,-0.3248 -0.88439,-0.32754 -0.87042,-0.33112 -0.85216,-0.33584 -0.83027,-0.34183 -0.80451,-0.34888 -0.7758,-0.35794 -0.28929,-0.14148 -0.28328,-0.15253 -0.105,-0.0624 -0.17468,-0.10666 -0.17308,-0.11844 -0.13518,-0.0965 c -0.10704,-0.0799 -0.17265,-0.13306 -0.23837,-0.19037 l -0.16122,-0.14602 -0.12844,-0.12271 c -0.1282,-0.12827 -0.24173,-0.25904 -0.33717,-0.38587 l -0.1789,-0.25241 c -0.0751,-0.11868 -0.13093,-0.23029 -0.16409,-0.32813 l -0.0295,-0.10348 c -0.0212,-0.12262 -0.0201,-0.15891 -0.0125,-0.19012 l 0.0578,-0.11881 0.0912,-0.0607 0.17926,-0.072 0.12717,-0.0308 0.13659,-0.0278 0.16472,-0.0308 0.17104,-0.031 0.18423,-0.0343 0.0906,-0.002 z"
               style="fill:#0000ff;fill-opacity:1;fill-rule:evenodd;stroke:#0000ff;stroke-width:0.75;stroke-linecap:butt;stroke-linejoin:miter;stroke-miterlimit:10;stroke-dasharray:none;stroke-opacity:1"
               id="path8238" /></g></g></g></g><g
       id="g8240"><g
         id="g8242"><g
           id="g8244"
           clip-path="url(#clipPath8248)"><g
             id="g8250"><path
               d="m 428.08176,104.32436 0.0912,0.0976 0.24634,0.25846 0.13147,0.14547 0.16477,0.20281 0.20062,0.25115 0.0268,-0.20979 0.0197,-0.27467 -0.12119,-0.08 -0.1355,-0.0642 -0.1491,-0.0738 -0.1648,-0.085 -0.1817,-0.0972 -0.12863,-0.0707 z m -6.9726,-4.457996 0.31668,0.01082 0.32147,0.02378 0.3353,0.03677 0.33087,0.0472 0.37564,0.06529 0.36518,0.0759 0.36309,0.0876 0.38096,0.10501 0.37582,0.11794 0.37732,0.13419 0.37915,0.15252 0.38379,0.1749 0.10266,0.0532 0.2916,0.15104 0.14163,0.0812 0.27414,0.16512 0.0872,0.0565 0.13543,0.089 0.18921,0.13115 0.083,0.0658 0.13229,0.10756 0.0908,0.0701 0.12442,0.10236 0.12659,0.1056 0.12793,0.10912 0.12176,0.0626 0.13013,0.0581 0.15726,0.0647 0.18674,0.0762 0.12661,0.0536 0.14493,0.0639 0.12027,0.0515 c 0.0362,0.0154 0.0735,0.0327 0.11166,0.0518 l 0.12787,0.0683 0.0868,0.0507 0.13391,0.0788 0.11148,0.0662 0.11029,0.0655 0.0886,0.0526 0.12711,0.0819 0.13229,0.0846 0.20676,0.14567 0.0964,0.0783 0.1189,0.0913 0.16766,0.13973 0.19419,0.18159 0.10684,0.0996 c 0.15805,0.15691 0.24115,0.24589 0.31857,0.33462 l 0.12268,0.14318 0.18442,0.22918 0.0736,0.10606 0.0888,0.12144 0.0953,0.14258 0.0713,0.11874 0.0684,0.11952 c 0.0251,0.0443 0.0463,0.0837 0.0655,0.12223 l 0.0877,0.1883 0.0522,0.12884 0.0477,0.12985 c 0.0208,0.0601 0.0304,0.0932 0.038,0.12499 l 0.0634,0.26693 0.018,0.1011 0.0296,0.27413 0.007,0.3614 -0.021,0.32086 -0.042,0.34426 -0.053,0.32113 -0.11901,0.61315 -0.0549,0.28745 -0.0445,0.26778 -0.0291,0.24248 -0.0108,0.22378 c -0.0214,0.13104 -0.0411,0.16873 -0.0705,0.19816 -0.059,0.0589 -0.15088,0.0792 -0.26654,0.0655 -0.18757,-0.0396 -0.29493,-0.0808 -0.4105,-0.13864 l 0.01,0.17959 0.0513,0.41853 0.0184,0.28273 0.0724,0.19361 0.15332,0.48707 0.12198,0.48209 0.092,0.47778 0.0631,0.47335 0.0344,0.46833 0.006,0.46229 -0.0225,0.44596 -0.0526,0.4554 -0.0813,0.43587 -0.10932,0.41623 -0.14364,0.41748 -0.17267,0.39403 -0.20276,0.37406 -0.23752,0.35894 -0.26895,0.33493 -0.30225,0.31123 -0.33624,0.2854 -0.37128,0.25736 -0.40643,0.22747 -0.44259,0.19514 -0.47959,0.16078 -0.38421,0.0869 -0.23456,0.0303 -0.4307,0.17945 -0.43838,0.12899 -0.47525,0.0911 -0.51303,0.0511 -0.43912,0.008 -0.45398,-0.0266 -0.42716,-0.0594 -0.45776,-0.0986 -0.44461,-0.13203 -0.4335,-0.16303 c -0.0178,0.1013 -0.0366,0.13712 -0.0645,0.16511 -0.19589,0.19586 -0.77621,-0.0575 -1.36804,-0.57385 l -0.18024,-0.16845 -0.28891,-0.27472 -0.0742,-0.0727 c -0.0881,-0.0882 -0.17124,-0.17726 -0.2486,-0.26605 l -0.15039,-0.18503 -0.23654,-0.29605 -0.21341,-0.18801 -0.17307,-0.16176 -0.30172,-0.28933 -0.13996,-0.14505 -0.29251,-0.30533 -0.12497,-0.13731 -0.2778,-0.31873 -0.1023,-0.1255 -0.27267,-0.33388 -0.0811,-0.10375 -0.2566,-0.34254 -0.0733,-0.10523 -0.25202,-0.35642 -0.0565,-0.0836 -0.23749,-0.3642 -0.27228,-0.44386 -0.25275,-0.44029 -0.23467,-0.43664 -0.21784,-0.43229 -0.20221,-0.42887 -0.18692,-0.42363 -0.17279,-0.4188 -0.15836,-0.41249 -0.14465,-0.4058 -0.1275,-0.38726 -0.12067,-0.39922 -0.10388,-0.37879 -0.0903,-0.3676 -0.0581,-0.274 -0.0527,-0.28212 -0.0484,-0.29171 -0.0443,-0.29958 -0.0761,-0.60855 -0.0594,-0.60285 -0.0254,-0.31742 -0.0194,-0.29283 -0.0149,-0.28211 -0.0103,-0.26848 -0.005,-0.25214 -4e-4,-0.233 0.005,-0.21134 0.01,-0.1774 0.0104,-0.1206 1.5e-4,-0.13498 0.0244,-0.10984 0.0449,-0.10501 0.0501,-0.0969 0.041,-0.12223 0.0292,-0.10437 0.0393,-0.14286 0.0552,-0.17764 0.0708,-0.18607 0.0951,-0.19854 0.12485,-0.20592 0.0785,-0.10857 0.0851,-0.10437 0.0891,-0.061 0.10916,-0.0382 0.12869,-0.0402 0.11298,-0.0371 0.14495,-0.0454 0.16904,-0.0529 0.18534,-0.0579 0.19323,-0.0603 0.19336,-0.0604 0.18518,-0.0578 0.16855,-0.0527 0.14404,-0.0452 0.11344,-0.0358 0.10504,-0.0329 0.0963,-0.0314 c 0.068,-0.0225 0.0907,-0.0254 0.11506,-0.0262 l 0.1138,0.009 0.12136,0.0224 0.19419,0.0376 0.43045,0.10049 0.47055,0.13902 0.0572,-0.12557 c 0.0196,-0.12221 0.0211,-0.17103 0.0312,-0.21313 l 0.0437,-0.0931 0.0795,-0.0869 0.0725,-0.0741 0.0854,-0.0763 0.10062,-0.0871 0.11713,-0.10003 0.12826,-0.10865 0.13355,-0.11293 0.13336,-0.11282 0.12738,-0.10801 0.11545,-0.0987 0.0956,-0.0829 0.077,-0.0685 0.0839,-0.0781 c 0.10852,-0.127489 0.2015,-0.148013 0.31869,-0.134142 l 0.10309,-0.0011 0.11377,-0.0122 0.23767,-0.01489 0.27115,-0.0027 0.002,-2.59e-4 z"
               style="fill:#000000;fill-opacity:1;fill-rule:evenodd;stroke:#000000;stroke-width:0.75;stroke-linecap:butt;stroke-linejoin:miter;stroke-miterlimit:10;stroke-dasharray:none;stroke-opacity:1"
               id="path8252" /></g></g></g></g><g
       id="g8254"><g
         id="g8256"><g
           id="g8258"
           clip-path="url(#clipPath8262)"><g
             id="g8264"><path
               d="m 439.29217,86.294937 0.2837,9.54e-4 0.33722,0.02177 0.30868,0.04132 0.34494,0.06759 0.3349,0.08807 0.34131,0.111512 0.34888,0.13649 0.0936,0.04153 0.26453,0.121887 0.11191,0.057 0.25809,0.136742 0.13293,0.07671 0.25073,0.150917 0.15732,0.105034 0.24149,0.160957 0.15704,0.112495 0.23193,0.177117 0.22492,0.182586 0.22235,0.187546 0.21143,0.194458 0.2117,0.197357 0.0976,0.09528 0.11228,0.119972 0.19998,0.208046 0.13482,0.148751 0.24466,0.290237 0.15375,0.192902 0.16742,0.224876 0.14706,0.211739 0.15586,0.234741 0.10156,0.165779 0.13706,0.240814 c 0.0227,0.03989 0.0434,0.07879 0.0625,0.116791 l 0.13067,0.268448 0.0496,0.112633 0.10355,0.253273 0.11819,0.350174 0.0871,0.337509 0.0585,0.327881 0.0307,0.305008 0.008,0.330459 -0.0174,0.29821 -0.0437,0.320183 -0.0231,0.11702 -0.0302,0.100357 c -0.0731,0.101257 -0.10794,0.119591 -0.1495,0.129501 l -0.10611,0.06072 -0.1752,0.109146 -0.11558,0.073 -0.12677,0.08031 -0.13198,0.08384 -0.13233,0.08395 -0.12674,0.08042 -0.11615,0.07335 -0.0997,0.0627 -0.14087,0.08662 -0.0872,0.04957 c -0.11978,0.04169 -0.16604,0.04315 -0.21765,0.03702 l -0.18667,0.01457 -0.14255,0.02718 -0.10974,0.02699 -0.0985,0.02738 -0.12232,0.03025 -0.17645,0.0335 -0.11182,0.01692 -0.13287,0.01746 -0.15775,0.01825 -0.18624,0.01918 -0.21869,0.02031 -0.2551,0.02173 -0.13123,0.01097 -0.13238,0.01119 0.17947,0.163513 0.16657,0.158936 0.20575,0.206977 0.21722,0.233117 0.36356,0.42057 0.19882,0.244537 0.36969,0.507378 0.12524,0.183891 0.31495,0.509636 0.0855,0.153183 0.26596,0.501473 0.0548,0.114059 0.22909,0.511879 0.22852,0.602447 0.18051,0.580945 0.13608,0.55713 0.0947,0.53323 0.0158,0.24787 -0.0142,0.23433 -0.0286,0.21071 -0.032,0.19007 -0.0252,0.15281 c 0.0429,0.23835 0.0308,0.35186 -0.0359,0.4186 l -0.0905,0.0536 -0.14749,0.0705 -0.0907,0.0437 -0.13974,0.0666 -0.12683,0.0603 -0.12549,0.0598 -0.13464,0.0643 -0.15528,0.0743 -0.18615,0.0893 -0.10785,0.0519 -0.11975,0.0576 -0.13303,0.064 -0.14749,0.071 c -0.0887,0.0268 -0.13528,0.0283 -0.18735,0.0222 l -0.13724,-0.0123 -0.10321,0.002 -0.20129,0.001 -0.14853,-0.006 -0.16836,-0.009 -0.18628,-0.0123 -0.20136,-0.0151 -0.21277,-0.0176 -0.22058,-0.0198 -0.44745,-0.0449 -0.22247,-0.0247 -0.21011,-0.0251 -0.19825,-0.0257 -0.18341,-0.0261 -0.18756,-0.0297 -0.15414,-0.0283 -0.10672,-0.0224 -0.12253,-0.0266 -0.11288,-0.0292 c -0.10541,-0.0336 -0.1677,-0.0601 -0.23319,-0.0928 l -0.13937,-0.0792 -0.34549,-0.17326 -0.36621,-0.20293 -0.0985,-0.0592 -0.28662,-0.17808 -0.11695,-0.0801 -0.28653,-0.19565 -0.10504,-0.0758 -0.31528,-0.24264 -0.151,-0.12394 -0.2818,-0.23973 -0.15951,-0.14695 -0.27649,-0.26026 -0.0726,-0.0707 -0.0846,-0.0906 -0.26971,-0.28312 -0.10111,-0.11147 -0.13626,-0.16189 -0.1109,-0.13931 -0.13916,-0.19386 -0.082,-0.12171 -0.0884,-0.142343 -0.0636,-0.111687 -0.0898,-0.157814 -0.1211,-0.241867 -0.10394,-0.234993 -0.15661,-0.435951 -0.0666,-0.243683 -0.0424,-0.214348 -0.0232,-0.199379 -0.004,-0.198333 0.02,-0.17717 0.0458,-0.158348 0.0746,-0.13575 0.10639,-0.108887 c 0.251,-0.07843 0.64401,0.141045 1.01101,0.508103 0.36716,0.367057 0.58652,0.760086 0.542,0.946312 l -0.0592,0.127281 -0.0241,0.203064 0.012,0.125061 0.0265,0.136993 0.0398,0.146401 0.0505,0.151153 0.0559,0.143425 0.14691,0.31833 0.0634,0.11992 0.064,0.11162 0.15899,0.16637 0.13401,0.10475 0.15362,0.10771 0.17563,0.11085 0.19348,0.11029 0.21118,0.10938 0.19642,0.093 0.0986,0.0179 0.10742,0.0201 0.1254,0.0208 0.13476,0.0186 0.17353,0.0199 0.17996,0.0173 0.19897,0.0165 0.20496,0.0149 0.42218,0.0256 0.20648,0.0106 0.20062,0.009 0.19159,0.008 0.17383,0.007 0.15717,0.006 0.13638,0.005 0.10928,0.003 0.10663,0.005 0.11432,-0.008 0.13129,-0.0671 0.13006,-0.0668 0.1182,-0.0602 0.10635,-0.0536 0.18436,-0.0918 0.15426,-0.0755 0.13486,-0.065 0.12543,-0.0602 0.12616,-0.061 0.1369,-0.0674 0.0902,-0.0447 0.0468,-0.20966 0.0297,-0.18228 0.0298,-0.17623 0.023,-0.171266 0.009,-0.145706 -0.008,-0.112488 -0.077,-0.425575 -0.11127,-0.450303 -0.14056,-0.45037 -0.16599,-0.438652 -0.18564,-0.413132 -0.19467,-0.368851 -0.18652,-0.301849 -0.15409,-0.212334 -0.13458,-0.156509 -0.0874,-0.0702 -0.16458,-0.09937 -0.12699,-0.062 -0.15661,-0.06388 -0.18167,-0.05979 -0.20502,-0.05169 -0.22418,-0.03944 -0.2421,-0.02444 -0.25629,-0.0069 -0.28402,0.01305 -0.12284,0.0037 -0.10458,0.0083 -0.25909,0.01271 -0.20838,0.0085 -0.21628,0.0063 -0.21518,0.0028 -0.22161,-0.0022 -0.19287,-0.0096 -0.10856,-0.01006 c -0.0884,-0.01264 -0.11511,-0.01749 -0.14282,-0.02415 -0.0786,-0.01866 -0.1076,-0.02712 -0.13754,-0.03729 l -0.22867,-0.09596 c -0.13495,-0.06747 -0.28268,-0.160668 -0.43539,-0.275597 l -0.10477,-0.08498 -0.14819,-0.120384 c -0.0778,-0.06782 -0.1557,-0.14058 -0.23282,-0.217782 -0.42462,-0.424491 -0.71503,-0.872604 -0.78818,-1.178108 -0.0308,-0.130768 -0.0287,-0.222954 0.006,-0.28833 l 0.0657,-0.08072 0.09,-0.05571 0.10205,-0.05048 0.13034,-0.04869 0.13656,-0.04335 0.16187,-0.04651 0.18927,-0.05027 0.24097,-0.06042 0.2066,-0.04813 0.17767,-0.0378 0.16596,-0.03131 0.13757,-0.02167 0.12045,-0.01472 c 0.0798,-0.0065 0.10083,-0.0092 0.1232,-0.0099 l 0.10929,-0.0013 0.13186,0.0033 0.13132,0.01025 0.1174,0.0054 0.10602,-0.0052 0.11432,-0.01104 0.10653,-0.0086 0.10523,-0.007 0.0998,-0.0069 0.18054,-0.01581 0.13105,-0.01102 0.15298,-0.01293 0.16803,-0.01424 0.17511,-0.01489 0.17523,-0.01492 0.16788,-0.01437 0.15286,-0.0131 0.129,-0.01108 0.25101,-0.02308 0.20852,-0.02072 0.1774,-0.01942 0.15061,-0.01826 0.11987,-0.01641 0.10184,-0.01588 0.11279,-0.01779 0.10757,-0.02609 0.11991,-0.03641 0.126,-0.03235 0.13578,-0.02368 0.11514,-0.02405 0.0996,-0.04725 0.0919,-0.06828 0.0865,-0.05905 0.12191,-0.0874 0.11286,-0.07707 0.12335,-0.08414 0.12897,-0.08762 0.12881,-0.08755 0.12283,-0.0837 0.11219,-0.0767 0.0955,-0.06578 0.095,-0.06467 0.0439,-0.09419 0.0249,-0.301223 0.002,-0.253617 -0.0169,-0.244171 -0.0337,-0.232948 -0.0476,-0.217453 -0.0587,-0.199898 -0.066,-0.178818 -0.0677,-0.152275 -0.0643,-0.123337 -0.0544,-0.09052 -0.061,-0.08549 -0.0911,-0.07478 -0.0854,-0.0581 -0.11744,-0.07155 -0.14672,-0.0797 -0.17301,-0.08312 -0.1947,-0.08202 -0.21567,-0.07842 -0.2305,-0.07084 -0.24423,-0.06174 -0.25641,-0.05087 -0.26449,-0.03824 -0.27469,-0.02484 -0.27887,-0.0099 -0.28488,0.0057 -0.28882,0.02219 -0.2966,0.0402 -0.15711,0.02583 -0.15213,0.02636 c -0.34427,0.01532 -0.88656,-0.303459 -1.39529,-0.812225 -0.62619,-0.62616 -0.96454,-1.302971 -0.75574,-1.511696 l 0.19251,-0.09456 0.14575,-0.05544 0.2908,-0.08866 0.29266,-0.06519 0.31144,-0.04554 0.31005,-0.02202 0.0136,-0.0011 z"
               style="fill:#000000;fill-opacity:1;fill-rule:evenodd;stroke:#000000;stroke-width:0.75;stroke-linecap:butt;stroke-linejoin:miter;stroke-miterlimit:10;stroke-dasharray:none;stroke-opacity:1"
               id="path8266" /></g></g></g></g><g
       id="g8268"><g
         id="g8270"><g
           id="g8272"
           clip-path="url(#clipPath8276)"><g
             id="g8278"><path
               d="m 450.04446,85.098274 0.17282,0.02813 c 0.35181,0.112671 0.7305,0.369591 1.09095,0.730057 0.21622,0.21627 0.39526,0.439094 0.52441,0.643302 l 0.0626,0.110016 0.0495,0.08702 c 0.0458,0.08897 0.0718,0.150116 0.0912,0.20723 l 0.0275,0.09855 0.0267,0.135895 0.004,0.143112 -0.0119,0.134926 -0.0168,0.107688 -0.0122,0.145508 -0.0278,0.553643 -0.0151,0.547683 -0.002,1.081177 0.0195,1.075554 0.0224,1.073913 0.006,1.078095 -0.009,0.545364 -0.02,0.541321 -0.0332,0.541107 -0.0506,0.562409 -0.0684,0.554321 -0.0866,0.54081 -0.006,0.117775 -0.0124,0.133667 -0.0183,0.103477 -0.0393,0.112938 c -0.0866,0.101082 -0.13766,0.119354 -0.20062,0.121529 -0.2876,0.01013 -0.77597,-0.277054 -1.23422,-0.735375 -0.21158,-0.211517 -0.38666,-0.429474 -0.51291,-0.629181 l -0.10589,-0.186096 c -0.0506,-0.100006 -0.0761,-0.159805 -0.095,-0.21566 l -0.0252,-0.105591 -0.0215,-0.09917 -0.004,-0.133271 0.0164,-0.135421 0.0207,-0.100602 0.0322,-0.116378 0.0606,-0.538399 0.0456,-0.552254 0.0303,-0.542541 0.0178,-0.548966 0.007,-0.539398 -0.002,-0.543419 -0.0209,-1.075851 -0.0293,-1.076439 -0.0203,-1.085037 0.006,-1.099213 0.0189,-0.555794 0.032,-0.554832 0.0172,-0.10286 0.0117,-0.145637 0.0132,-0.113747 0.0273,-0.127228 c 0.0133,-0.05356 0.0301,-0.08569 0.0552,-0.110763 0.0738,-0.06618 0.12591,-0.08485 0.19039,-0.08709 z"
               style="fill:#000000;fill-opacity:1;fill-rule:evenodd;stroke:#000000;stroke-width:0.75;stroke-linecap:butt;stroke-linejoin:miter;stroke-miterlimit:10;stroke-dasharray:none;stroke-opacity:1"
               id="path8280" /></g></g></g></g><g
       id="g8282"><g
         id="g8284"><g
           id="g8286"
           clip-path="url(#clipPath8290)"><g
             id="g8292"><path
               d="m 455.64288,85.30471 c 0.2724,-0.0095 0.76892,0.282563 1.23481,0.748513 0.1434,0.143371 0.27032,0.28965 0.37704,0.431389 l 0.19962,0.278343 0.0673,0.101013 0.13464,0.202591 0.1062,0.181564 0.0624,0.109253 0.057,0.119499 0.0569,0.117699 0.0424,0.107376 0.11319,0.306381 0.1141,0.3629 0.095,0.358902 0.0749,0.340202 0.0665,0.370636 0.049,0.353524 0.0597,0.695709 0.0165,0.70385 -0.0224,0.695785 -0.056,0.695183 -0.0844,0.682182 -0.10822,0.669228 -0.1272,0.652756 -0.14166,0.632644 -0.15039,0.604042 -0.15604,0.577813 -0.15982,0.55664 -0.15405,0.513184 -0.14596,0.473266 -0.0519,0.153595 -0.0427,0.09201 -0.0946,0.07749 -0.0452,0.155029 -0.0441,0.175728 -0.0431,0.17688 -0.0365,0.145584 -0.028,0.100738 -0.0482,0.102982 c -0.1521,0.153786 -0.61002,-0.07517 -1.03369,-0.498856 -0.31775,-0.317749 -0.52597,-0.654762 -0.55066,-0.863006 l 6.4e-4,-0.10611 0.009,-0.109001 0.0182,-0.112923 0.0407,-0.274666 0.0284,-0.185348 0.0153,-0.104164 c -0.0122,-0.125946 -0.0229,-0.169838 -0.0275,-0.20961 l -6.1e-4,-0.125489 0.005,-0.100502 0.0194,-0.147903 0.0746,-0.533394 0.0878,-0.570068 0.0936,-0.600876 0.0959,-0.626534 0.0944,-0.648857 0.0884,-0.660347 0.0802,-0.676796 0.0677,-0.686935 0.0498,-0.671356 0.0314,-0.689644 0.007,-0.673172 -0.0198,-0.653671 -0.0505,-0.638535 -0.0363,-0.301605 -0.0455,-0.299126 -0.0537,-0.288383 -0.0616,-0.274521 -0.07,-0.264267 -0.0811,-0.261284 -0.0363,-0.103195 -0.0564,-0.126221 -0.0779,-0.16452 -0.0591,-0.144104 c -0.0568,-0.167221 -0.0556,-0.299187 0.0162,-0.370865 0.0358,-0.03586 0.0868,-0.05408 0.14966,-0.05625 z"
               style="fill:#000000;fill-opacity:1;fill-rule:evenodd;stroke:#000000;stroke-width:0.75;stroke-linecap:butt;stroke-linejoin:miter;stroke-miterlimit:10;stroke-dasharray:none;stroke-opacity:1"
               id="path8294" /></g></g></g></g><g
       id="g8296"><g
         id="g8298"><g
           id="g8300"
           clip-path="url(#clipPath8304)"><g
             id="g8306"><path
               d="m 448.21606,91.830078 c 0.24201,0.02584 0.56611,0.226021 0.87149,0.531494 0.20377,0.203629 0.36057,0.415528 0.44947,0.593476 l 0.0887,0.07718 0.3906,0.109695 0.37182,0.101776 0.35062,0.09341 0.33154,0.08621 0.30112,0.07654 0.30664,0.07646 0.58841,0.143921 0.57599,0.140267 0.58581,0.146049 0.30646,0.07871 0.33942,0.08959 0.33764,0.09171 0.35608,0.09975 0.37723,0.108727 0.40103,0.118942 0.42774,0.130356 0.45755,0.14299 0.48996,0.156815 0.52545,0.171699 0.56393,0.187981 0.29752,0.100471 0.30414,0.103653 0.31634,0.108635 0.32816,0.113518 0.33999,0.118469 0.36716,0.12883 0.36728,0.12973 0.38037,0.135186 0.39343,0.14067 0.40751,0.146546 0.42123,0.152222 0.436,0.15837 0.45087,0.164612 0.46622,0.170899 0.29504,0.110428 0.32617,0.12886 0.3201,0.131668 0.30377,0.128601 0.27643,0.1194 0.12695,0.05548 0.11204,0.04922 0.10055,0.04429 0.11285,0.05107 c 0.1081,0.04569 0.14292,0.06184 0.17859,0.07967 l 0.26306,0.147247 0.29471,0.19719 c 0.2024,0.151313 0.36127,0.289199 0.51709,0.444969 l 0.23047,0.245712 c 0.33545,0.384621 0.54892,0.763855 0.57852,1.014098 0.002,0.15023 -0.0179,0.20555 -0.0568,0.24451 -0.0748,0.0506 -0.0933,0.0574 -0.1135,0.0622 l -0.1651,0.008 c -0.0814,-0.009 -0.10952,-0.0139 -0.13888,-0.0209 l -0.14514,-0.0399 -0.16889,-0.0484 -0.10162,-0.0297 -0.1124,-0.0334 -0.24661,-0.0752 -0.27621,-0.0871 -0.29505,-0.097 -0.29629,-0.102385 -0.31906,-0.116753 -0.47086,-0.175499 -0.45102,-0.167366 -0.43249,-0.159988 -0.42133,-0.155197 -0.40558,-0.148758 -0.38965,-0.142273 -0.38006,-0.138184 -0.36289,-0.131248 -0.35205,-0.126778 -0.3399,-0.121658 -0.32782,-0.11673 -0.31851,-0.112747 -0.28956,-0.101944 -0.29632,-0.103699 -0.56229,-0.19474 -0.52392,-0.178963 -0.48816,-0.164307 -0.44989,-0.149009 -0.41895,-0.136414 -0.39435,-0.126243 -0.37509,-0.117997 -0.34869,-0.107872 -0.33768,-0.102737 -0.31778,-0.09534 -0.31116,-0.09216 -0.60672,-0.177643 -0.59921,-0.174896 -0.61892,-0.183243 -0.32621,-0.09837 -0.33874,-0.103867 -0.35517,-0.110832 -0.37463,-0.118973 -0.39703,-0.128486 -0.42224,-0.139084 -0.4502,-0.150955 -0.47821,-0.162934 -0.23071,-0.08823 -0.11209,-0.05048 -0.18229,-0.08679 -0.12631,-0.07014 -0.17779,-0.09869 -0.093,-0.05603 -0.22159,-0.146363 -0.15234,-0.107788 -0.15485,-0.118538 -0.20447,-0.165992 -0.16461,-0.146256 -0.16897,-0.159561 -0.0938,-0.100372 -0.10694,-0.111023 -0.0883,-0.09766 c -0.0562,-0.06432 -0.10812,-0.128434 -0.15563,-0.191559 l -0.11313,-0.156296 -0.0855,-0.126312 c -0.0369,-0.05833 -0.0691,-0.114891 -0.096,-0.168892 l -0.0658,-0.144036 c -0.0523,-0.138771 -0.0626,-0.181953 -0.0672,-0.221099 l -0.002,-0.174599 0.0379,-0.09309 0.0753,-0.08007 0.0959,-0.06181 0.15292,-0.0493 0.10455,-0.01704 0.10056,-0.01226 0.10135,-0.0087 0.12054,-0.0093 0.13568,-0.0021 z"
               style="fill:#000000;fill-opacity:1;fill-rule:evenodd;stroke:#000000;stroke-width:0.75;stroke-linecap:butt;stroke-linejoin:miter;stroke-miterlimit:10;stroke-dasharray:none;stroke-opacity:1"
               id="path8308" /></g></g></g></g><g
       id="g8310"><g
         id="g8312"><g
           id="g8314"
           clip-path="url(#clipPath8318)"><g
             id="g8320"><path
               d="m 440.65073,73.909843 0.29736,0.01841 0.29904,0.03697 0.33514,0.05704 0.34375,0.07253 0.35016,0.08585 0.38013,0.104454 0.38171,0.11554 0.39026,0.128067 0.38022,0.134002 0.41538,0.155678 0.78762,0.323555 0.41318,0.184387 0.39469,0.186829 0.38446,0.192818 0.38849,0.20681 2.28137,1.240341 2.2677,1.220627 2.26297,1.20832 2.27902,1.20916 4.57907,2.415596 2.30182,1.211853 2.29385,1.209198 0.17874,0.09 0.2071,0.09744 0.23892,0.106643 0.26682,0.113907 0.27978,0.115303 0.28763,0.114907 0.60681,0.23368 0.2915,0.108765 0.28281,0.103752 0.27866,0.100647 0.25216,0.08995 0.21909,0.07719 0.21054,0.07346 0.18042,0.06228 0.14389,0.04932 0.11191,0.03804 0.17303,0.06528 0.14496,0.06708 c 0.33411,0.167092 0.732,0.461655 1.11444,0.844132 0.76499,0.7649 1.17835,1.591652 0.92337,1.846618 -0.0637,0.06374 -0.16327,0.08573 -0.28851,0.07088 l -0.1163,-0.02043 -0.0995,-0.02692 -0.12808,-0.03851 -0.14441,-0.04434 -0.18753,-0.05942 -0.21756,-0.0708 -0.24393,-0.08107 -0.26279,-0.08931 -0.27783,-0.09637 -0.31393,-0.111237 -0.31327,-0.113792 -0.63842,-0.241433 -0.33295,-0.131729 -0.32315,-0.132736 -0.30924,-0.132637 -0.31964,-0.143837 -0.30371,-0.145218 -0.30044,-0.154571 -2.36841,-1.275361 -2.3223,-1.251686 -4.629,-2.50904 -2.315,-1.267502 -2.31216,-1.278511 -2.31342,-1.294487 -2.30093,-1.305641 -0.3002,-0.165352 -0.30936,-0.161324 -0.3259,-0.161491 -0.33362,-0.157051 -0.71771,-0.313149 -0.34839,-0.140236 -0.35418,-0.134559 -0.34882,-0.124321 -0.3389,-0.112152 -0.3294,-0.1 -0.31373,-0.08571 -0.2948,-0.07013 -0.27297,-0.05384 -0.24762,-0.03657 -0.23884,-0.02034 -0.13452,-0.027 0.0738,0.194939 0.0353,0.0969 0.0356,0.123131 0.0131,0.1044 -0.002,0.106583 -0.0579,0.09112 c -0.27289,0.08521 -0.7005,-0.15358 -1.09994,-0.552933 -0.28516,-0.285278 -0.48853,-0.584961 -0.56373,-0.806724 l -0.10492,-0.230362 -0.10516,-0.212914 -0.0723,-0.159141 -0.0595,-0.148865 -0.0292,-0.09872 -0.0367,-0.122726 -0.0331,-0.147163 -0.003,-0.172867 c 0.004,-0.06692 0.007,-0.08628 0.011,-0.104187 l 0.0477,-0.114098 0.0826,-0.09384 c 0.0382,-0.03825 0.0925,-0.0577 0.15967,-0.06001 z"
               style="fill:#000000;fill-opacity:1;fill-rule:evenodd;stroke:#000000;stroke-width:0.75;stroke-linecap:butt;stroke-linejoin:miter;stroke-miterlimit:10;stroke-dasharray:none;stroke-opacity:1"
               id="path8322" /></g></g></g></g><g
       id="g8324"><g
         id="g8326"><g
           id="g8328"
           clip-path="url(#clipPath8332)"><g
             id="g8334"><path
               d="m 458.23697,58.29557 0.50619,0.03239 0.4762,0.06131 0.50568,0.09134 0.49533,0.110656 0.48266,0.121983 0.52463,0.141167 0.51856,0.142521 0.52731,0.142288 0.54675,0.140171 0.6005,0.141941 0.30517,0.06643 0.32114,0.0654 0.32678,0.0619 0.34763,0.06047 0.15631,0.02521 0.18698,0.02792 0.19803,0.02811 0.24551,0.03364 0.26248,0.03492 0.27387,0.0356 0.56021,0.07095 0.27551,0.03418 0.26471,0.0325 0.24936,0.0303 0.22839,0.0275 0.20084,0.02405 0.16916,0.02009 0.10864,0.01445 0.11551,0.01162 0.13867,0.01223 0.14087,0.01184 0.13657,0.01085 0.12167,0.009 0.21533,0.01404 0.17694,0.0089 0.14627,0.0047 0.11744,0.0011 0.10385,-0.0017 0.10687,-0.0036 0.22021,-0.02824 0.11716,-0.01219 0.11817,-0.0053 0.16104,-0.0096 0.11761,-0.0013 0.129,5.04e-4 0.11884,-0.02409 0.1091,-0.03087 0.1091,-0.02756 0.13952,-0.03463 0.16254,-0.04019 0.1781,-0.04385 0.18545,-0.04548 0.18598,-0.04548 0.1781,-0.04349 0.16269,-0.03955 0.13901,-0.03364 0.1101,-0.02646 0.11808,-0.02509 0.0525,-0.09597 0.062,-0.141919 0.0505,-0.105995 0.052,-0.110664 0.10183,-0.220871 0.0439,-0.09802 0.0396,-0.09193 0.0395,-0.09438 0.0313,-0.09735 c 0.0122,-0.117798 0.031,-0.17033 0.068,-0.207317 0.17261,-0.172573 0.6839,0.05068 1.20533,0.5056 l 0.1755,0.164097 0.0926,0.08772 c 0.12568,0.125016 0.19993,0.20459 0.26914,0.283951 l 0.10434,0.128441 0.10785,0.129719 0.0871,0.111545 c 0.0622,0.08261 0.1185,0.163899 0.16846,0.242779 l 0.0726,0.117668 0.11237,0.20092 0.0548,0.111046 0.0463,0.101063 0.0677,0.175324 0.0371,0.116523 0.0368,0.131455 0.0449,0.227974 0.0242,0.198955 0.0194,0.374615 8.5e-4,0.183823 -0.003,0.158386 -0.004,0.13541 -0.005,0.112511 -0.006,0.155716 c 0.021,0.170322 -0.004,0.285267 -0.0781,0.358932 l -0.12039,0.06912 -0.0982,0.02878 -0.13913,0.0336 -0.11004,0.02632 -0.13953,0.03316 -0.16348,0.03872 -0.1792,0.04233 -0.18704,0.04403 -0.18711,0.04391 -0.17938,0.04196 -0.16397,0.03822 -0.14005,0.03244 -0.11123,0.02554 -0.14444,0.03242 -0.10129,0.01883 -0.16299,0.0046 -0.1836,-0.0035 -0.11172,-0.001 -0.17368,0.0031 -0.12271,0.01102 -0.13241,0.01658 -0.11704,0.01158 -0.17227,0.009 -0.11637,5.92e-4 -0.17462,-0.0043 -0.17929,-0.0098 -0.20846,-0.01582 -0.24182,-0.0226 -0.13745,-0.01432 -0.14506,-0.01598 -0.15164,-0.0176 -0.16357,-0.01977 -0.0999,-0.01154 -0.12246,-0.01566 -0.17279,-0.02331 -0.20548,-0.02864 -0.23315,-0.03319 -0.25516,-0.03694 -0.27084,-0.03982 -0.30738,-0.0457 -0.57507,-0.08719 -0.28271,-0.04377 -0.27042,-0.04245 -0.25357,-0.04052 -0.23175,-0.03796 -0.20432,-0.0345 -0.17291,-0.03064 -0.3793,-0.07371 -0.36646,-0.0773 -0.35446,-0.08026 -0.33499,-0.08095 -0.65387,-0.170842 -0.61203,-0.173667 -0.57248,-0.171563 -0.53128,-0.163105 -0.4975,-0.151111 -0.46054,-0.133259 -0.43869,-0.11512 -0.42309,-0.09439 -0.41645,-0.07147 -0.41675,-0.04576 -0.42776,-0.01678 -0.4487,0.01678 -0.22537,0.02187 -0.2359,0.03242 -0.24277,0.04318 -0.24713,0.05398 -0.0248,0.218395 0.0543,0.206047 0.0566,0.173546 0.0557,0.142494 0.0522,0.114391 0.0473,0.09132 0.16901,0.264881 0.19327,0.270466 0.24475,0.341446 0.0902,0.132286 0.24511,0.369392 0.23615,0.366722 0.20947,0.318581 0.22733,0.339889 0.24322,0.359978 0.52271,0.768913 0.54943,0.814377 0.57239,0.868469 0.57489,0.908074 0.0539,0.08925 0.51767,0.867119 0.28845,0.511139 0.2655,0.493714 0.25339,0.497634 0.23913,0.500306 0.22278,0.501464 0.20395,0.501313 0.18292,0.499298 0.16016,0.496322 0.1355,0.491822 0.10464,0.467491 0.0849,0.498131 0.0495,0.458999 0.0212,0.475785 -0.0126,0.450645 -0.0466,0.447128 -0.0816,0.43351 -0.11398,0.40876 -0.15939,0.425362 -0.0551,0.124969 -0.0509,0.09993 c -0.0684,0.0785 -0.11072,0.100746 -0.16104,0.112778 l -0.10553,0.01 -0.15469,0.01917 -0.10181,0.0136 -0.13226,0.01814 -0.15357,0.02123 -0.16922,0.02346 -0.17651,0.02452 -0.17691,0.02447 -0.16992,0.0233 -0.15543,0.02101 -0.13425,0.01769 -0.10754,0.01362 -0.147,0.0163 -0.15085,0.0038 c -0.17429,-0.01743 -0.32679,-0.06957 -0.49536,-0.153915 l -0.0897,-0.04703 -0.15256,-0.08959 -0.6113,-0.261513 -0.75549,-0.347458 -0.73911,-0.367935 -0.73462,-0.396194 -0.73565,-0.429672 -0.0869,-0.05293 -0.65195,-0.41301 -0.0967,-0.06683 -0.65551,-0.443123 -0.0949,-0.06911 -0.66568,-0.482284 -0.0983,-0.07596 -0.0917,-0.07036 -0.10218,-0.08263 -0.21689,-0.181259 -0.0787,-0.06843 -0.1691,-0.147919 -0.10525,-0.0984 -0.20249,-0.183616 -0.10513,-0.102044 -0.20883,-0.203773 -0.12577,-0.132309 -0.20669,-0.2155 -0.1218,-0.13417 -0.21982,-0.257096 -0.16009,-0.198929 -0.16403,-0.220108 -0.15607,-0.224647 -0.15652,-0.256645 -0.0906,-0.163384 -0.0645,-0.135002 -0.0509,-0.124931 -0.0371,-0.09678 -0.0294,-0.110687 -0.0381,-0.162621 -0.008,-0.109047 0.0136,-0.152054 0.0445,-0.124618 0.0724,-0.09905 0.0974,-0.07565 0.12011,-0.05482 0.14035,-0.03561 0.16547,-0.01918 0.18597,-0.0025 0.2089,0.01334 0.22741,0.02831 0.12305,0.02908 c 0.21964,0.07451 0.51645,0.275925 0.79907,0.558472 0.45215,0.452095 0.69635,0.94075 0.54566,1.091461 l -0.21436,0.07394 -0.11145,0.04124 -0.16241,0.104301 -0.0677,0.102486 0.0444,0.142463 0.0848,0.08543 0.10425,0.09825 0.10516,0.09354 0.089,0.07504 0.64017,0.449006 0.55661,0.359062 0.55374,0.33007 0.55945,0.306099 0.57437,0.286896 0.59692,0.271461 0.62378,0.257965 0.49817,0.187737 0.1022,-0.01694 0.14014,-0.02782 0.13172,-0.02195 0.15289,-0.02487 0.16711,-0.02689 0.17429,-0.02785 0.17413,-0.02769 0.16635,-0.0265 0.15192,-0.02432 0.12942,-0.02084 0.10117,-0.01663 0.19483,-0.458183 0.0929,-0.375015 0.0605,-0.377953 0.0302,-0.381088 0.002,-0.383675 -0.0242,-0.384361 -0.0486,-0.385666 -0.071,-0.386085 -0.0919,-0.386566 -0.11118,-0.38678 -0.12884,-0.386818 -0.14484,-0.385918 -0.16022,-0.386864 -0.17328,-0.385322 -0.1867,-0.387276 -0.19806,-0.38694 -0.21149,-0.392669 -0.21097,-0.374657 -0.47314,-0.797363 -0.49081,-0.784363 -0.51053,-0.78875 -0.51551,-0.783699 -0.50433,-0.768921 -0.25275,-0.39093 -0.24447,-0.384972 -0.23712,-0.382999 -0.20322,-0.339073 -0.17517,-0.275795 -0.19983,-0.295368 -0.24158,-0.362397 -0.0865,-0.137508 -0.21329,-0.351749 -0.0787,-0.140034 -0.10052,-0.186886 -0.0485,-0.09786 -0.095,-0.197159 -0.1232,-0.289108 -0.11597,-0.314629 -0.0953,-0.309288 -0.0801,-0.318153 -0.0661,-0.330616 -0.0529,-0.347699 c -0.0107,-0.08445 -0.009,-0.139492 0.002,-0.187011 0.036,-0.08962 0.0491,-0.10746 0.0647,-0.123108 l 0.0953,-0.05596 0.0994,-0.03172 0.10446,-0.033 0.34341,-0.08951 0.25244,-0.05463 0.26593,-0.0475 0.25363,-0.03492 0.4906,-0.03894 0.47367,-0.0022 10e-4,-1.57e-4 z"
               style="fill:#000000;fill-opacity:1;fill-rule:evenodd;stroke:#000000;stroke-width:0.75;stroke-linecap:butt;stroke-linejoin:miter;stroke-miterlimit:10;stroke-dasharray:none;stroke-opacity:1"
               id="path8336" /></g></g></g></g></g></svg>
